<svg xmlns="http://www.w3.org/2000/svg" id="a" viewBox="0 0 24 24"><path d="M10.42,19.83l-.62-.21.16-.31.23-.32-.46-.24-.4.31c-.16-.46-.17-.49-.02-.07l-.41.43-.3.45.69.13c.24-.07.28.1.15.22l-1.29.12-.31-.56h-.19s.12.53.12.53l-.69-.63-.03-2.17.22.23.04,1.97c.29-.06.3-.12.2-.18l-.07-1.59.24-.1.12.42c.04.32.22.35.26,0l.09-.65.83.36-.21-.66h.89s.82-.25.82-.25c-.48-.42-1.02-.55-1.67-.5l.21-.48-.55.29c-.12.28-.26.29-.19-.15h-.44s-.15-1.72-.15-1.72l-.26,1.13-.17-.32v-1.08s.44.1.44.1c-.03.1.05-.2.06-.23l-.48-.02-.05-1.87-.37-.35.4-.61,4.78-.35.07.37.41-.37,2.83-.06,1.23-.09c.38-.03.81.27.83.71l-.42-.37-1.92.04.53.24.21.15-.14.45.32-.35.08.65.33.11.15.46-.13,2.7-.63.09.45.27.25.14-1.2.18c.6.2,1.26.08,1.91-.15l.7-.12.78-.09.54-.23-.87-.11,2.25-.75-.15.28-.51.17-.7.64-.97.32c-1.03.24-2.02.39-3.11.44l-.74.22.67.22c-.06.42-.05.36,0-.04l1.08-.15.13.39.54.03-1.09,1.84-.22-.37-.47.6-1.11.15.14-.28-.23-.25-.09.49-1.77.1-.31.18.96.24-1.64.13-1.17.05-.03-.28.56-.06ZM14.07,11.09l-.09.1.09.09h.17l.09-.09-.09-.09h-.17ZM8.72,11.62l-.09.09.09.09.09-.09-.09-.09ZM9.35,11.79c0-.11-.09-.19-.19-.19s-.19.09-.19.19.09.19.19.19.19-.09.19-.19ZM10.45,11.79l-.09.09.09.09.09-.09-.09-.09ZM14.24,11.79l-.09.09.09.09.09-.09-.09-.09ZM9.6,12.93l.38-.85-.68.47.09.82.22-.44ZM13.53,17.63l-.13-.69-.15-.85-.2-.64.53-.71c.07-.63-.05-1.12-.45-1.52-.52-.23-.92-.22-1.49-.01l-.61,1.08c.17.44.28.68.58,1.14l.09.42-.34,1.94,2.16-.15ZM15.96,14.03l-.09.09.09.09.09-.09-.09-.09ZM10.27,15.24l-.09.09.09.09h.17l.09-.09-.09-.09h-.17ZM14.76,15.24l-.09.09v.17l.09.09.09-.09v-.17l-.09-.09ZM9.97,15.77l-.38-.21-.26.35.64-.14ZM12.17,18.17l-.09.09.09.09.09-.09-.09-.09ZM10.45,18.68l-.09.09.09.09.09-.09-.09-.09ZM11.37,19.82c0-.08-.07-.15-.15-.15s-.15.07-.15.15.07.15.15.15.15-.07.15-.15Z"/><path d="M14.08,4.43l.15.3.27-.08-.12-.36c.23.14.56.46.69.66-.32.4.01.35.24.11.46.7.73,1.55.9,2.44l.06,2.62c-.12-.15-.25-.32-.23-.28l-.04-.77-.16.63-.1.47-.54.12.05-.75-.04-2.41-.09-.8-.54-.65c-.51-.74-1.38-1.12-2.31-1l-.41-.08-.95.34c-.55.39-1,.86-1.52,1.43l-.32,1.61v1.24s-.18.94-.18.94l.11.44-.43-.12-.44.06.02-1.36.17-.38-.18-.25c-.11-1.39.26-2.65,1.11-3.49l.39.13-.13-.43c.48-.48,1.18-.82,1.94-1.09h1.82s.75.36.75.36l.09.4Z"/><path d="M14.38,4.3l-.3.13.3-.13Z"/><path d="M22.96,8.75l.22-.05.3.19.31.5-.44.49-1.02-1.12-.19-.24-.31.1-.35-.28c-.26.22-.44.13-.47-.14l-.44.08-.34-.36-.72,1.14-.14-.33.68-.95.13-.61-.2-.82c.08-.29.14-.26.16-.02l.19.6.09.39.38.03.66.22.39-.04.28.26.15-.28.58-.96v.58s-.67.89-.67.89l.77.51-.17.3.17-.1ZM23.03,8.85l-.11.11.1.1.13-.13-.12-.08ZM23.17,9.25l.04-.17c.02-.08-.01.05-.04.17Z"/><polygon points="20.64 13.81 21.07 14.27 22.14 13.2 21.88 12.15 22.17 12.38 22.44 13.1 22.82 13.29 23.84 14.43 23.71 14.56 22.77 13.63 22.25 14.1 22.35 14.21 22.83 13.97 22.4 14.52 22.22 14.31 22.16 14.19 21.67 14.72 21.53 15.73 21.52 16.64 21.23 15.75 21.28 15.13 21.47 14.55 21.13 14.66 20.85 14.41 20.47 13.98 20.41 13.88 20.17 13.43 20.58 13.71 20.64 13.81"/><path d="M2.91,15.29l.24.32.24.15.84-.88.1.1-.81.99-.14.3-.32-.09-.46-.25-.53-.23.16.31.25.15-.23.05-.09-.1-.27-.09.19-.41-.57-.2-.89-.97.59.29.19.14h.2c.07.02.31-.09.25-.06l.44-1.17.13.29-.2.45-.12.28.05.22.55.17.19.26Z"/><path d="M3.11,15.43l-.2-.14.2.14Z"/><polygon points=".63 14.44 .52 14.12 .71 14.01 .63 14.44"/><polygon points="1.61 14.87 1.42 14.87 1.22 14.72 1.28 14.5 .71 14.01 .3 13.16 .76 13.37 1.39 14.39 1.61 14.87"/><path d="M3.15,15.61l-.05-.19.05.19Z"/><path d="M2.08,11.24l.25-.99.17-.25-.43-.31,1.16-.76.33-.85.26-.44-.3,1.33c-.15.01.22-.02.31-.03l.49-.31,1.34-.07,1.16-.07c.28.07.33.16,0,.17l-.51.08.51.27-1.77.07-.54.12.39-.31-.79.07-.35.18.02.3.12.07.09.11.08.08.27.42.11.09-.09.15-.15-.13-.28-.41-.07-.07-.07-.12-.11-.13-.41.3s-.01,0-.27.34l-.22-.12-.61,1.12.16.2v.22s-.26-.33-.26-.33ZM5.1,8.67l-.09.1.09.15.09-.15-.09-.1Z"/><polygon points="16.96 19.92 15.35 19.86 15.45 19.72 16.85 19.71 17.42 19.14 17.44 16.77 17.7 17.02 17.72 17.52 17.81 19.08 16.96 19.92"/><path d="M23.43,12.59l-.69.52.38-.83c.21-.37.34-.87.28-1.29l.07-.61.27.4.15-1.11.12.93c-.26.35-.3.82-.07,1.17l-.37,1.15c-.2.04-.29.05-.25.05l.12-.39Z"/><path d="M6.33,16.89l-1.07-.08-.73.15-.12-.32c-.27.22-.23.09-.11-.06l-.62-.59,1.14.35.91-.06-.2.27.77.21c.01.06.06.25.03.12Z"/><path d="M17.45,15.78l-.03-2.74-.18-.18.05-1.12.31.34.04,3.34c.06-.08,0,.04-.18.35Z"/><polygon points="9.12 17.01 8.58 17.08 7.27 17.15 7.28 16.77 9.51 16.82 9.12 17.01"/><path d="M19.58,7.47l-.89.02-.22.09-1.33.36.22-.17.43-.24-.79-.06-.1-.09.72-.16s.06.02.2.08h1.69s.16.09.16.09l.1.09v.18s-.26.13-.26.13l.15-.23-.08-.09Z"/><polygon points="6.94 15.68 6.83 14.43 6.76 13.15 7.06 13.93 7.1 15.68 6.94 15.68"/><polygon points="14.5 19.76 14.09 20.05 12.96 20.07 12.96 19.7 14.5 19.76"/><polygon points="17.18 14.56 17.32 15.54 16.91 15.81 16.93 13.98 17.18 14.56"/><polygon points="1.38 10.55 1.2 10.55 1.65 10.06 1.74 10.15 1.38 10.55"/><path d="M.88,11.78l.15-.28-.15.28Z"/><path d="M.99,11.06c-.08.13-.25.5-.32.69l-.25.46-.07-.52-.35-.09.84-.7.21-.13-.06.29Z"/><polygon points=".67 11.75 .88 11.78 .85 12.83 .72 12.74 .67 11.75"/><path d="M1.05,10.77l.15-.22-.15.22Z"/><polygon points="1.03 11.5 .99 11.06 1.45 10.97 1.03 11.5"/><polygon points="1.45 10.97 1.38 10.55 1.76 10.65 1.45 10.97"/><polygon points="3.54 17 3.16 17.84 3.12 16.73 3.54 17"/><path d="M1.46,16.24l-.5.65c.16.05-.04-.01-.09-.03l.15-.31.13-.44.6-.43-.29.56Z"/><path d="M9.35,8.18v-1.04c.36-.23.37-.06.19.16l-.04.79-.15.09Z"/><polygon points="10.67 9.6 9.78 9.12 10.3 9.07 10.67 9.6"/><polygon points="14.31 8.76 13.62 8.78 14.23 8.23 14.31 8.76"/><polygon points="14.58 6.71 14.57 6.49 14.81 6.8 14.78 7.51 14.65 6.88 14.58 6.71"/><path d="M12.6,5.18l-.7-.04.7.04Z"/><path d="M9.38,9.55l.04-.7-.04.7Z"/><path d="M1.31,8.63c-.02.09,0-.03.03-.11l.15.16.27.31.07.27c.02-.09,0,.03-.03.11l-.15-.16-.27-.31-.07-.27Z"/><path d="M21.97,9.16c.04.45.05.48,0,.08-.02-.19-.03-.26,0-.08Z"/><path d="M14.92,9.28c0,.27,0,.33,0,.12,0-.33,0-.54,0-.12Z"/><path d="M7.17,16.11q0,.41,0,0,0-.21,0,0Z"/><polygon points="13.53 5.58 13.52 5.4 13.72 5.58 13.81 5.67 13.95 5.72 14.2 6.11 13.8 5.86 13.72 5.76 13.64 5.67 13.53 5.58"/><polygon points="9.41 10.06 9.5 10.15 9.5 10.32 9.41 10.41 9.33 10.32 9.33 10.15 9.41 10.06"/><circle cx="14.85" cy="8.77" r=".15"/><polygon points="20.45 15.62 20.19 15.42 20.9 15.06 20.45 15.62"/><path d="M18.45,16.48c-.37.08-.42.09,0,0,.23-.29.13-.16,0,0Z"/><rect x="9.73" y="5.95" width="1.1" height=".12" transform="translate(-1.24 9.03) rotate(-45)"/><polygon points="6.83 8.17 6.91 8.25 6.83 8.38 6.74 8.25 6.83 8.17"/><rect x="14.87" y="19.74" width=".12" height=".12" transform="translate(-9.63 16.36) rotate(-45)"/><rect x="5.56" y="17.16" width=".12" height=".12" transform="translate(-10.53 9.02) rotate(-45)"/><rect x="2.63" y="16.3" width=".12" height=".12" transform="translate(-10.78 6.69) rotate(-45)"/><polygon points="2.52 9.03 2.6 9.12 2.52 9.25 2.43 9.12 2.52 9.03"/></svg>
