<svg xmlns="http://www.w3.org/2000/svg" id="a" viewBox="0 0 24 24"><path d="M21.15,4.52l.23-.18.19.16,1.59,2.46.59,1.9.2,2.82-.4,2.61h-.56s.07.99.07.99l-1.01,1.86-.35.37-.41-.22c1.44-2.25,2.1-4.55,1.92-7.14l-.72-3.21-1.21-2.21-.14-.21Z"/><polygon points=".67 9.73 .15 10.19 .88 8.02 1.26 7.75 1.04 8.72 .67 9.73"/><path d="M7.69,5.16c1.06-1.22,2.54-1.87,4.17-1.94l-.73-.43.54-1.25,1.3-.46,1.23.73.3,1.71-1.18-.22.33-.57-.21-.53-.96-.38-.44,1.34c1.38.44,2.04.82,3.04,1.57l.84.88c.71,1.28,1,2.59.95,4.08l-.29,2.73-.03,2.9.14.79-1.39-.68c-.29-.13-.61-.1-.25.22l1.06.48.61.39,1.18,2.78-.33.8.95,1.25-1.48.62-3.12-.11-1.6-.36,2.38-.08.55.37,2.68-.4-.26-.66c-2.17-1.05-4.29-1.86-6.63-2.4l-1.15-.31-2.02-.38-2.09-.26.59-.95.85-1.36-.78.68-.83,1.2-.51.37-3.78-.15-.49.23.16.46,1.66.81.61.31.53.11-.13.41-.43-.18-2.19-1.05-.91-.86,1.57-.76,1.71.11-.97-.51c.07.14-.16-.31-.18-.34l-1.01.38,2.21-2.27,2.06-.25-.67-.42-.91.35,1.73-4.09.3-.3-.19-.41.75-2.07.55-.34c.19.17.38-.31.15-.44l.17-.69.26-.19ZM10.98,3.82l-.12.12.12.12.12-.12-.12-.12ZM7.68,5.45l.27.59.57-.59.58-.88-.46.1-.8.66-.15.12ZM15.87,6.76l-.12.12.12.12.12-.12-.12-.12ZM16.12,7.25l-.12.12.12.12.12-.12-.12-.12ZM7.07,8.47l-.12.12.12.12.12-.12-.12-.12ZM9.42,10.23l-.52.61c.06,0,.58-.04.39-.03l.84-1.13.47-.61-.11-.11-.99.98-.09.29ZM9.21,9.88l.13-.14-.13.14ZM5.7,12.51l.35-1.02-.15-.71c-.02-.37-.08-.37-.13.01l-.67,1.48-.37.91.96-.68ZM8.05,11.16l-.12.12.12.12.12-.12-.12-.12ZM8.42,11.52l-1.47,1.47.24.24,1.47-1.47-.24-.24ZM15.38,12.38l-.12.12.12.12.12-.12-.12-.12ZM6.58,12.62l-.12.12.12.12.12-.12-.12-.12ZM12.7,12.87l-.12.12.12.12.12-.12-.12-.12ZM14.76,15.1c.69-.45.9-1.19.63-2.01l-.63,2.01ZM12.45,13.36l-.12.12.12.12h.24l.12-.12-.12-.12h-.24ZM6.91,13.75c-.57-.05-.53-.05.11.01.26.03.16.02-.11-.01ZM7.32,16.29l-.12.12.12.12.12-.12-.12-.12ZM15.4,16.43c-.83-.44-.72.33-.3.39.21-.27.42-.55.3-.39ZM6.58,16.78l-.12.12.12.12h.24l.12-.12-.12-.12h-.24ZM7.56,17.02l-.12.12.12.12.12-.12-.12-.12ZM11.72,17.02l-.12.12.12.12.12-.12-.12-.12ZM11.75,18.3c-.16-.43-.37-.54-.66-.5l.66.5ZM14.97,18.26l-.61.19-.03.54.64-.73ZM17.1,18.73l-.12.12v.24l.12.12.12-.12v-.24l-.12-.12Z"/><polygon points="7.98 19.42 7.4 19.84 7.71 19.15 7.98 19.42"/><path d="M7.4,19.84l.53.05.05-.46h.68s1.68.19,1.68.19c.17.4.32.74.25.58l.57.31-.73.24.06.32.4.14-.3.44-.85.42-.37.41c.84,0,1.39-.38,1.77-1l.65-1.27-.06.84c-.68,1.59-2.13,2.25-3.88,1.68l-1.3-1.68.1-2.04.52-.21-.13.7.37.36ZM7.22,20.6l-.4.24.54.9.4-.24-.54-.9Z"/><path d="M19.87,14.74c.15.33-.63.35-.51.04l.99-2.57-.41-4.02-.72-.95.19-.74.9,1.34.48,1.29c.23,1.43.15,2.97-.26,4.39l-.65,1.22Z"/><polygon points="1.09 12.21 .05 13.15 1.44 10.97 2.48 8.41 3.3 6.5 3.54 5.66 4.31 4.99 3.66 6.63 1.82 11.64 1.61 12.04 1.09 12.21"/><path d="M5.89,19.9c.41.21.26.32-.19.22l-1.78-.76.77.04,1.2.5Z"/></svg>
