<svg xmlns="http://www.w3.org/2000/svg" id="a" viewBox="0 0 24 24"><path d="M20.11,10.64l.98-1.42-1-1.5.52-1.69-1.04-.81-.53-.35v-1.33c-.07-.09-.33-.24-.79-.43l-.46-.49-.53-.64-1.01.07-1.15-1.47-1.63.54-1.3-1.11-1.57,1.03-1.52-.47-1.03,1.43-1.51.16c-.18.61-.52.91-1.21,1.02l-.14,1.49-.68.56-.91.8.52,1.38-.45.91-.74.9.7,1.05.36.64-.35,1.78,1.3.9s.23.18.31.24l.24,1.61.71.21c.48.46.93.67,1.66.75l.88,1.38,1.84-.48,1.41,1.07,1.52-1.06,1.27.36.4.1.85-1.29,1.44-.45.54-.47c.26-.12.6-.5.66-.73l.08-.93,1.32-1.04.29-.44-.23-.52-.03-1.22ZM14.02,1.41l.1.1-.1.18-.1-.18.1-.1ZM4.06,9.27l.1-.1.2.1-.2.1-.1-.1ZM16.33,15.88l-.1-.1.1-.1.1.1-.1.1ZM19.26,11.15l-.38.9c-.5,1.02-1.18,1.97-1.96,2.82l-.69.42-.61.4c-1.44,1-3.1,1.2-4.89.98-.26.19-.36.13-.39-.03-1.29-.45-2.16-.88-3.32-1.74l-.41.38.13-.58-.35-.5-.93-1.23-.87-2.7-.25.13.3-1.07v-.8s.32-1.56.32-1.56l1.39-2.64.89-.82c1-.84,2.2-1.46,3.54-1.67l1.18-.32.62.21,1.36.15,1.57.66.38.23.49-.42-.16.52,2.13,2.13.92,2.46.26.25-.12.39-.08,2.72c.24.03.4.52-.06.34Z"/><path d="M17.24,19.04l.15-.2-.38-1.35-.89.37-.86.63-.76.1-.42-.19-.49-.05-.17.37-.38.2.14.6-.18.1-.49-.47.92,2.39,1,2.44,1.42-2.52,2.73.9-.88-2.81-.49-.54ZM13.39,20.29l-.1-.1.1-.1.1.1-.1.1ZM13.8,21.73c-.1,0-.18-.08-.18-.18s.08-.18.18-.18.18.08.18.18-.08.18-.18.18ZM15.07,21.34l-.1-.1.1-.1.1.1-.1.1ZM15.39,20.94c.12-.35.28-.51.86-.29l-.86.29ZM18.16,21.75l-.48-.08.11-.37.37.45Z"/><path d="M10.74,18.42l-.28.34c-.35-.34-.88-.48-1.64-.3-.28,0-.71-.31-.84-.55l-.31-.28-.44.66.13-1.06-.21.04-.81,2.39-.52,1.31-.49,1.29.82-.2,2.04-.63,1.13,2.14c-.07.3.54.34.4-.03l1.55-3.84.15-.79-.58.76-.1-1.24ZM6.37,20.5s0,0,0,0c-.22.18-.24.21,0,0ZM8.36,21.12l-.33-.32.15-.57h.48s-.29.89-.29.89ZM9.41,23.01l-.1-.1.1-.1.1.1-.1.1ZM9.98,21.27s0,0,0,0h0ZM10.12,21.05s0,0,0,0c.4,0,.27,0,0,0Z"/><path d="M18.14,9.56c.1-1.47-.31-2.69-1.05-3.99l-1.31-1.37-.75.85.06-.51.33-.33-.22-.33c-2.1-1.21-4.56-1.15-6.55.2l.17.45-.23.18-.36-.38-.94.98-.86,1.44-.58,2.19.14.81.66-.13-.68.45.4,1.63c.59,1.26,1.51,2.2,2.66,3.02.87.38,1.8.63,2.76.7l.5.06c.84-.13,1.9-.46,2.67-.81l-.1-.71.4.46c1.45-.93,2.54-2.59,2.71-4.34l-.64-.16.79-.35ZM11.09,5.81l.1.1-.1.1-.1-.1.1-.1ZM6.8,6.95c-.06.05,0,0,.32-.26.09-.07-.13.1-.32.26ZM7.31,12.32l-.1-.1.1-.1.1.1-.1.1ZM13.93,10.07l.4,1.38.44,1.79-1.07-.71-1.55-1.12-.54.3-2.45,1.76.43-1.84.47-1.14.02-.55-1.29-.93-.47-.31-.77-.8,1.31-.03,1.77-.09.4-.43.63-2.01.41-.5,1.04,2.85,2.17.09,1.21.14-2.59,2.14ZM16.41,12.96s.05-.05.07-.07c-.23.23-.28.28-.07.07ZM16.83,12.33s.05-.05.07-.08c-.23.24-.28.29-.07.08ZM17.04,7.7c0-.13.1-.23.23-.23s.23.1.23.23-.1.23-.23.23-.23-.1-.23-.23Z"/><path d="M5.63,7.46q0-.19,0,0h0Z"/><path d="M5.63,7.5h0c0,.19,0,.3,0,.35,0-.05,0-.16,0-.35Z"/><path d="M5.63,7.46s0,.03,0,.05h0s0-.03,0-.05Z"/><polygon points="15.49 3.3 15.6 3.19 15.49 3.09 15.28 3.09 15.18 3.19 15.28 3.3 15.49 3.3"/><polygon points="5.95 6.76 5.84 6.65 5.74 6.76 5.74 6.97 5.84 7.07 5.95 6.97 5.95 6.76"/><polygon points="5.32 8.23 5.32 8.44 5.42 8.54 5.53 8.44 5.53 8.23 5.42 8.12 5.32 8.23"/><polygon points="18.19 12.31 18.53 11.66 18.1 12 18.19 12.31"/><rect x="6.82" y="4.8" width=".15" height=".15" transform="translate(-1.43 6.3) rotate(-45)"/><rect x="18.14" y="6.26" width=".15" height=".15" transform="translate(.85 14.74) rotate(-45)"/><rect x="5.35" y="8.78" width=".15" height=".15" transform="translate(-4.67 6.43) rotate(-45)"/></svg>
