<svg xmlns="http://www.w3.org/2000/svg" id="a" viewBox="0 0 24 24"><path d="M19,3.69l-1.23.99-2.24,1.88c-.35.18-.65.55-.66,1.06l-.65,1.01-.44.21c-.65-1.07-.54-2.02.21-2.87.22.1.31.07.06-.2l4.02-3.55,1.16-.55c1.29-.6,2.68-.28,3.66.72l.6.68.18.38-.15.39.39.52c.02,1.48-.46,2.7-1.56,3.63l-.27.19-.42-.12-.43-.31-.09-.49.3-.39c1.04-.66,1.3-1.93.62-2.89-.65-.95-2.02-1.12-2.97-.39l-.12.09ZM18.88,3.39l.34-1.08-.41.14-.27.79.27.34.07-.18ZM22.5,2.68v-.22s0,.22,0,.22ZM22.67,2.84l.12-.11-.12.11Z"/><path d="M4.73,20.65l.69.28.45-.21.1.59-.24.46c-1.11.83-2.38,1.11-3.63.6-.94-.42-1.62-1.19-1.94-2.17-.31-1.59.27-3.14,1.53-4.16l.64-.61.46.2-.32.48.18.19.56.34-.93.85c-.89.91-.92,2.26-.03,3.2.76.49,1.62.51,2.47-.05ZM.98,17.36l.11.11.54-.54-.11-.11-.54.54ZM2.19,21.81l.4.19.12-.36-.46-.12-.4-.12-.25.32.59.09ZM4.95,21.54l-.11.11.11.11.11-.11-.11-.11ZM4.3,21.76l-.11.11.11.11.11-.11-.11-.11Z"/><path d="M12.96,11.86l-.34-.59c-.25,0-.27-.49.01-.47l4.1-3.39c.43.15.74.55.92,1.02l-1.33,1.23-2.04,1.82-1.01.84-.31-.46ZM16.95,8.47l-.11.11.11.11.11-.11-.11-.11ZM15.02,9.97l-.11.11v.21l.11.11.11-.11v-.21l-.11-.11Z"/><path d="M5.61,20.53l-.25-.37.33-.34,2.16-1.91,1.48-1.13c.21.04.46-.18.41-.32l.46-.57-.26,2.14-1.99,1.9-1.41,1.18v-1.17s-.94.58-.94.58ZM8.38,18.11l-.11.11.11.11.11-.11-.11-.11Z"/><path d="M5.25,14.86l-1.64,1.41-.43-1.04c.08.06-.07-.05-.31-.24l1.32-1.17c.85-.76,1.83-1.12,3.01-1.15l.91.57-.83.92-.96.02-1.08.68ZM5.59,13.4l-.11.11.11.11.11-.11-.11-.11ZM3.88,14.68l-.11.11v.21l.11.11.11-.11v-.21l-.11-.11Z"/><path d="M11.27,14.09l-2.82,2.07-1.44.73-.4-1.18,1.62-1.31,2.1-1.75-.13,1.2.54-.3.39.27.45-.19-.31.45ZM10.04,14.58l-.4-.12-.09.48.49-.36ZM8.32,15.83l-.49-.13-.44.14.11.35.41-.16.4-.21Z"/><path d="M19.4,10.31l-.15.36c-.85.34-1.37.52-2.41.46l.55-.47c.13-.16.02-.27-.48-.17l.04-.32,1.18-.64,2.67-2.13-.08,1.16c-.25.34-.3.41-.05.07l.82.11-1.91,1.48-.17.08ZM19.21,9.96c.17.26.19.24.12-.09l-.12.09Z"/><polygon points="9.81 8.19 9.69 9.05 8.7 8.07 8.51 6.82 8.66 6.97 9.81 8.19"/><path d="M16.54,16.64l-1.23-.89-.63-.86c.73-.05,1.18.31,1.47.88l.38.87Z"/><polygon points="7.28 9.81 7.78 10.18 7.73 10.41 5.44 9.66 6.14 9.48 7.28 9.81"/><polygon points="13.29 18.56 12.85 17.34 12.8 16.38 13.15 16.89 13.3 17.88 13.29 18.56"/><path d="M18.67,14.05c.28.07.35.15-.02.15l-1-.18-.61-.36h.92s.7.39.7.39Z"/></svg>
