<svg xmlns="http://www.w3.org/2000/svg" id="a" viewBox="0 0 24 24"><rect x="6.2" y="18.15" width=".38" height=".94"/><rect x="20.92" y="14.56" width=".45" height=".64" transform="translate(-4.7 14.06) rotate(-33.32)"/><rect x="23.34" y="11.97" width=".13" height=".13" transform="translate(-1.66 20.07) rotate(-45)"/><path d="M1.17,12.64l.65.34.63.36.74.07c-1.01-.51-1.66-.94-2.42-1.64l.2.71-.41-.09-.37-.63-.15-1.18.18-.63c.3-.52.63-1,1.02-1.45l2.17-1.19h.16s.54-.31.54-.31l.94-.38,1.71-.54.43-.11,1.81-.52,4.05-.53.05.31-.5.43.38.37-.43.16-.15.52-4.33.7-1.28.45-1.38.44-.99.53-1.35.96-.35.08-.13,1.15.73.83c.86.32,1.75.6,2.66.71l.97.17,3.22.1-.41.57.62.14-.9.59-.27.16.36.29-.04.37-1.71-.09-.21,1.02-.18-.99-.86-.08-.04,1.26.06,1.06-.37.46v-2.5s-.5-.47-.5-.47l-.38.11-.2.26-.15-.45h-.4s.02.45.02.45l-.24.79-.16-1.45-1.36-.32c-.69-.34-1.33-.75-1.67-1.37ZM3.66,7.44l-.06.1-.54.33-1.19.7-1.32,1.31.06,1.56.89-2.14,1.93-1.48.36-.1-.13-.28ZM3.66,13.45l-.09.09v.19l.09.09.09-.09v-.19l-.09-.09Z"/><path d="M1.17,12.64l-.2-.16.2.16Z"/><path d="M17.26,13.94l-1.46.37-2.81.4-2.16.17.51-.64c.11.26-.05-.12-.06-.14h-.53s.84-.81.84-.81l.23-.5,2.64-.4,2.12-.41.84-.54.15.18.43-.05,2.72-1.25.92-1.32-1.13-1.19-.61-.25c.21-.35.25-.41.05-.08l-.62-.17c-1.85-.37-3.62-.55-5.43-.52l.57-.62-.61-.12.75-.57.31-.04v-.52s3.18.32,3.18.32l.63.21.78.23.98.18.95.4,1.05.5c.43.37.94.93,1.21,1.34l.26.92c-.11.64-.41,1.41-.79,2.02l-1.91,1.47-.12,1.37-.2-1.29-.24.11-.5.31-.67.15-.09.95-.21.53-.16-1.25-1.48.44.07.83-.15.26-.25-.98ZM23.3,9.48l-.16-1.64-1.7-1.18-.59-.25c-.22-.12-.42-.11-.17.15l1.15.66.69.68.78,1.59ZM22.41,11.3l1.06-1.18-.43-.43c-.19.72-.64,1.33-1.39,1.74l-.23.5,1-.63ZM18.25,12.11l.64-.25,1.11-.61-.96.16-.92.46-.69.34.81-.12ZM16.73,12.4l-.57-.02.07.3.51-.29ZM14.94,12.51l-.09.09v.19l.09.09.09-.09v-.19l-.09-.09ZM13.17,12.99l-.97-.14c.09.28.15.5.1.31l.87-.17Z"/><rect x="19.06" y="17.26" width=".42" height="1.15" transform="translate(-.83 .94) rotate(-2.74)"/><rect x="19.17" y="14.96" width=".19" height="1.79"/><polygon points="17.57 15.33 17.67 15.43 17.67 15.61 17.57 15.71 17.48 15.61 17.48 15.43 17.57 15.33"/><rect x="4.34" y="16.11" width=".13" height=".13" transform="translate(-10.15 7.86) rotate(-45)"/><rect x="17.51" y="11.03" width=".13" height=".13" transform="translate(-2.7 15.68) rotate(-45)"/><rect x=".77" y="8.4" width=".13" height=".13" transform="translate(-5.74 3.07) rotate(-45)"/></svg>
