<svg xmlns="http://www.w3.org/2000/svg" id="a" viewBox="0 0 24 24"><path d="M11.82,9.59l-.83-.19-1.31-.49-.62-.35-.7-.35-.38-.32.87.18.5.42.89-.09c.17-.5-.02.05-.1.28l1.33.65.35.26Z"/><path d="M11.82,9.59l.47.1.53.18.05-1.11v-4.63s-.53-.33-.53-.33l-1.5-.68-.06,1.98-1-.59v-2.05s1.12.05,1.12.05l.54-.1-.47.4,1.54.74c.33.17.96.15,1.4.03l.65-.3.52-.15.75-.26,1.21-.33-1.28-.47.54-.45-.81-.03-1.17.47.15.14.35.09.1.09.44.24-.6-.03-.11-.08-.32-.15-.11-.12-1.25-.21-.25-.29,1.54-.4-1.66-.81-1.01.19s0,.04-.05.43l-.8-.21-1.62.48-.84.21.34.27.14.09.35.1.1.08.48.27-.66-.05-.1-.1-.31-.15-.09-.1-.76-.21v1.47s.02,1.26.02,1.26l-.15,2.61.37.76-.59-.11-.1-.83-.16.06-.65.59.24-.6-.14-.23.06-.39-1.89.63-1.48.55.47.3,1.66.03.03.15-.38.28-1.08-.1-.66-.3-.44-.13-.12.36-.07,1.48.07.93.05.16h.58s-.3.51-.3.51l-1.14.38,1.31.88-.23.13-1.1-.37-.89-.27-.04,1.25v5.98s.57-.38.57-.38l.11.23-.27.26,1.09.3.86.36-1.16-.04-.79-.29-.79-.28.15-1.55v-4.57s-.15-1.69-.15-1.69l1.05-.21,1.04-.51-.13-.14-.08-.21-.12-3.07.69-.17,1.53-.54.84-.23,1.82-.64.1-.86.03-2.58-.21-.7.76-.37,2.61-.67.55-.2L12.5.02l.75.03,1.38.57-.48.2.34.38.55-.15c-.54-.15-.48-.27-.13-.34l.67.26,2.2.86c-.23.42-.3.56-.06.1l.99.16-.18,2.57-.16,1.1.1,1.14.73.22,2.3.74-.04,1.82-.28.85-.03-2.22-.85.46-.86.44-.62.34-.21-.25,1.21-.56.87-.39-.3-.32-.96.62-.72-.7-.6.5-1.14.69-.36-.09-1.59.63-1.12.33-.68.36,1.32.46c.48.14,1.22-.02,1.7-.35l1.97-.92c-.24.5-.59.68-.99.78l-1.8.89.02,3.6-.2.13v-3.52s-.6-.32-.6-.32l-1.94-.5-1.22-.26-.83-.05-.52-.42.84.11.97.1.12-.15-.21-.34ZM15.66,8.99c-.13-.44.03-.42.18-.19l.56-.1,1.26-.49.49-.1v-1.46s0-1.64,0-1.64v-.29s.11-2.4.11-2.4l-.42.46-.39-.19-.53.23-2.42.79-.78.25-.58.29-.02,1.04v3.59s.09,1.16.09,1.16l2.47-.94ZM12.28,10.09l-.27.12.27-.12Z"/><path d="M8,19.34l-1.27,1,1.02-1.86.8-1.53-2.08-.16,1.33-1.48.23-.6.76-1.13.14.74.82-.66.59-.27,1.71-1.02.74-.22-1.4,1.94.22.3-.28.2-1.19,1.33.64.04,1.11.1-1.17,1.11-.99.77-1.55,1.51c-.33-.26-.42-.33-.15-.12ZM8.74,17.68l-.11.11.11.11.11-.11-.11-.11Z"/><polygon points="21.24 14.14 20.89 14.55 19.88 14.85 19.82 15.13 19.28 15.21 18.99 14.46 19.55 14.81 20.6 13.92 21.24 14.14"/><path d="M21.24,14.14l.35-.67-.92.1-1.68.9-.58.25-1.21.56-.39.43,1.2.02.6-.37.32-.2.36.07-.72.51-.65.26-.3.36-.17,2.86-.2-2.59v-.44s-.54-.2-.54-.2l-.38-.16-.4.29-.5.19-.05,1.4.06,1.7-.44-.1v-1.64s-.09-.92-.09-.92l.16-1.27.19-.02.23.51,1.28-.78.55-.24,3.59-1.8.13-2,.25.02.02,1.26,2.06.49-.1,1.61-.03,5.83-1.74.87-.66.43-.52.33-1.79.95-1.08.69-.65-.06-1.27-.46.91-.15.59.26.21-.61.09-1.37-.22-.83.37-.85.05,3.52.8-.32.68-.45.92-.55.51-.33,1.8-.95.55-.27.29-.82c-.29-.71-.36-1.35-.09-2l.05-2.88-.11-1.18-1.71.82Z"/><polygon points="3.83 12.78 4.41 13.36 3.82 13.48 3.94 14.5 4.01 15.83 3.76 16.27 3.78 20.79 5.51 21.39 4.54 21.42 3.68 21.15 3.31 20.96 3.54 20.58 3.57 14.5 3.59 11.74 3.52 10.7 3.57 8.55 5.16 8.58 5.96 8.94 7.07 9.04 7.8 9.26 8.66 9.46 9.25 9.64 9.71 9.7 9.6 10.07 9.2 9.89 8.28 9.75 7.56 9.63 6.44 9.27 5.53 9.11 4.48 8.92 4.06 8.75 3.97 9.19 3.96 11.74 3.83 12.78"/><path d="M9.61,22.56c.42-.23.94-.21,1.35-.12l.9.32-.48-.58.63.04.29.62,1.83.46.85.1.02-3.13c-.07-.24.47-.24.44,0l-.06,1.87-.1,1.85-1.48-.47-.7-.09-3.49-.86Z"/><polygon points="9.48 22.24 9.16 22.57 8.66 22.38 7.8 22.18 6.93 22 5.81 21.56 7.05 21.51 7.79 21.78 8.66 21.96 9.48 22.24"/><path d="M19.71,16.85c-.04-.61-.02-.92.25-1.36l.19,1.17.57-.29v-1.35s.13-.21.13-.21l.15,1.1.08.47-1.05.7c-.08-.06-.36-.27-.33-.24Z"/><path d="M15.42,10.4l-.86-.05.86.05Z"/><path d="M1.42,12.69c.36.14.07.03,0,0,.05-.22.16-.69,0,0Z"/><polygon points="22.52 13.86 22.63 13.97 22.63 14.18 22.52 14.29 22.42 14.18 22.42 13.97 22.52 13.86"/><polygon points="4.08 20.43 4.29 20.43 4.4 20.54 4.29 20.65 4.08 20.65 3.97 20.54 4.08 20.43"/><polygon points="14.25 11.3 14.47 11.32 14.57 11.42 14.47 11.53 14.25 11.53 14.15 11.42 14.25 11.3"/><rect x="4.22" y="9.23" width=".15" height=".15" transform="translate(-5.32 5.76) rotate(-45)"/><polygon points="2.81 11.47 2.91 11.64 2.81 11.74 2.7 11.64 2.81 11.47"/><rect x="16.72" y="16.65" width=".15" height=".15" transform="translate(-6.91 16.78) rotate(-45)"/><polygon points="1.96 18.74 2.06 18.84 1.96 18.95 1.82 18.84 1.96 18.74"/><rect x="16.72" y="22.58" width=".15" height=".15" transform="translate(-11.1 18.51) rotate(-45)"/><rect x="14.39" y="22.8" width=".15" height=".15" transform="translate(-11.94 16.93) rotate(-45)"/><path d="M12.58,4.46l-.38-.15c.09-.14.16-.18.38.15Z"/><polygon points="12.98 3.26 13.19 3.26 13.3 3.37 13.19 3.47 12.98 3.47 12.88 3.37 12.98 3.26"/><rect x="11.85" y="1.17" width=".15" height=".15" transform="translate(2.61 8.8) rotate(-45)"/><rect x="8.24" y="7.32" width=".15" height=".15" transform="translate(-2.79 8.05) rotate(-45)"/></svg>
