<svg xmlns="http://www.w3.org/2000/svg" id="a" viewBox="0 0 24 24"><path d="M16.82,24l-2.47-1.67.46-.24-.33-.29-.34.39-1.03-.7-1.78.25.78-.84-1.21-1-1.26.8.7.24-.9.48-1.21.37-1.64,1.11-1.89,1.03.72-2.68c.24-.88,0-1.88-.82-2.4l-.36-1.59h.24c.49.64.52.71,1.23,1.18.12-1.1.1-1.53,0-2.43l-1.42-1.83-2.21-1.98h2.93c.64-.9.84-1.85.6-2.84-.32-1.12.36-2.07,1.33-2.42l.78-.91-.39,1.25c-.75.8-.74,1.94,0,2.69l.33,1.29c.3-.5.48-1.03.59-1.7l.29-.81.22.81c.87-.67,1.39-1.81.77-3-.02-.82.09-1.66.33-2.37l1.33-.68c-.58,1-.71,1.8-.45,2.82l.08.78,1.07-1.45.07-.45.55.35c.33-.47.68-1.1.86-1.63l.23-1.83,1.31-1.03c.66-.1,1.03-.32,1.53-.94.1-.2.18-.23.4.23l-1.32,1.16-.66,1.2.02,1.33c.28.79.09,1.65-.52,2.27-.4.7-.6,1.42-.63,2.15l.63.72.7-1.75.37-.41.08,1.23,1.6-1.68-.05-1.65,1.24-1.11.89-.5-.3.43-.71.96-.22,1.64c.23.73.05,1.45-.28,2.1l-1.31.86c-.54.8-.64,2.01-.35,2.73l1.18-.73s.18-.27.32-.49l.42-.43-.13,1.24,1.73-.56.47-1.43,1.95-1.3-.93,1.21-.32,1.14c.21,1.29-.46,2.31-1.45,3.05-1.12.64-1.87,1.61-2.08,2.93l-.02.59,1.3-.52c.65,0,1.17-.42,1.32-1.12.34-.3.89-.7,1.17-.85l-.84,1.38c.19.96-.56,1.51-1.28,1.72l-1.11.5-.94.95-.08,1.79.89-.74.28.28-1.14,1.01s-.17.38-.2.43l.32,1.9ZM14.03,5.13l.26.07.16-.48.22-.98-.5.41-.14.98ZM12.76,20.21l.22.87.43-.49.51.45,1.8,1.26-.56-2.47-.85-3.46.78-.56,3.81-3.04-5.65-.02-.39-1.88-.81-4.16-.45.47-1.99,5.16-.36.52-.69-.35-.35.22-3.73.05-.5.14,2.37,2.13,1.62,1.22-1.22,3.12-1,2.85,1.17-.61,1.49-1.03,2.54-1.94,1.82,1.54ZM12.56,7.6c.27-.25.41-.39.33-.31-.35.32-.43.41-.33.31ZM17.48,7.26l-.11.11v.23l.11.11.11-.11v-.23l-.11-.11ZM12.89,8.41l-.11.11.11.11.11-.11-.11-.11ZM10.36,8.64l-.11.11.11.11.11-.11-.11-.11ZM6.22,9.56l-.11.11.11.11.11-.11-.11-.11ZM13.35,10.02l-.11.11.11.11.11-.11-.11-.11ZM13.87,11.93l.57-1.85-.6.02-.58,1.05.6.77ZM9.44,10.25l-.11.11v.23l.11.11.11-.11v-.23l-.11-.11ZM8.68,12.15l.2-1.25-.84.75.64.5ZM6.82,11.16l-.3.86.49.17.3-.86-.49-.17ZM20.01,11.86l-.11.11v.23l.11.11.11-.11v-.23l-.11-.11ZM18.86,13.46l-.11.11.11.11.11-.11-.11-.11ZM15.44,18.7l.6-2.19.32-.87-1.12.97-.03,1.45-.08.47.3.16ZM7.07,17.02l-.13-.56-.75-.43.08,1.94.8-.95ZM10.82,19.44l-.11.11.11.11h.23l.11-.11-.11-.11h-.23ZM15.87,19.44l-.11.11.11.11h.23l.11-.11-.11-.11h-.23Z"/></svg>
