<svg xmlns="http://www.w3.org/2000/svg" id="a" viewBox="0 0 24 24"><polygon points="19.56 17.79 18.82 18.38 19.02 17.71 19.56 17.79"/><path d="M19.56,17.79l.57-.79.24-.42-.12-.13-1.23,1.25-1.32.62.33.61-.44.25c-2.59,1.32-5.28,1.79-8.23,1.43l-.18-.68-.25-.12-.15.44-.91.11c-1.39,1.35-2.76,2.05-4.39,2.83l-1.9.74.75-1.64,1.43-3.42.68-.74c.24-.16-.03,0-.56.32-.85-.75-1.83-1.71-2.55-2.71l-1.03-2.36-.3-1.84c.07-2.2.83-4.23,2.09-6.05l.25-.24.23.52,1.6-1.72-1.46.79c1.31-1.63,2.85-2.8,4.66-3.63.17.65.72.76.53-.04l.88-.6c2.06-.45,3.99-.68,6.09-.37l1.36.21,2.76,1.1-.2,1.09.82-.76c1.27.96,2.37,2.01,3.19,3.25l.89,1.84.32,4.36c-.37,1.52-.9,2.79-1.71,4.16l-2.73,2.32ZM18.29,3.85l.44-1.02-1.13.96-.06.54.6-.25.15-.24ZM8.88,9.1l-.29.96c.45-.19-.01,0-.25.1l-1.28,2.5,2.56-.1h1.37s-1.94,4.7-1.94,4.7l-.21,1.39,2.78-3.14,1.32-1.77,3.5-4.29-4.01-.02,1.13-2.12c.27-.19.6-.42.5-.35l.3-1.64.43-.22.89-1.73h-1.62s-.66.12-.66.12l-1.33-.07-.47-.1-.25.41-1.12,2.55-.28.55.23.54-.5.19-.5.87-.21.4-.1.25ZM18.33,4.31l.15-.14-.15.14ZM16.31,7l-.13.13.13.13.13-.13-.13-.13ZM21.43,8.71l.13.13.66-.66-.13-.13-.66.66ZM8.64,8.79c-.03.08.06-.12.12-.26l-.12.26ZM5.61,10.93l.6-.1-.14-.47-.46.56ZM16.83,11.2l-.13.13.13.13.13-.13-.13-.13ZM22.08,12.25l-.13.13v.26l.13.13.13-.13v-.26l-.13-.13ZM1.83,14.14c-.12-.25-.65-.28-.67-.05l.15.86.52-.81ZM13.16,14.09l-.22.13.22.13.13-.13-.13-.13ZM20.64,15.93h0s0,0,0,0ZM17.36,18.55l-.13.13.13.13.13-.13-.13-.13ZM13.42,19.61l-.13.13.13.13.13-.13-.13-.13Z"/></svg>
