<svg xmlns="http://www.w3.org/2000/svg" id="a" viewBox="0 0 24 24"><polygon points=".9 20.06 1.04 21.16 .73 21.87 .26 22.39 0 21.85 .49 19.8 .83 17.99 1.1 16.86 1.37 15.09 2 14.43 1.47 14.43 2 12.2 2.2 11 2.56 9.2 2.83 7.99 2.92 7.19 3.27 5.09 3.72 3.42 4.03 3.26 4.08 3.64 4.04 4.74 4.15 5.33 3.66 6.1 3.55 7.53 3.21 8.59 3.12 9.7 2.51 12.69 2.3 14.3 2.03 15 1.84 15.59 1.73 16.52 1.55 17.69 1.31 18.72 1.23 19.47 .9 20.06"/><path d="M12.19,12.3l-.11-.56,1.28,1.09.21-.83.26-1.55,2.32.99-.35,2.22-.51-.1-1.3-.53-.57-.27-.45,2.38-1.15-1.02.15-.34-.2.14-.33.08-.32-.56c.14-.09-.02.01-.16.1l-.28,1.3-.34.75-.11-.5c.25-.28.11-.12-.12.13l-1.1-.84-.23-.17-.09.08-.34-.4.19-.77.24-1.52.42.18,1.2.99.58.48.44-2.3.36.32-.09.81.41.28.09-.1ZM12.21,12.59l.16-.18-.16.18ZM9.9,12.8l-.1.1.1.1.1-.1-.1-.1ZM12.88,13.13l-.66-.08c.16.38.5.44.66.08ZM11.84,13.62l-.37-.23.21.41.16-.18Z"/><polygon points="9.98 4.28 9.62 6.54 7.16 5.88 7.41 3.99 7.62 3.5 8.28 3.49 9.76 3.79 9.98 4.28"/><path d="M6.49,8.35l-2.27.57-.27-.2.61-.31.03-.67-.41.64.06-.97.12-.77,1.28-.6,1.43-.08-.32,1.8-.11.53.18.11,2.4.64-.24,1.37-.27,1.02-2.51-.6-.28,1.72-.18.98-2.65.5.08-.76h.41c-.09.54-.06.38-.03.18l.56-.93-.85.42v-.64s.47-.91.47-.91l2.5-.48.25-1.29.16-1.1-.14-.18ZM4.71,6.81l-.13.1.13.1.1-.1-.1-.1Z"/><path d="M18.7,11.52l-1.92-.1-.43-.11-.05-.5.28-1.84,2.57.24-.58.56h.53s-.02.25-.02.25l-.29.57-.02.85.14.11,1.06-.12.29-.2.28.16.68.05-.06.94-.71.32c0-.13,0,.1,0,.15l.53.16-.29.7-2.3.15-.42,2.45h.15s.31,0,.31,0l2.03-.14-.27.85,1.09.05-.45.31-1.69.27-.64.22.57.22.53.46-.62.03-1.23-.08.07-.89.15-1.1-.11-.1-2.34-.18.14-1.16.19-1.28,2.57.15.31-2.21-.03-.21ZM17.09,9.41l-.1.1.1.1.1-.1-.1-.1ZM18.53,10.8v-.21s-.76.07-.76.07l.11.15h.65ZM19.04,13.2c0-.1-.08-.17-.17-.17s-.17.08-.17.17.08.17.17.17.17-.08.17-.17ZM17.86,15.6c0-.09-.07-.17-.17-.17s-.17.07-.17.17.07.17.17.17.17-.07.17-.17Z"/><path d="M14.99,18.59l-1-.18-.93-.38-.36-.66.22-1.07.16-.94,2.32.94-.26,1.01-.14,1.29ZM13.9,17.19l-.1.1v.2l.1.1.1-.1v-.2l-.1-.1Z"/><path d="M11.42,10.7l-2.09-1.7.35-2.27.98.45,1.19,1.17-.42,2.35ZM11.3,8.61l-.1.1v.2l.1.1.1-.1v-.2l-.1-.1ZM11.17,9.71c.23.03.54.08,0,0-.22.43-.12.23,0,0Z"/><path d="M12.17,7.09l.06-.81c.06-.28.4-.43.31.05l.48.85.42.1.71.62-.36,2.43-1.08-1.13-.86-.89.22-1.1.09-.12ZM12.2,7.33l.43.26-.1-.58-.23.19-.1.14ZM12.78,8.86l-.32-.67c.02.28.14.51.32.67Z"/><polygon points="23.07 10.94 22.94 11.32 22.41 11.46 21.42 11.49 21.43 10.98 21.34 10.48 21.74 10.38 24 10.55 23.07 10.94"/><path d="M4.46,1.83l.07.5c-.15.13-.4.34-.38.33.4.35.49.43.48.42l-.9-.1c-.24-.02-.53-.15.09-.27l-.38-.59.29-.51.87.04.24.21c-.08.03-.3.11-.19.08l-.19-.11Z"/><polygon points="22.63 13.9 20.78 14.41 20.78 13.73 22.63 13.9"/><polygon points="20.49 9.47 19.51 9.06 20.87 8.85 20.49 9.47"/><polygon points="16.4 18.75 15.29 18.8 15.18 18.63 16.29 18.58 16.4 18.75"/><polygon points="10.89 4.63 10.53 4.48 10.18 4.32 10.29 4.02 11.01 4.5 11.1 4.61 11.2 4.71 11.3 4.8 11.6 4.9 11.75 4.99 12.01 5.66 11.55 5.16 11.5 5.02 11.2 4.93 11.1 4.81 11 4.71 10.89 4.63"/><polygon points="6.26 3.72 5.38 3.77 6.29 3.46 7.11 3.41 7.22 3.54 6.26 3.72"/><polygon points="3.63 11 3.72 10.14 3.83 9.31 3.97 9.2 3.99 10.12 3.63 11"/><path d="M10.9,16.32c-.01.14,0,0,.01-.12l.2.18.52.63-.67-.28-.05-.42Z"/><path d="M4.87,5.01l.05-.81-.05.81Z"/><path d="M4.67,6.01l.05-.81-.05.81Z"/><path d="M7.46,13.73c.21.02.13.01-.09,0-.47-.04-.43-.04.09,0Z"/><path d="M6.66,13.53c.21.02.13.01-.09,0-.47-.04-.43-.04.09,0Z"/><circle cx="21.17" cy="9.11" r=".17"/><polygon points="15.89 8.81 16.09 8.81 16.19 8.91 16.09 9.01 15.89 9.01 15.79 8.91 15.89 8.81"/><polygon points="14.64 8.36 14.75 8.26 14.9 8.4 15.19 8.5 15.54 8.72 15.29 8.71 15.09 8.62 14.79 8.52 14.64 8.36"/><rect x="20.02" y="18.22" width=".14" height=".14" transform="translate(-7.05 19.56) rotate(-45)"/><polygon points="12.08 17.39 12.07 17.19 12.36 17.44 12.24 17.54 12.08 17.39"/><rect x="21.41" y="14.63" width=".14" height=".14" transform="translate(-4.1 19.5) rotate(-45)"/><rect x="7.83" y="13.83" width=".14" height=".14" transform="translate(-7.51 9.66) rotate(-45)"/><rect x="21.81" y="13.03" width=".14" height=".14" transform="translate(-2.85 19.31) rotate(-45)"/><path d="M22.24,9.72c-.24.26-.29.31-.09.1.17-.18.24-.26.09-.1Z"/><rect x="21.61" y="9.04" width=".14" height=".14" transform="translate(-.09 18) rotate(-45)"/></svg>
