<svg xmlns="http://www.w3.org/2000/svg" id="a" viewBox="0 0 24 24"><path d="M.26,8.58l1.67,1.8.76.66-.33.59,1.54,1.65,1.31,1.41.3-1.9.22-1.77-.64-.7.22-1.35c.3-.03.35-.13,0-.15l-.02-1.32c.05-.04.41-.15.32-.09l.59,1,.98,1.57c-.24.43-.37.71-.39.81l1.3,1.88,1.01,1.34.74-1.93.32-.99.52-2.09.58-1.75-.73-.69.72-1.88.34-.32-.15-.36.54-1.55.22.06.47,1.5c-.02.25.04.5.13.68l.77,1.76-.75.74c.08,0-.26.02-.34.03l.05-.89-.48-1.33-.4.79c.01.48.08.8.39,1.37l-.27.89-.13.56-.42,1.36.6-.49-.46,1.01-.36-.14c-.19.56-.21.67,0,1.12-.42,1.2-.9,2.29-1.52,3.54l-.17-.53-.53-.09.2.48.17.06-.15.23-.18-.13-1.16-1.57-.87-1.38-.57-.71-.03.98-.22,2.25-.13.51c-.15.29-.42.38-.32-.27l-.53.15.47.62-.19.17-1.97-2.1-1.28-1.42.39,1.77.61,2.2.53,2.12-.04.76,2.44-.74,1.01-.31.23-.77.26-.02-.22.88,2.2-.29,1.56-.12.34.13-.22.27-.05.11.55.15-.12.28-.29-.11-1.34.09-3.98.53-2.56.69.18.64-.69.08-.08-.92.21-.68-.47-1.37-.83-3.39.39-.12-.1-.27-.33.11-.13-.33-.83-3.2-.16-.38-.41-1.36-.09-.11.1-.17.16.14ZM12.06,4.47l-.09.09.09.09.09-.09-.09-.09ZM6.58,10.35l-.17-.46-.42-.58-.25.37.17.81.33.19.35-.34ZM1.33,11.44l.36-.47-.39-.31.03.79ZM9.99,12.73l-.09.09.09.09.09-.09-.09-.09Z"/><path d="M21.51,15.9l-.36-.41.52-1.65.35-1.64-.24.06-.8,1.05-2.19,2.13-.26.23-.31-.08.66-.62-.45-.18-.24.64-.37-1.61-.15-1.01-.16-1.25-1.79,2.31-.99,1.14-.26-.39-.34.4-.32-.14.47-.99s.19.05.45.11l.35-.43,1.23-1.58.69-.99.24-.25-.12-.47-.27-.29.22-.41.57-.77.55-.95.68-.82-.06,3.44-.44.42-.48.31.02.59.21.62v-.92s.26-.35.26-.35l.16,2.49c-.48.03-.36.17-.06.22l.29.76,1.5-1.51,1.5-1.72-.17-.49,2.42-2.57-.57,2.33-.21.53-.31.83c-.2-.03-.35,0-.02.2l-1.57,5.17-.41,1.6-.25-.42-.28-.15.13-.52.13-.65.35-1.14.52-.23ZM17.49,9.72l-.09.09.09.09h.19l.09-.09-.09-.09h-.19ZM17.86,10.38c.04-.19-.02.11-.08.4.24.15.71-.08.08-.4ZM22.81,11l-.34-.35-.38.8.48.17.25-.62ZM17.31,11.23l-.09.09.09.09.09-.09-.09-.09ZM22,13.85l-.12.09.02.19.09.09.09-.09v-.19l-.09-.09ZM21.04,17.51c.15-.14.06-.06-.11.11-.21.21-.14.14.11-.11Z"/><path d="M8.85,20.4l-3.44.65-1.61.49c-.29-.01-.33-.12.04-.24l-.22-.56,2.76-.88,2.68-.32,2.09-.08-.2.39-.03.41-2.07.14Z"/><path d="M20.37,20.43l-.26.44-1.27-.32-.06.13.66.29.52.09.29.33-2.79-.69-2.38-.39-2.55-.02.45-.83,2.95.26.74.06,2.82.62.28.19.3-.07c.04-.31.07-.62.04-.37l1.05-.41-.15.7-.31.57-.32-.57ZM17.3,20.35c-.17-.36-.41-.36-.42-.14l.42.14Z"/><path d="M20.82,19.1l-.24.77c-2.25-.71-4.38-1.14-6.74-1.25l-.41.03.14-.37.42-.56,2.79.33,1.18.28,2.86.79ZM19.87,19.27l-.77-.42-.89-.22-.48.02.77.33.62.19.75.1Z"/><polygon points="13.52 13.1 12.96 11.97 12.58 10.79 12.85 10.29 13.23 9.42 13.9 11.61 14.1 12.56 13.52 13.1"/><polygon points="13.36 17.3 12.8 16.8 12.72 16.39 12.89 16.06 13.42 15.47 13.55 15.15 13.85 15.25 13.73 15.58 13 16.26 13.36 17.3"/><polygon points="4.01 17.04 3.95 16.86 4.18 17.04 4.62 17.84 3.99 17.4 4.01 17.04"/><path d="M12.37,9.14s.08-.23.28-.52c.03.04-.03.16-.28.52Z"/><path d="M16.11,16.48l.36-.36c-.05.17-.19.3-.36.36Z"/><polygon points="11.4 15.97 11.02 16.3 11.56 15.34 12.05 14.78 12.14 14.88 11.76 15.33 11.4 15.97"/><polygon points="19.75 17.6 19.93 17.6 20.03 17.7 19.93 17.79 19.75 17.79 19.65 17.7 19.75 17.6"/><polygon points="7.18 16.29 7.27 16.38 7.27 16.57 7.18 16.66 7.09 16.57 7.09 16.38 7.18 16.29"/></svg>
