<svg xmlns="http://www.w3.org/2000/svg" id="a" viewBox="0 0 24 24"><path d="M4.96,2.92l.12.67.41-.58-.2-.38,1.24-.95.97-.45,1.38-.61,1.32-.4L12.98,0l.65.43-.54.75-.3.47.23.47.79,1.61-.91,1.11-.63,1.16-.97,1.24,1.36-1.05.61.66.57.87.08.57.46.15-.08.6.49,2.63.9.96c.15.44.33.67.66.98l-.36-1.09c.6-.77.98-1.59,1.19-2.5l.02-2.21c-.32-.76-.54-1.12-1.26-1.76-.76.56-.91.7-1.58,1.39-.38-.38-.95-1.36-1.11-1.97l1.27-1.53.2-.29-.23-.27-.96-1.7.96-1.45,3.43,1.55.24.28-.15.26.29.43-.21.58.11.73.77-1.47c1.39,1.32,2.2,2.46,3.04,4l.28.84c.38,1.48.6,2.77.79,4.4l-.61.14-.42.61.97.34c-.24,1.47-.53,2.7-.97,4.05l-.84,1.63-.51-1.04-.41.32.25,1.18-.07.62-2.13,2.03-.61-.75.47-1.69-.06-.5-.07-1.31c.81-.97,1.27-1.83,1.77-2.94l.38-.86.55.39.34-.31-.02-.64-.31-.3-1.45-1.03-.77,1.01.64.56-.99,2.03-.63.06-.02.78c-.15.08-.53.29-.43.24l-.76-.45.42.98-.68.45c-1.53,1.13-3.3,1.58-5.26,1.35l-.14-1.57-.39-1c.22-.55-.4-.34-.38-.05l.23.58.28.95-.55.89-2.27-1.07-1.82-1.86.51-.7-.91.23-.82-1.87.56-.22v-.97s-1.09-.19-1.09-.19l-1.42,1.26.42.65h.72s1.17,2.51,1.17,2.51l1.43,1.73.28.39,3.33,1.6-.05,1.12.56.84.1.92-.63.8-3.65-1.42.15-.87-.71.49-1.76-1.62.49-.41.17-.31-.23-.37-.51-.22-.1.62-.52-.08c-.79-1.26-1.32-2.34-1.83-3.72l.05-.7.45-.24-.33-.63-.62.21-.19-3.13.53-3.34.27-.44.62.12.42-.37-.08-.27-.85.12,1.05-2.15,2.12-2.14ZM7.15,1.96l-.11.11v.23l.11.11.11-.11v-.23l-.11-.11ZM17.88,4.9l-.05.93.05-.93ZM7.12,13.69l.4-.74.39-.91.84-.41c.61-1.37.81-2.68.82-4.2l-.49-2.07-1.21-.3-.73.72-.48,2.1c0,1.14.13,2.28.39,3.36l.57.58-.5,1.2v.67ZM21.29,6.75l-.11.11.11.11h.23l.11-.11-.11-.11h-.23ZM20.79,8.61l.44-.58-.47-.38.03.96ZM9.89,7.89l-.19.11.19.11.11-.11-.11-.11ZM20.98,9.03c0-.14-.11-.26-.26-.26s-.26.11-.26.26.11.26.26.26.26-.11.26-.26ZM10.73,13.62l.78-.51,1.61-3.24.34-.65-.54.46-.72,1.33-.6.96-.31.63-.57,1.02ZM10.57,14.05l-.11.11.11.11.11-.11-.11-.11ZM4.64,16.78l-.11.11.11.11.11-.11-.11-.11ZM3.73,17.7l-.11.11.11.11.11-.11-.11-.11ZM19.47,19.75l-.11.11v.23l.11.11.11-.11v-.23l-.11-.11Z"/><path d="M4.96,2.92l.33-.3-.33.3Z"/><path d="M11.02,23.24l.36-.42-.14-.41-.71-1.18.42-1.01,2.28-.14,2.71-.95,1.37-1.06c.4.93.42,1.69.22,2.6l-.12,1.05.11.41-.43.34c-1.72.93-3.5,1.51-5.47,1.5l-.58-.13v-.62Z"/></svg>
