<svg xmlns="http://www.w3.org/2000/svg" id="a" viewBox="0 0 24 24"><path d="M3.88,13.56l.27,1.94.97,1.34c.83-1.23.9-2.29.44-3.52l-.36-.86c-.35-1.24-.14-2.58.7-3.65.4-.68.55-1.29.69-2.21.21.49.31,1.17.17,1.79l.09,1.92.66.82.78.85.12.3.13-2.42c.35.48.42.44.61.21l-.21-2.08v-1.16c.04-1.16.27-2.41.9-3.21.36-.24.54-.51.68-.84l1.76-1.65.46-1.15c.3,1.08.17,1.97-.26,2.94l-.54,1.82c.15,1.11.3,1.93,1.03,2.81l.18,1.22.24-.62.84-.82.12-1.4c-.28-.89-.23-1.72.06-2.43.19.94.33,1.56.88,2.11.52.55.78,1.14,1.03,1.9l-.36,2.23-.77.76.12,2.41.35.46-.21.7.5-.44.08-.57.51.25.69-1.18-.09-1.67c.46-.76.96-1.37,1.71-1.94l-.28,1.25-.16,1.23.62,1.83c.1.9-.1,1.89-.54,2.83-.21.61-.18,1.18.11,1.79,1.24-.8,1.59-1.67,1.83-2.99l.32.64.06,1.01v1.16s-1.14,3.26-1.14,3.26l-1.58,1.73-2.08,1.36-.92.27.67-.75.86-1.02c.84-1.24,1.07-2.72.24-4.02-.22-1.13-.14-2.03.13-3.22l-1.24,1.23-.3,1.6-.66.94-1.66,1.24.81-2.06c.26-.53.3-1.36.08-1.93l-.61-2.41-.23.14.16.49-.32.11-.31-.33-1-1.95.64-2.42-.91.76c-.9,1.03-1.43,2.33-1.57,3.69l.69,1.76c0,.77-.26,1.74-.69,2.36l-.7.79-.21-1.13c.28-.87.04-1.65-.41-2.38l-1.41-1.41c.36,1.12.4,2.04,0,3.06l-.67,1.33.02,2.21c.62,1.37,1.4,2.33,2.51,3.39-1.68-.44-3.07-1.34-4.13-2.61l-.48-.77.11-.76-.34.45-.15-.68-.9-1.87.24-2.53.35-1.41-.25-.29.11-.12.27.16ZM5.87,18.68l-.12.12.12.12.12-.12-.12-.12ZM18.61,19.37l-.12.12.12.12h.23l.12-.12-.12-.12h-.23ZM16.88,22.63l1.17-1.01-.09-1.36-.44,1.23-.63,1.14ZM19.07,20.3l-.12.12.12.12.12-.12-.12-.12ZM6.06,21.68l.02.24-.02-.24ZM6.33,21.91l-.05.19.3.31.11-.39-.36-.11Z"/></svg>
