<svg xmlns="http://www.w3.org/2000/svg" id="a" viewBox="0 0 24 24"><path d="M7.76,22.15l-2.33-.87v-3.83s.26-.87.26-.87l-.26-.5.02-1.57.09-1.72.28.5.26.27.31-.4,1.41.42-.05,4.03v.36s.02,4.17.02,4.17ZM6.98,21.11l-.11.11.11.11h.23l.11-.11-.11-.11h-.23Z"/><path d="M16.76,17.24l.34-.36-.32-.28-.05-3.02.5.11c.05.53.04.47,0,.08l.43-.55.75-.19.46-.19.03.5-.04,4.68-.38.24.38.28-.08,2.72-2.04.85v-4.87ZM18.16,15.17l-.11.11.11.11.11-.11-.11-.11Z"/><path d="M17.28,2.13l-1.58.66-2.12,2.32c-.08-.05-.31-.2-.31-.2l.73-1.01-.79.52c.09.17-.08-.16-.17-.32.45-1.13.92-2.1,1.55-3.06.72-.72,1.43-1.05,2.39-.82l1.31,1.45.47,1.88c-.45,1.04-1.07,1.71-2.01,2.42-.99.21-1.99.33-3.05.31l3-1.07c.75-.61,1.1-1.13,1.24-2.12l-.65-.95ZM17.7,1.49l-.11.11.11.11.11-.11-.11-.11ZM18.48,3.51c-.43-.27-.53-.33-.49-.3.28.18.51.32.49.3Z"/><path d="M7.79,10.26l-.04,2.78-2.42-.77-.03-3.93.64-.41,2.59-.64,1.18-.46.44.44,1.1.17-2.86,1.12c-.31.06-.66.5-.74.79l.14.91ZM5.82,8.6c-.02-.25-.03-.34,0-.1.06.59.06.64,0,.1Z"/><path d="M6.84.45c.75-.67,1.74-.58,2.55.14.67,1.13,1.11,2.17,1.6,3.55.05.14-.19.27-.38.14l-.28.26.26.49-.44.02-2.3-2.5c-.61-.49-1.3-.53-1.96.05-.13.78-.01,1.35.36,2.02l2.33,1.13,1.53.23-.38.35-.82-.25-1-.12c-.93-.38-1.62-.82-2.42-1.52l-.2-2.09,1.26-1.83.27-.06ZM7.05.53l-.23.29.52.1-.29-.39ZM9.04.8l-.11.11.11.11.11-.11-.11-.11ZM6.6,1.42l-.75.39.46.17.29-.55ZM10.42,3.61l-.49-.56-.29.69.78-.13Z"/><path d="M3.31,11.58l-2.12-.69-.04,4.54.23.51.03,3.27.68.31.8.28,1.12.55.96.29.03.44-.56-.29-1.85-.66-1.14-.48-.5-.19-.05-7.4-.11-1.48-.6-.06-.16-.58v-3s.04-.71.04-.71l.8-.31,1.09-.03.68-.64,1.21-.07,1.36-.48c.32.17.41.55-.25.38-.02.08-.13.5-.11.41l1.45.32-.65.41.6.41-2.16.41-.73.22,1.02.36.64.47-1.39-.4-.65-.26.33-.72c.44.1.4-.49.08-.49l-.51-.58-1.1.59-.43.17.39.2.89.61-2.24-.56.2,1.9-.08,1.49.38.39,1.53.5,1.02.47.12.11.57.1.11.14.6.04-.15.33-.58-.23-.11-.11-.57-.1-.13-.09Z"/><path d="M13.3,7.42c-.34-.14-.23-.17.03-.16l.3.11.72.07,1.38-.22,2.79.56.46.2.11.55v3.49s-.75.47-.75.47l-1.14.4-.46-.23.05-3.93-3.31-1.12-.19-.19ZM18.62,8.56l-.11.11.11.11.11-.11-.11-.11Z"/><path d="M22.44,17.98l.25-1.35.12-.63.03-3.49c-.06-.19-.11-.36-.08-.26l.16-1.44-1.12.47-.62-.12,2.22-.86.21-.55-.1-2.58.16-.62-.66.07-1.44.64-.32-.27.6-.21.08-.51c.51-.12.62-.14.07-.02l-.75-.79,1.78.4.93.23v3.15s-.11,1.15-.11,1.15l-.71.48v1.3s.14.6.14.6l-.17,1.13-.04,2.64.02,2.74-1.72.84-.51.13-1.6.82-.1-.31.38-.18,2-.98,1.28-.51-.39-1.11Z"/><polygon points="12.5 24 10.12 23.09 9.48 22.84 8.64 22.52 7.97 22.09 8.9 22.13 9.59 22.5 10.98 22.96 12.24 23.54 12.35 22.24 12.28 20.24 12.31 19.67 12.36 15.51 12.56 15.39 12.58 22.24 12.67 23.57 13.96 22.89 14.76 22.65 15.59 22.14 16.55 22.12 15.2 22.82 14.06 23.3 13.28 23.62 12.5 24"/><path d="M18.97,4.88l.2-.14.17.08.55.18.12.09,1.18.36-1.23.7-.03.27c.5.26.66.34.63.32l.21.7-1.18.5.35-.41.55-.34-2.72-.29h-.75s1.11-.45,1.11-.45l-.59-.31.79-.44h1.12s.45-.35.45-.35l-.14-.19-.63-.07-.16-.2Z"/><path d="M12.12,14.45l.24-.35-.07-3.15c-.04-.38-.23-.58-.43.11l-.22-.31.24-.28-1.24-.45-1.55-.47-.68-.54,1.68.49.88.31,1.96.39,1.72-.68.88-.42.96-.02-.95.36-.66.26-1.93.9s-.41.37-.37.33v2.92s.1.5.1.5l.53-.12,2.53-.96.74-.09-.94.42-.79.31-1.2.46-.76.37-.43.16-.51-.26-.11-.08-.37-.13-.08-.09-.55-.15-.13-.09-2-.64-.38-.21.09-.33.52.31,1.54.5.38.2.11.11.61.08.11.08.32.17.21.09Z"/><path d="M13.32,5.23l-.57,1.67-1.31.13c-.51-.5-.72-.77-.91-1.32.19-.63.67-.96,1.33-1.14l1.47.67ZM13.01,5.88l-.55-.32-.17.49-.1.6.82-.77ZM11.77,6.28l-.11.11.11.11.11-.11-.11-.11Z"/><polygon points="12.95 3.44 11.25 3.34 11.22 3.19 11.62 2.91 12.58 2.98 12.95 3.44"/><polygon points="8.83 4.68 7.91 3.85 8.28 3.71 8.93 4.34 8.83 4.68"/><rect x="19.67" y="11.41" width="1.37" height=".36" transform="translate(-2.62 7.03) rotate(-18.43)"/><polygon points="1.68 18.38 1.61 17.34 1.8 17.21 1.87 18.26 1.68 18.38"/><polygon points="15.31 8.88 14.7 9.22 14.62 8.86 15.31 8.88"/><path d="M6.24,7.34c.24.02.15.01-.1,0-.54-.05-.49-.05.1,0Z"/><polygon points="16.56 4 16.79 4 16.91 4.11 16.79 4.23 16.56 4.23 16.45 4.11 16.56 4"/><circle cx="13.02" cy="10.92" r=".21"/><rect x="3.94" y="19.77" width=".16" height=".16" transform="translate(-12.86 8.66) rotate(-45)"/><polygon points="23.18 6.96 23.39 7.08 23.18 7.19 23.07 7.08 23.18 6.96"/><rect x="13.06" y="22.74" width=".16" height=".16" transform="translate(-12.28 15.98) rotate(-45)"/><rect x="7.82" y="4.72" width=".16" height=".16" transform="translate(-1.08 6.99) rotate(-45)"/><rect x="14.66" y="4.26" width=".16" height=".16" transform="translate(1.25 11.69) rotate(-45)"/><rect x="15.34" y="3.8" width=".16" height=".16" transform="translate(1.77 12.04) rotate(-45)"/><rect x="2.34" y="19.09" width=".16" height=".16" transform="translate(-12.84 7.33) rotate(-45)"/><rect x="22.19" y="18.4" width=".16" height=".16" transform="translate(-6.55 21.16) rotate(-45)"/><rect x="1.2" y="9.96" width=".16" height=".16" transform="translate(-6.73 3.85) rotate(-45)"/><polygon points="12.23 9.7 12.34 9.81 12.23 9.95 12.12 9.81 12.23 9.7"/></svg>
