<svg xmlns="http://www.w3.org/2000/svg" id="a" viewBox="0 0 24 24"><path d="M12.09,6.18l-.25.15.14.44.72.38-.17-.53.49.17c.77.1,1.42-.64,1.28-1.45l-.54-.69.65.21.25.69-.15.91.49-.44-.25-1.08.35-.35c-.47-.18-.77-.27-1.15-.75l2.81.95.45.88.45,1.69.73,2.12-.84,1.66.09-1.34-.44.87-.22.69-.07.56.31-.47.26.25-1.59,4.53-.02.15-.62,2.01-.3-.13.16-1.03-.57.99.48.92-1.22,3.59-.34,1.14-1.11.13-1.58-.72-1.7-.52-.79-.6,1.29.18-.66-.5-.49-.33-2.1-.23,1.69.69-.22.33-2.06-.76-1.63-.55-1.65-.54-.64-.59.94-2.55.27-.16.26.2.36-1.08s-.15-.09-.38-.21c-.12.58.01-.05.02-.12l.24-.54.62-.49-.53-.2.33-.77.45-.46-.07-.63.53-1.45.54-1.43.84-2.66.28-1.04c.21-.37.52-.78.8-1.01l.17-.06.48-.28,3.03-2.07,1.96.66.21-.63,1.13-1.11c.05-.06.32-.36.14-.17l-.46-.26,1.16-.81.73-.12c.46-.58,1.17-.53,1.67-.04l.91.18.56.96.14.56.39-.29-.14.56.31.88-1.11-1.34-.38-.86-.85-.34-1.05-.24-1.12.8-.91,1.02-.78.72-.35.96c.07,0,.25.03.24.03l.29-.85c.15-.05.41-.14.36-.12l-.53,1.85v.42s0,.36,0,.36l-.49-.13-.39-1.05-.51.97-.02.75ZM12.04,3.73c-.51-.05-.47-.04.1,0,.23.02.15.01-.1,0ZM10.11,4.04h0s0,0,0,0ZM12.34,4.52s-.2-.16-.32-.27l-.4,1.07.71-.8ZM7.49,5.48l.4.15.34-.6-.62.31-.12.14ZM17.12,6.91l-.16-1-.53-.61.53,1.8.16-.18ZM6.95,6.22l-.14.11.03.22.11.11.11-.11v-.22l-.11-.11ZM10.66,6.43l-.11.11.11.11.11-.11-.11-.11ZM17.22,7.09l.02.28c-.07.48-.06.44,0-.04l-.03-.24ZM9.72,7.94c.29-.41.36-.56.32-.6-.23.33-.35.57-.32.6ZM16.55,7.31l-.11.11.11.11.11-.11-.11-.11ZM8.82,18.13l.11.59.29-.63,2.38-1.38-.62-.2-.34-.14,1-.8.98-.61.46.21-.12-.37.67-.5.61-.61-.09-.18-.64.4-2.4-.53-.12-.28.3-.25c.25-.65.75-1.16,1.37-1.42l.27-.31-.22-.31,2.1-2.85-1.46.82-2.56,1.77c-.32-.01-.81.2-.84.35l-.48.7-.76.27-.14.58-1.54.93-1.41,1.43c.25-.07.44-.15.59-.26l.71-.65,2.16.74-.15.42-1.08,1.12-1.24.54-.73.52c.75-.2,1.06-.28,1.75-.26l-2.01,2.87-.29.23.15.3,3.3-2.22c.19-.13.47-.33.05-.03ZM17.73,8.85l-.36-.69c.01.31.15.55.36.69ZM8.26,10.36l-.11.11.11.11.11-.11-.11-.11ZM6.73,12.76l-.11.11.11.11.11-.11-.11-.11ZM8.48,14.66l-.11.17.11.11.11-.11-.11-.17ZM15.64,16.01c.05-.06-.18.2-.38.42l.43-.16-.05-.26ZM6.51,16.25l-.11.11.11.2.11-.2-.11-.11ZM15.24,16.9l-.11.11.11.11.11-.11-.11-.11ZM3.02,17.56l-.11.11v.22l.11.11.11-.11v-.22l-.11-.11ZM2.81,18.21l-.11.11.11.11.11-.11-.11-.11ZM2.59,18.87l-.11.11.11.22.11-.22-.11-.11ZM3.12,19.85l-.15-.34.56-.1c.22-.11-.26-.48-.32-.2l-.78.21c.14-.19-.01.02-.35.47l.92.13.12-.17ZM13.49,19.08l-.11.11.11.11.11-.11-.11-.11ZM13.97,20.9l.4-1.07.12-.43s-.23-.02-.2-.01l-.38.98.06.54ZM11.64,19.51c-.38.18-.5.37-.62.68l.62-.68ZM10.66,19.74l-.11.11.11.11.11-.11-.11-.11ZM3.31,19.84l-.22.29.96.22-.74-.51ZM8.7,20.84q0-.27,0,0,0,.51,0,0ZM5.42,20.83l-.11.11.11.11.11-.11-.11-.11ZM8.04,20.83l-.11.11.11.11.11-.11-.11-.11ZM12.91,23.64l.46-1.11-.05-.27-.74.78-.53.29.86.31ZM12.42,22.56c-.02-.22-.03-.26,0,0-.02.34-.02.32,0,0ZM11.31,22.79l-.11.11.11.11.11-.11-.11-.11Z"/><path d="M12.25,6.48l-.17-.3.17.3Z"/><path d="M12.53,6.62l-.28-.14.28.14Z"/><polygon points="21.51 12.08 21.64 11.53 21.21 11.19 21.87 10.42 21.39 8.38 21.13 7.84 20.06 6.39 21.51 7.38 21.48 8.04 22.04 8.59 22.08 9.3 22.21 10.16 21.81 11.77 21.51 12.08"/><path d="M19.22,5.06l-.18-.62.2-.35-.21-.51.12-.43.27.29.5,2.44.16.15c.05-.14-.05.13-.1.26l-.17-.28-.82-.75-.11-.11.13-.3.23.19Z"/></svg>
