<svg xmlns="http://www.w3.org/2000/svg" id="a" viewBox="0 0 24 24"><path d="M22.96,20.37l-20.17-.05-1.37.04c-.47-.08-.98-.33-1.3-.64-.15-.57-.09-1.1.11-1.65l.44-.44,1.99-1.31.81-.38c.28-.01.63-.17.75-.47l4.33-2.23.94-1.42c.68-1.03,1.82-1.53,3-1.51.71.25,1.41.59,1.93,1.02l.74,1.07.53.83,2.97,1.55.72.62.62.12,3.22,1.89c.66.67.9,1.41.65,2.32l-.92.64ZM11.92,10.84l-.1.1.1.1h.2l.1-.1-.1-.1h-.2ZM13.88,11.23l-.1.1.1.1.1-.1-.1-.1ZM9.97,11.62l-.1.1.1.1h.2l.1-.1-.1-.1h-.2ZM12.13,12.78c-.02-.2-.03-.23,0,0-.02.31-.02.29,0,0ZM8.7,19.5l2.74-.03,5.94.06h.57s4.27-.01,4.27-.01l.77-.32-.58-.6-3.75-2.29-.6-.33-2.41-1.3-.19-.45-.46.1-2.94-1.27-2.78,1.29-.94.44-.41-.2-.14.42-2.26,1.25-.47.12-.97.77-1.07.5-.93.63-1.06.83.8.39,3.89.02c.06.56.31.58.24-.03h2.74ZM3.42,16.51h0s0,0,0,0ZM23.07,17.68l-.1.1.1.1.1-.1-.1-.1ZM23.46,18.85l-.1.1v.2l.1.1.1-.1v-.2l-.1-.1ZM.59,19.44l-.1.1v.2s.1.1.1.1l.1-.1v-.2l-.1-.1ZM3.32,19.83l-.1.1.1.1.1-.1-.1-.1ZM12.12,19.83l-.1.1.1.1.1-.1-.1-.1ZM16.95,20.11c.18-.18.35-.35.24-.24-.28.29-.32.33-.24.24Z"/><path d="M10.43,4.42l1.36-.79c.8.17,1.32.3,1.8.57-.27.35-.19.54.18.11l.66.76c-.35.21-.2.25.04.22.53,1.11.23,2.39-.87,3.1-.32-.36-.44-.24-.33.13-.51.43-.76.84-.86,1.55l-.53.02v-1.03c.27-.37.76-.79,1.22-1.05.88-.52,1.14-1.63.75-2.47l-.5-.73c-.68-.26-1.25-.35-2.06-.17-.39.31-.84.82-.96,1.51l-.36.62-.54-.56.78-1.63.23-.15ZM11.73,4l-.1.1.1.1h.2l.1-.1-.1-.12-.2.02ZM10.57,4.76l.21-.08c-.39-.24-.3-.1-.21.08Z"/></svg>
