<svg xmlns="http://www.w3.org/2000/svg" id="a" viewBox="0 0 24 24"><path d="M22.5,21.26l.22-.21-.22.21Z"/><polygon points="20.25 22.38 20.56 22.37 20.54 22.53 20.66 22.66 20.79 22.78 20.91 22.91 21.04 23.03 21.24 23.22 21.09 23.34 20.91 23.16 20.79 23.03 20.66 22.91 20.54 22.78 20.41 22.66 20.25 22.38"/><path d="M22.64,19.6l-.03.34.73,1.06.09.11.14.15.11.11.14.15.17.15-.17.23-.19-.18-.14-.17-.1-.1-.15-.15-.12-.07-.4-.19c.19-.18-.04.04-.22.21l-.36-.35-.36.19-.34.76-.5-.17-.14.31.28.39-.52-.03h-.32s-.89-.51-.89-.51l-2.28-2.24-2.19-2.04-2.6-2.56-.83,1.06-.48,1-1.22,1.03-1.18,1.61-.07-.7-.23.68-.26.33-.64.29-1.21,1.55c.25.35.17.57-.18.3l-1.06,1.06-.89.75.82-1.17-.68-.57-.25.07.3-1.02-2.39,1.82.39-.55,1.16-1.4-.88.46.47-1.02-.56-.3.07-.5-1.47.81,2.05-2.24,1.38-1.26-.03-.34.66-.72c-.42-.27-.15-.1.14.09l1.82-2.09.49-.47,1.57-1.59-1.76-1.67-.88-.8-1.03-.99-.72-.57c.03-.06-.06.1-.24.43l-.41-.37-.33-.22c.21-.04.49-.08.28-.05l.23.11.09-.46-2.77-2.01L.01,3.95l1.03.4c-.04.05.11-.13.18-.21l-.18-.31.28-.07.12.1.29-.13.11-.46.43-.19-.24-.41-.26-.75,1.02.62-.2-.57.6-.28-.02-.61V.33s.02-.33.02-.33l.8.7,1.38,1.31.27-.17.4,1.03,1.26,1.08,1.57,1.74.36-.17.38.68.52-.33-.33.46.2.4,1.83,1.93.15.18,1.45-1.54.16-.21-.22-.21c-.03.08.04-.11.1-.25l.23.32.63-.83-.2-.3c.06.02.07,0,.05-.07l.29.22.46-.41,1.09-1.26.14-.79.5-.32.3.37,1.03-1.21-.14-.48.59.03,1.7-1.72.15.13-.78,1.13,1.11-.53-.78,1.14,1.15-.3.17.56.27.41.55-.04.42.67-.55.5-.38.6.97-.63.7-.08.71-.49-.72.78-2.37,2.33-.25.7-.95,1.01c-.24.07-.42.07-.04-.15l-.11-.39-2.39,2.66-.58.61-1.01.97.06.39,1.95,1.76c.34-.29.41-.24.13.09l.55.53,1.08,1.17.75.2.28.64.89.79.74-.11-.03.66c-.03-.05.28.42.37.57l1.35,1.06.23.22-.27.16-.13-.19-.48-.28-.27.19ZM20.91,2.68l-.12.12v.25l.12.12.12-.12v-.25l-.12-.12ZM7.18,16.92l-.12.12.12.12.12-.12-.12-.12ZM5.43,19.16l-.12.12.12.12.12-.12-.12-.12ZM20.04,21.16h0s0,0,0,0Z"/><path d="M8.26,19.72l.31.02-.31-.02Z"/><path d="M22.61,19.95l.03-.34-.03.34Z"/><polygon points="7.43 3.43 7.68 3.43 7.8 3.56 7.68 3.68 7.43 3.71 7.31 3.56 7.43 3.43"/><rect x="6.84" y="2.97" width=".18" height=".18" transform="translate(-.13 5.8) rotate(-45)"/><polygon points="22.03 2.33 22.66 1.68 22.78 1.81 22.28 2.33 22.03 2.33"/><path d="M17.62,10.07c-.3.32-.36.39-.11.12.21-.23.3-.32.11-.12Z"/><polygon points="6.18 9.62 6.31 9.8 6.18 9.92 6.06 9.8 6.18 9.62"/></svg>
