<svg xmlns="http://www.w3.org/2000/svg" id="a" viewBox="0 0 24 24"><path d="M21.46,19.03l-.54.23.24-.68.42-.19-.16-1.96-.36-.4.13-.76-.32-.9-.09-.58-.32-.78-.12-.63-.23.72-.34-.88c.05-.21.02-.56-.08-.78-.73-1.3-1.59-2.15-2.98-2.74l-.4.1-.05.44.31-.25.29.36.29.14-.27.28-.36-.34-.42.22-.12.32-.25-.07.31-.52-.49.23-.6.42-.08.1-.77.19-.08.89v3.11s.13.62.13.62l-.1.82-.46.26-.36-.39.03-.74.09-3.89-.45-.21-.68-.19.39-.28,1.18-.82.57-.09,1.22-.82.72-.45.63-1.21-.29-.4-.27-.27.36-.24-.08-1.15-.35-1.28-.59-1.1c-.8-1.02-1.75-1.77-2.89-2.42l-1.18-.06-.7.31-1.42,1.1-.64.66-.45.66c-.61.97-.87,2.04-.93,3.24l.39.56-.53.19.34,1.33,1.49.99.92.57.8.09.91.88-.82.03-.03,2.6.04,1.57.05.49-.29.86-.68-.65.11-.65.02-2.52-.02-1.45-.13-.32-.31.34-.24-.53.31-.05-.5-.3-.41.2-.64-.47.21-.12.06.1.15.06.12.14.22-.09-.22-.14-.11-.1-.07-.09-.3-.16-.18.27-.44-.65c-.02-.15-.17-.47-.19-.31l-1.69.94-.71.72-.62,1.01-.75,1.53.23.14-.18.44-.3-.37-.3,1.39-.3.96-.24.87c-.24.81-.31,1.64-.22,2.4l-.03,3.21.35.44.18-.23.14-.2.61.21,1.37-.42.44.2v-.79s-.36-.12-.36-.12l-.04-.48v-.8s-.87-.96-.87-.96l.49.09.17-.1.31.33c.04.05.33-.24.27-.28l-.93-1.15-.13-.83,1.01.61.11.21.11-.19-.16-.11.23-.51-.21-.2.27-.28-.34-1.67-.3-.22.35-.36.12-.1.24.07.08.34.14.12.14-.16-.1-.12-.07-.32.17-.19-.32-.64.21-.34.2-.84.22.76.07.59-.08,3.69-.2,2.13-.03,2.23.34.96.29-.13-.22-.34-.08-.38.73.62.15-.33-.2-.25-.57-.58.4-.59-.05.52.21.17.44-.66.34-.44-.2.75.29.08.12-.36.32-.23-.21.66.91-.47-.13.36-.59.19-1.1,1.23,1.39.23.72-.15h5.17s1.14.1,1.14.1l.43-.11.31-.42.48-.26c.08-.29.33-.26.53.17l.05-2.58-.08-2.88-.03-.56-.04-.91.06-1.48.09-1.07.05-.37.32.11-.27,1.32.62-.48-.25.41-.03,2.02.46.07.1-.16.27-.45.19.4-.28.66-.65,1.18.41.12-.16.4.2.04.63-.47-.14.5.4-.07.15-.5c.1-.09.35.19.3.32l-1.09,1.12-.38.38s-.09.22-.11.25l.43.21h.41s.41-.26.41-.26l.11.24-.88.43-.46.71.16.39-.29.75.18.38.35-.16.72.43-.56.21c.02.13.04.24.06.31,0-.03-.01-.06-.02-.11-.07-.03-.19-.09-.27-.12l-.3,1.19.82.29,1.27.16.08-.98-.52.21.28-.7-.66-.3.16-.25.28.15.24-.44.44-.15.41-.39.25-.45v-.75s-.05-.89-.05-.89ZM2.71,19.21l-.11-.09.11-.09.09.09-.09.09ZM3.25,15.94l-.09-.09.09-.09.09.09-.09.09ZM3.79,21.02h-.18l-.09-.09.09-.09h.18l.09.09-.09.09ZM4.7,13.22l-.09-.09.09-.09.09.09-.09.09ZM4.7,11.95l-.09-.09.09-.09.09.09-.09.09ZM5.55,13.86l-.2.09-.33-.85.66.35-.12.41ZM6.15,11.59l-.09-.09.09-.09.09.09-.09.09ZM6.7,9.95l-.09-.09.09-.09.09.09-.09.09ZM7.24,9.41h.18l.09.09-.09.09h-.18l-.09-.09.09-.09ZM7.24,17.94l-.09-.09.09-.09.09.09-.09.09ZM7.51,19.84l-.09.09-.09-.09v-.18l.09-.09.09.09v.18ZM8.24,19.66l-.09.09-.09-.09v-.18l.09-.09.09.09v.18ZM8.21,17.86l-.29.76-.12.41-.3-.09.13-.36.24-.64.02-1.06.36-.24-.04,1.22ZM10.96,16.94l.09-.09.09.09-.09.09-.09-.09ZM11.23,18.12l-.09-.09.09-.09.09.09-.09.09ZM11.41,11.04l-.09-.09.09-.13.09.13-.09.09ZM15.77,3.42l.09.09-.09.09-.09-.09.09-.09ZM14.15,2.83l.24.49-.37-.15.12-.34ZM12.05.25l.09-.11.09.11v.18l-.09.09-.09-.09v-.18ZM11.74,1.28l.39-.26.57.25v.15s-.86,0-.86,0l.23.36-.94-.04.61-.47ZM12.25,2.51c0,.11-.09.2-.2.2s-.2-.09-.2-.2.09-.2.2-.2.2.09.2.2ZM10.17,2.75l.46.03-.74.31.28-.34ZM9.6,3.06l.09.09-.09.09-.09-.09.09-.09ZM7.97,5.78l-.09-.09.09-.09.09.09-.09.09ZM8.75,8.28l-.28-.28c.12-.06.35.16.28.28ZM11.8,10.01l-.86-.75-1.07-.74-1.51-1.11c-.14-.41-.23-.89-.26-1.29l.65-1.45.68-.8.87-.64c.05.2.07.32.08.37l1.67-.18,1.89.2.53-.17.45.52.64.99.44.93-.02,1.08-.72,1.04s-.1-.06-.13-.08l-.98.71-1.94,1.5-.26.16-.18-.29ZM12.5,11.22l-.09-.09.09-.09.09.09-.09.09ZM15.23,16.85l.09.09-.09.09-.09-.09.09-.09ZM15.04,12.86l-.09-.09v-.18l.09-.09.09.09v.18l-.09.09ZM14.93,10.22l.14-.08.23.09-.14.36h-.37s.14-.38.14-.38ZM16.13,22.01l-.09-.17.09-.09.17.09-.17.17ZM16.69,21.24l-.48.2-.68-.7-.6-.14-.56-.38.3-.11.29.29.44-.03.51.26c-.04.07.06-.11.11-.21l.11-.12.56.59v.36ZM15.68,19.84l.09-.09.09.09-.09.09-.09-.09ZM16.77,20.54l-.29-1.17-.6-2.17-.2-.27.33-.33.18.62.22.71.73-.4-.35.38-.11.75.06.58.62,1.88-.59-.58ZM18.31,11.04l-.09-.09.09-.09.09.09-.09.09ZM18.48,14.94s.03-.09.05-.13l-.05.13ZM19.06,22.61c.01.08.02.09,0,0h0ZM19.49,21.23c-.11,0-.2-.09-.2-.2s.09-.2.2-.2.2.09.2.2-.09.2-.2.2Z"/><path d="M18.77,22.35h0c-.14-.06-.09-.04,0,0Z"/><path d="M10.4,3.59h0s0,.04,0,0Z"/><path d="M16.38,22.95s0,0,0,0l-.08-.3-1.54-.14-3.81-.04-3.37.13-.4.71c.09.22.08.27-.08.04l-.28-.62.02,1.17,3.4-.16,1.21-.07.47.02,2.48.11,2.78.15.02-1.32-.34.71-.47-.38ZM9.96,23.38l-.09-.09.09-.09.09.09-.09.09ZM12.23,23.22c-.11,0-.2-.09-.2-.2s.09-.2.2-.2.2.09.2.2-.09.2-.2.2Z"/><path d="M5.13,22.37l-.05.46-.32-.08.22-.49-.31-.14-1.35.34-.25.12.31,1.41,1.41-.22.65-.23-.18-1.21-.14.03ZM4.16,23.38h-.18l-.09-.09.09-.09h.18l.09.09-.09.09Z"/><rect x="13.47" y="10.14" width=".22" height="4.63"/><polygon points="10.39 12.76 10.77 13.07 10.78 11.93 10.56 12.11 10.39 12.76"/><path d="M20.98,22.27c.24-.34.3-.47.27-.5-.19.28-.29.47-.27.5Z"/><path d="M10.6,15.01c-.11,0-.2.09-.2.2s.09.2.2.2.2-.09.2-.2-.09-.2-.2-.2Z"/><polygon points="13.5 15.49 13.59 15.58 13.68 15.49 13.68 15.31 13.59 15.22 13.5 15.31 13.5 15.49"/><rect x="10.62" y="10.16" width=".13" height=".13" transform="translate(-4.1 10.55) rotate(-45)"/><rect x="21.33" y="21.41" width=".13" height=".13" transform="translate(-8.92 21.42) rotate(-45)"/><rect x="17.34" y="21.96" width=".13" height=".13" transform="translate(-10.47 18.76) rotate(-45)"/><path d="M9.78,6.3l-.57.12v.36s.27.38.27.38l.42.05-.21.49.73.6c.04-.05.11-.14.11-.15l-.75-1.85Z"/><path d="M10.42,8.3h0s-.05.07,0,0Z"/><polygon points="14.55 7.52 14.76 7.13 14.59 6.72 14.33 6.9 13.76 7.99 13.12 8.87 13.68 8.47 14.55 7.52"/><polygon points="9.69 6.05 9.6 5.96 9.51 6.05 9.6 6.24 9.69 6.05"/><rect x="10.81" y="8.53" width=".13" height=".13" transform="translate(-2.89 10.2) rotate(-45)"/><polygon points="7.51 21.24 7.93 20.93 7.59 20.83 7.51 21.24"/></svg>
