<svg xmlns="http://www.w3.org/2000/svg" id="a" viewBox="0 0 24 24"><path d="M14.34,3.03l.54-.75,2.27-2.28-1.24,2.89-.75,1.52c-.13-.04-.17.25-.1.42l-.78.88-1,1.8,1.82-.24,2.7-.35-1.23,1.52-.96.94-.69,1.02-.67.76-1.15,1.47-.86,1.04,5.5-.76-3.19,3.42c-.3.23-.58.55-.75.86l-1.14,1.52-.46-.16-1.1,1.39-1.2,1.25.17-.47.12-.46-1.75,1.89-1.84,1.86.64-1.46.6-1c.03-.59.3-.98.76-1.3l-.14-.25.2-.49.84-.99.57-1.01.96-1.73-4.84.97.83-1.11.42-.59.71-.84.2-.63.92-1.01-.15.72.03.46.35-.71.2-.33-.22-.39.63-.86.66-.87-.23-.67-2.73.1,2.75-2.98,1.38-1.45.9-1.09.3-.06v-.28s1.07-1.03,1.07-1.03l.14-.09ZM14.4,3.39l.04-.21c.03-.14,0,.04-.04.21ZM13.16,4.71l.12-.14-.12.14ZM11.09,7.21c-.49,0-.66.28-.57.59l.57-.59ZM14.49,10.43c-.31-.05-.59.24-.53.6l.53-.6ZM15.25,15.03l1.02-1.12h-.76s-.36.22-.36.22l.16.39-.06.51ZM9.05,15.04l-.47-.15-.37.83.84-.68ZM14.38,16.3l.35-.79-.65.51.3.28Z"/></svg>
