<svg xmlns="http://www.w3.org/2000/svg" id="a" viewBox="0 0 24 24"><path d="M22.01,1.77c.05.02-.36-.17-.49-.23l-5.58-.45L6.3.18l-1.4-.18-.7.17-.17.22-.22,1.79-.67,4.62-.21,2.11-.18,1.47-.51,3.32-.38,3.2.31.41-.36.26-.27,1.9-.25,2.2,1.19.19,2.45.35c-.05-.16-.12-.36-.14-.44l.58-.35-.2-.45.56.21.92-.67-.87,1.04.65.34.69.13-.72.31,1.8.33.52-.16,1.74.38,5.27.55,2.18.27.08-.35-.53-.22c.72-.51,1.08-.84,1.52-1.42l.04.93-.23.6-.64.23,1.06.52.33-2.04.42-3.66.08-1.01.58-4.53.31-2.68.51-4.05.42-3.28c0-.27.32-.26.5.02l-.81,6.09-.69,5.51-.56,4.76c-.28.75-.36,1.56-.06,2.49l.5-3.43.21-1.83.55-4.06.33-3.07.24-1.45.64-5.14-.7-.87ZM21.15,2.41l.12.12-.12.12-.12-.12.12-.12ZM16.66,1.38c.11,0,.2.09.2.2s-.09.2-.2.2-.2-.09-.2-.2.09-.2.2-.2ZM13.56,1.49l.12.12-.12.12-.12-.12.12-.12ZM9.65,1.03h.23l.12.12-.12.12h-.23l-.12-.12.12-.12ZM6.89.8l.12.12-.12.12-.12-.12.12-.12ZM4.35.33l.63.07-.43.45-.28-.31.08-.21ZM4.93,2.07l-.12.12-.12-.12.12-.12.12.12ZM2.71,13.02c.11,0,.21.09.21.21s-.09.21-.21.21-.21-.09-.21-.21.09-.21.21-.21ZM1.84,21.36l-.07-.49.86-.63-.44.75.89.51-1.23-.14ZM3.2,10.23l-.14-.12.14-.12.12.12-.12.12ZM4.01,7.23l-.67.73c.13-.33.26-.52.67-.73ZM3.66,18.05l-.12-.12.12-.12.12.12-.12.12ZM5.51,20.93l-.12-.23.12-.12.12.12-.12.23ZM8.27,19.66l-.12-.12.12-.12.12.12-.12.12ZM9.2,18.93c-.11,0-.19-.09-.19-.19s.09-.19.19-.19.19.09.19.19-.09.19-.19.19ZM10.57,22.42h-.23l-.12-.12.12-.12h.23l.12.12-.12.12ZM11.6,21.87h-.23s.58-.6.58-.6l.11.12-.46.48ZM13.56,20.37h0q0,.54,0,0ZM13.56,20.32c0-.21,0-.21,0,0h0ZM13.9,19.32l-.12.12-.12-.12v-.23l.12-.12.12.12v.23ZM15.69,22.88l.4-.49.12.41-.52.08ZM17.7,21.27l-.12-.12.12-.12.12.12-.12.12ZM19.08,21.27l-.12-.12.12-.12.12.12-.12.12ZM19.77,14.62h0q0,.54,0,0ZM19.77,14.57q0-.22,0,0h0ZM20,7.7l-.14-.12.14-.12.12.12-.12.12ZM19.67,7.71l-.49,3.8.07.6-.45,2.34-.48,4.57-8.19-.94-.61.53-.02-.57-1.23-.15-.95.06-.61-.31-2.77-.19-.59-.4.47-3.15.47-3.87.62-4.86.41-3.3,8.34.77,6.51.62-.52,4.45ZM20.46,10.46l-.12-.12.12-.12.17.12-.17.12ZM20.8,5.06v-.23l.12-.12.12.12v.23l-.12.12-.12-.12ZM21.15,5.63l-.12-.12.12-.12.16.12-.16.12Z"/><path d="M20,22.44h0q0,.54,0,0Z"/><path d="M20,22.39q0-.21,0,0h0Z"/><path d="M20,22.44h0s0-.03,0-.05c0,.02,0,.03,0,.05Z"/><rect x="5.65" y="22.23" width=".16" height=".16" transform="translate(-14.1 10.59) rotate(-45)"/><path d="M14.04,4.86s-.02-.05-.02-.07c0,.02.02.04.02.07h0Z"/><path d="M14,4.76s0-.01,0,0h0Z"/><path d="M14.01,4.78s0-.02,0-.02c0,0,0,.01,0,.02Z"/><path d="M14.02,4.79s0-.01,0-.02c0,0,0,0,0,.02Z"/><path d="M11.64,7.69l-1.42,1.27.5.4-.92.29-1,1.04,2.31.11.21.23-.27.27-1.11,2.58-1.07,2.24.35-.21.95-1.15.86-1.15.58-.32.72-.79.06-.64.42-.14,1.96-1.97-2.45-.1-.2-.22.18-.35,1.01-2.04.17-.63.66-1.33s-.05-.15-.08-.23l-2.26,2.37-.13.46Z"/></svg>
