<svg xmlns="http://www.w3.org/2000/svg" id="a" viewBox="0 0 24 24"><polygon points="5.47 6.4 4.43 7.37 4.59 8.27 4.09 7.32 4.88 6.41 5.47 6.4"/><path d="M4.83,8.46l-.24-.19.24.19Z"/><path d="M4.83,8.46l.45.23,1.48.48.64.25,4.58-.19.77-.36,1.01-.48.26-1.02-.72-.68c-.69-.31-1.43-.55-2.05-.57l1.03.55-.52.24-.28.74-.21.22-.5.14c0,.1-.02.38,0,.07l.87.48-2.92.06.15-.81-.29-.7c-.09-.02-.3-.17-.35-.23.59-.14.52-.34,0-.4l.38-.23.31-.25-.41-.22-1.67.19-1.37.45.17-.39,1.57-.4.51-.2,4.34.3,1.48.79.95.89c-.17.81-.57,1.38-1.25,1.72l-.81.19-.89.27-2.87.11-2.07-.16-.6-.33-.83-.23-.35-.53ZM9.52,6c0-.11-.09-.2-.2-.2s-.2.09-.2.2.09.2.2.2.2-.09.2-.2ZM11.39,7.44l-.47-.22.22.45.26-.23ZM9.23,8.31c-.04-.32-.07-.51-.05-.42.05.4.07.53.05.42Z"/><path d="M23.63,19.02l.06-.63c-.08-.31-.31-.46-.23.04l-.33.84-.06-2.38.62-.35.07-3.97-.37-.39-.04,1.34-.05,2.06-.17.12-.07-3.27-2.6.55-.75.05.11,1.17c.04.53-.06,1.05-.37,1.54l-.05-2.84c.49-.05.53-.24-.04-.41l.41-.25,2.34-.35,1.35-.48.54.17-.06,7.97-.25.44-.88.19-.94.15-.49.17-1.46.29-.4.06-.1-1.68v-2.4s.42.52.42.52l-.05,1.88-.03,1.33,1.54-.31.49-.12.86-.18.7-.13.28-.75Z"/><path d="M1.6,8.95c-.43-.85-.27-1.79.35-2.63l1.86-1.2.76-.34.78-.3.98-.19.87-.13.96-.2,2.65-.04.47.23.56.15,1.37.11.49.18,1.82.85,1.04,1.04.43.7v1.26s-.34.29-.34.29l-.3-.08.42-.77-.26-.69-.39-.7-.64-.63-1.26-.72-1.15-.35-.66-.13-.98-.27h-4.38s-.74.27-.74.27l-.9.18-.75.28-.78.35-1.3,1.04-.82,1.01-.1,1.22.17.21.11.11.16.16-.11.12-.16-.17-.11-.11-.13-.1Z"/><path d="M18.16,7.67l-.32-.48c-.54-1.19-1.57-1.96-2.75-2.46l-3.09-1.14-1.52-.14-2.46.05.43-.47,3.31.07,1.92.39.44.22.91.16,1.6.7.7.75.43.48.19.61.35-.59.37,1.24-.29.41.13.13.19.39.03,1.63-.08,2.22-.23-2.45-.33.11v.58c-.06.16-.21.53-.11.28-.65-.24-.51-.19-.46-.17l-.16.77s-.35-.21-.23-.14l-.15-.41-.51.85c.09.2.1.22-.12-.27l-.62.11-.78.42-.76.23-.87.21-1.05.19-1.39.06.76-.37,1.14-.11.85-.24,1.21-.38,1.35-.56,1.76-1.35.48-1.4-.26-.12Z"/><polygon points=".61 6.47 .45 7.01 .02 7.65 .14 6.71 1.9 5 2.6 4.59 3.8 3.98 4.55 3.76 5.43 3.56 6.18 3.32 7.51 3.26 7.63 3.41 6.82 3.59 5.88 3.77 4.88 4 3.1 4.63 2.4 5.03 1.68 5.44 .61 6.47"/><polygon points="7.08 10.04 6.18 9.98 5.36 9.67 4.99 9.49 5.08 9.19 5.86 9.58 6.51 9.77 7.19 9.89 7.29 10.03 10.35 10.03 10.47 10.22 7.39 10.27 7.18 10.14 7.08 10.04"/><path d="M21.41,17.05l-.27-.28.27.28Z"/><polygon points="22.24 16.54 21.92 15.88 21.21 16.09 21.14 16.77 20.88 15.99 21.83 15.55 22.33 16.01 22.46 16.46 22.24 16.54"/><polygon points="21.41 17.05 22.24 16.54 21.92 17.27 21.41 17.05"/><polygon points="10.25 10.85 9.26 10.92 9.13 10.74 10.13 10.67 10.25 10.85"/><path d="M23.1,19.56l-.89-.05.89.05Z"/><path d="M8.11,10.83c.23.02.15.01-.1,0-.51-.05-.47-.04.1,0Z"/><polygon points="13.62 9.38 13.84 9.38 13.94 9.49 13.84 9.6 13.62 9.6 13.51 9.49 13.62 9.38"/><rect x="3.08" y="8.54" width=".15" height=".15" transform="translate(-5.17 4.75) rotate(-45)"/><path d="M10.85,5.05l-2.91-.03-.71.23-.91.1-1.78.72-1.38,1.45-.29.87v-1.45s1.03-.88,1.03-.88l1.24-.71,1.17-.33.74-.22h4.6s.87.28.87.28l1.46.51.93.49c.4.52.71,1.22.89,1.98l-.96.9.25-.63.28-.55c-.25-.93-.89-1.62-1.78-2l-1.48-.47-1.27-.27Z"/><rect x="13.1" y="9.63" width=".15" height=".15" transform="translate(-3 12.16) rotate(-45)"/><rect x="6.35" y="10.5" width=".15" height=".15" transform="translate(-5.6 7.64) rotate(-45)"/><polygon points="22.77 13.08 22.9 13.19 22.77 13.3 22.67 13.19 22.77 13.08"/><rect x="20.73" y="19.66" width=".15" height=".15" transform="translate(-7.86 20.5) rotate(-45)"/><polygon points="8.38 8.29 8.59 8.4 8.38 8.51 8.28 8.4 8.38 8.29"/><path d="M17.63,20.29s.02.03,0,0h0Z"/><path d="M8.28,20.27h0s.02-.01,0,0Z"/><path d="M7.04,20.4h0s-.01,0-.01,0c0,0,0,0,.01,0Z"/><path d="M.87,16.63s0,0,0,0h0Z"/><path d="M.68,16.63c.11,0,.17,0,.19,0-.04,0-.3,0-.39,0-.02.23.05.55.2,0Z"/><path d="M18.93,13.48c-.31.59-.56.55-.61.19-.11-.29-.19-.48-.07-.19l-.53-.08s0-.11.01-.19l1.5-.45-1.76-.08-1.77.27h-.73s-1.7.01-1.7.01l-.51.49-.04-.46-5.89-.29c-.09.31-.33.55-.27-.06l-1.05-.27-2.27-.72-.75-.39c-.64-.43-1.26-.96-1.77-1.52l-.71-1.48v4.55c.56.1.54.48.05.53v2.75s.43-.1.43-.1c.02-.35.12-.38.15.01.06.17.01.21.48.22l-.15,1.16.29.6.17-1.42.41.34-.32,1.06.41.42-.03-.76.16-.37.3.22-.19.67.19.73.45.03-.03-1.47.11-1.31.38.33-.24.29.09,1.59.06.43-.38.33.79.35.06-1.25.44.53-.33.83.65.31-.04-1.96c-.1-.22.47-.21.42,0v2.05s.33,0,.33,0l.17-1.35.21,1.01.08.58.32-.02.15-1.26c.1.46.12.7.14,1.2l.22.34.29-.16-.08-.5.29-.91.13,1.51c.06.01.23.05.43.09l-.09-1.9.43-.36.07,2.35c.15-.11.36-.28.42-.32l.18-.97.23,1.37,2.41.22.02-1.89c-.06-.37.53-.14.41.06l.06,1.65.4.26.04-.81c.06-.4.25-.42.27.02l.17.72.42-.06v-.71s.29,0,.29,0l.17.75.41-.04.02-.68c.07-.33.31-.5.23.05l.4.72.26-2.41.24,1.05.02,1.21,1.23-.11.16-.68c.06-.4.25-.4.31.07.07.51.38.59.39,0,.01-.47.38-.6.36-.04.11.14.2.24.24.29-.01-.01-.02-.03-.04-.05l.27-.88.02-.94.42.44-.2.58.43-.08-.19-1,.6-.42.03-1.98-.75.14.75-.49-.04-2.12ZM.54,14.83l-.11-.11.11-.11.11.11-.11.11ZM.6,11.56l-.4-.86.03-1.16.45.43-.08,1.59ZM1.26,11.07l-.34-.34c.14-.08.42.2.34.34ZM4.35,12.84l-.41-.41c.2.06.35.22.41.41ZM2.89,11.73c.03.42.04.54.03.46-.02-.23-.04-.56-.03-.46ZM3.26,14.47c-.08.3-.14.49-.17.55-.03.06-.07.1-.12.13-.05.02-.21.03-.45.03.05-.06.08-.16.12-.3l.09-.38c.04-.17.07-.31.1-.41,0-.03.01-.06.02-.1l-.21.08c-.07.03-.12.05-.15.06l.11-.39c.25-.07.46-.13.63-.19.11-.04.22-.07.34-.1v.04s-.04.1-.09.26c-.03.08-.07.21-.12.4l-.09.33ZM4.73,14.13s-.1.03-.18.02c-.08,0-.18-.02-.29-.04l-.13-.03s-.03,0-.05,0c0,0-.02,0-.02,0,0,0-.01,0-.02,0l-.12.17.18.04c.19.04.34.08.47.12.08.12.1.26.07.41-.05.23-.18.42-.38.58-.2.16-.49.22-.87.17h0c.1-.04.19-.07.26-.11.08-.04.14-.08.19-.13.1-.1.17-.21.19-.33.01-.06,0-.12-.02-.16-.03-.04-.07-.08-.14-.12-.07-.04-.17-.07-.31-.11.07-.15.13-.27.16-.35l.3-.7c.12.02.24.04.35.06l.34.08c.18.04.32.05.41.03-.06.08-.13.16-.22.25-.09.09-.16.14-.2.16ZM5.03,17.88l.41-.41c-.06.2-.22.35-.41.41ZM5.77,17.23l-.11-.11.11-.11.11.11-.11.11ZM9.47,13.3l.11.11-.11.11-.11-.11.11-.11ZM8.86,15.65c-.07.04-.12.07-.14.08l.05-.4c.23-.1.43-.2.6-.28.11-.05.21-.1.32-.15v.04s-.02.11-.05.27c-.01.08-.03.22-.06.41l-.04.34c-.04.31-.07.5-.09.57-.02.07-.05.11-.11.14-.05.03-.2.06-.44.09.04-.07.06-.17.07-.31l.04-.39c.02-.18.03-.32.04-.42,0-.03,0-.06,0-.1l-.2.11ZM9.46,18.81l-.12-1.19.53.4-.41.79ZM10.57,20.28h-.22l-.11-.11.11-.11h.22l.11.11-.11.11ZM11.19,16.39c-.04.09-.15.2-.32.34-.06.05-.1.09-.12.13h-.11c-.28-.02-.48-.11-.61-.28-.13-.16-.18-.37-.16-.62.01-.15.04-.29.09-.43.05-.14.11-.24.17-.32.06-.08.15-.17.26-.27.21-.03.38-.04.52-.03.02,0,.03,0,.05,0h0c-.22.08-.38.34-.5.78.1-.05.22-.08.33-.07.15.01.27.06.36.15.09.09.12.21.11.36,0,.09-.03.17-.07.26ZM11.87,14.83l.11.11-.11.11-.11-.11.11-.11ZM12.67,18.15l-.83.57-.08-.31.37-.13.91-.91.13-.37.3.08-.8,1.07ZM17,13.19l.11-.11.11.11v.22l-.11.11-.11-.11v-.22ZM15.25,13.17c.11,0,.2.09.2.2s-.09.2-.2.2-.2-.09-.2-.2.09-.2.2-.2ZM15.6,20.29l-.39-.11.47-.38-.08.5ZM15.9,15.38c0,.08-.01.22-.01.42v.34c-.01.31-.02.51-.03.58-.01.07-.04.12-.09.15-.05.04-.19.08-.43.14.03-.07.04-.18.04-.32v-.39c0-.18,0-.32-.01-.43,0-.03,0-.06,0-.1l-.18.13c-.06.05-.11.08-.13.09v-.41c.23-.13.42-.24.57-.34.1-.06.2-.12.3-.18v.04s0,.11-.01.27ZM16.55,19.32l-.28-.75-.19-.64.63-.59-.16,1.98ZM17.55,15.15s-.03.07-.04.08l-.31.67-.06.14-.12.24-.05.1-.04.08c-.05.06-.1.12-.16.19s-.14.16-.24.27c-.09.07-.19.12-.32.15h0c.15-.17.27-.31.35-.42.09-.11.15-.2.18-.27.02-.05.05-.1.07-.14s.05-.1.08-.17c.03-.07.07-.15.1-.23.03-.08.1-.22.19-.43-.12.08-.39.14-.79.15-.1,0-.18,0-.25.02.06-.14.1-.25.14-.35.03-.09.05-.16.06-.22,0,0,.01,0,.07,0h.05s.16-.01.16-.01l.67-.04c.1,0,.22-.02.35-.03-.02.06-.06.13-.1.21Z"/><path d="M10.41,15.89c0,.33.09.53.28.6.03-.07.05-.14.06-.22.01-.22-.1-.34-.34-.39Z"/></svg>
