<svg xmlns="http://www.w3.org/2000/svg" id="a" viewBox="0 0 24 24"><path d="M2.58,20.73c.04.35,0-.05-.02-.16l.41-.41,1.14-.39-.39-.34.86-.92,2.24.46-.52.88-1.27.64c.02.15.08.55.05.35l-.48.56-.48-.06-1.54-.62Z"/><path d="M7.6,17.61l-1.63-.27.63-.78.76-.43c.17-.46.77-1.07,1.09-1.12l2.22.52-1.54,1.28-.5-.08.23.58c-.22.27-.9.49-1.26.3Z"/><path d="M9.45,13.83l1.4-1.29c.34.3.55.26.22-.13l.8-.96,2.31.5-1.38,1.34-.49.11-.05.77-1.42-.21-1.39-.12Z"/><polygon points="16.91 7.11 16.57 6.98 17.56 6.39 18.2 5.59 18.68 5.1 19.3 4.83 20.96 5.42 19.47 6.75 19.02 7.37 17.98 7.22 16.91 7.11"/><polygon points="15.37 10.78 12.96 10.36 14.68 9.27 14.8 8.5 15.98 8.22 17.63 8.63 17.32 8.95 16.27 9.93 15.68 10.12 15.37 10.78"/><polygon points="11.4 18.23 11.99 18.52 11.85 18.97 11.41 19.43 10.85 18.99 10.29 18.25 9.8 17.79 11.57 16.12 11.99 16.73 12.95 17.38 13.06 17.81 12.61 18.08 11.4 18.23"/><polygon points="12.45 10.37 12.1 10.53 11.89 10.06 11.54 8.56 12.07 8.32 13.08 7.22 13.55 6.88 14.02 8.51 14.08 8.94 13.67 9.1 12.45 10.37"/><polygon points="8.44 14.09 7.98 12.15 8.76 11.45 9.65 10.66 9.53 9.86 10.18 10.2 10.46 11.81 10.43 12.24 9.95 12.42 9.5 13.17 8.44 14.09"/><path d="M4.86,17.66l-.33-1.55.1-.69.24-.41h.66s.58-1.38.58-1.38c-.16,0,.03-.03.52-.1l.2,1.39.12,1.14-.58-.19-.26.62-1.26,1.17Z"/><polygon points="15.64 15.61 14.67 15.62 13.46 14.34 13.91 13.87 13.6 13.35 14.01 13.27 14.15 13.72 15.16 12.73 16.51 14.17 16 14.6 15.28 14.69 15.64 15.61"/><path d="M15.25,6.49l-.39-1.22.78-.06c-.29-.45-.06-.88.4-.4l.86-.88.41.47.21,1.24-1.13.89-.83.75-.31-.79Z"/><path d="M7.33,22.44l-1.08-1.11.41-.51.93-.54.09-.38.4.15,1.37,1.25-.85.41.03.51-1.01.62-.29-.4ZM7.96,21.8h-.17l-.17.17v.17h.17l.17-.17v-.17Z"/><polygon points="1.72 20.82 1.45 19.99 1.4 19.53 2.03 19.23 1.24 19.11 1.42 18.57 2.75 17.27 3.22 17.04 3.36 18.95 3.32 19.35 2.76 19.19 2.81 19.66 1.72 20.82"/><polygon points="18.12 12.4 18.68 11.45 18.04 11.88 17.61 11.81 17.47 11.22 17 11.02 17.28 10.6 18.64 9.29 19.59 10.54 19.92 10.94 19.24 11.45 18.12 12.4"/><path d="M22.24,8.93l-.83.06-.63-1.02-.54-.49.93-.7.41-.47.59.3,1,1.17-.77.31-.49-.04s-.33.57-.08.14l.4.75Z"/><polygon points="10.7 8.3 9.58 7.5 10.45 6.67 11.33 6.19 12.44 6.93 11.53 7.63 10.7 8.3"/><path d="M2.72,14.04l.92-.35.22-.61.44-.12c-.35-.4.18-.78.4-.47l.9.77-1.65,1.67-1.22-.89Z"/><polygon points="18.62 4.28 18.16 2.47 18.64 2.5 18.86 1.97 20.21 1.7 19.92 2.57 19.62 3.43 18.62 4.28"/><polygon points="6.65 11.19 6.35 10.61 6.94 10.25 7.59 9.87 7.65 9.03 8.96 9.97 8.14 10.86 7.63 11.42 6.65 11.19"/><polygon points="13.98 5 13.31 4.59 13.24 4.21 14.01 3.99 14.34 3.08 15.72 3.81 14.62 4.95 13.98 5"/><polygon points="20.69 3.98 19.9 3.91 20.4 3.52 20.82 3.13 21.38 3.35 21.64 2.77 22.01 3.22 22.29 4.41 20.69 3.98"/><polygon points=".9 17.71 .74 16.21 1.55 15.95 2.32 16.57 .9 17.71"/><polygon points="16.83 2.2 16.28 1.61 16.48 1.38 17.22 1.4 17.17 .9 17.77 .92 18.25 .71 18.47 1.17 17.29 2.32 16.83 2.2"/><path d="M.56,18.29l-.2-.55.2.55Z"/><polygon points="17.42 17.84 16.72 17.73 17.19 17.41 17.42 17.84"/><polygon points="19 15.1 18.74 14.66 19.15 14.45 19 15.1"/><path d="M11.29,22.57c.17.2.1.13-.07-.08-.37-.45-.34-.41.07.08Z"/><polygon points=".48 17.09 .48 17.27 .3 17.44 .13 17.44 .13 17.27 .3 17.09 .48 17.09"/><circle cx="17.75" cy=".41" r=".23"/><polygon points="10.75 5.43 10.75 5.6 10.58 5.77 10.4 5.77 10.4 5.6 10.58 5.43 10.75 5.43"/><polygon points="1 13.79 1.17 13.96 1.17 14.13 1 14.13 .82 13.96 .82 13.79 1 13.79"/><rect x="13.71" y="1.24" width=".17" height=".17"/><rect x="21.55" y="5.25" width=".17" height=".17"/><rect x=".82" y="15.53" width=".17" height=".17"/><rect x="8.14" y="18.31" width=".17" height=".17"/><rect x="11.8" y="19.88" width=".17" height=".17"/><rect x="3.44" y="11.52" width=".17" height=".17"/><rect x="13.19" y="18.14" width=".17" height=".17"/><rect x="18.07" y="12.57" width=".17" height=".17"/><rect x="11.1" y="3.86" width=".17" height=".17"/><rect x="21.2" y="12.22" width=".17" height=".17"/></svg>
