<svg xmlns="http://www.w3.org/2000/svg" id="a" viewBox="0 0 24 24"><polygon points="23.53 19.7 23.42 19.81 23.53 19.92 23.75 19.92 23.86 19.81 23.75 19.7 23.53 19.7"/><polygon points=".56 4.09 .67 3.98 .56 3.86 .34 3.86 .23 3.98 .34 4.09 .56 4.09"/><path d="M1.49,19.65l.93-.88c-.35.06-.83.53-.93.88Z"/><path d="M19.87,16.99l-2.07-1.93-1.74-1.6-1.43-1.14-.69.55-.66.45-.47.44-.64.59-.83-.5-.76-.12.06-.32-1.15-1.19-1.18,1.06-.95.85-1.39,1.29-1.3,1.15-1.95,2.09.57-.31.62.44.24-.14.27.27-.11.09-.05.67s-.33.27-.35.28l-2.2-.02-.22-.28c-.3.19-.48.32-.89.72l3.62-.04c0-.06.23,0,.48.1l1.99-.16.47.15,4.6-.05c.13-.01.48,0,.59.01h2.32c.18-.15.47-.18.56-.06l3.13.13.46-.38.16-.03.1.41.75-.35-.71-.16-.2-.21.7.06.37-.45.08-.28.84.8-.24.16-.7-.05.74.44,2.68-.05-.66-.64-2.84-2.75ZM7.36,18.02l-.11.11h-.22l-.11-.11.11-.11h.22l.11.11ZM7.07,15.93s-.04.2-.33.62c-.02-.04.09-.28.33-.62ZM4.46,18.02l-.11.11-.11-.11v-.22l.11-.11.11.11v.22ZM6.9,19.9l-1.08-.02h-1.32s.02-.71.02-.71l.07-.12.48-.3-.08.56.55.05,1.76.19.34.35h-.74ZM9.9,15l.42.13-.52.38.1-.5ZM8.81,19.92l-.11-.11.11-.11.11.11-.11.11ZM9.33,19.94l.32-.42.29-.27.44.13.5.41-1.55.15ZM12.57,18.57l-.1-.33.47-.36-.37.69ZM14.27,19.96l.1-.5.42.13-.52.38ZM15.17,19.14l-.11.11-.11-.11v-.22l.11-.11.11.11v.22ZM15.5,15.46h-.22l-.11-.11.11-.11h.22l.11.11-.11.11ZM17.73,19.03l-.11-.11.11-.11.11.11-.11.11ZM18.18,18.14l-.11-.11.11-.11.11.11-.11.11ZM18.51,16.91l-.11.11-.11-.11v-.22l.11-.11.11.11v.22ZM21.54,20.17l-.43-.45.54.06-.1.39ZM21.92,19.45l.36.71c-.21-.15-.35-.4-.36-.71Z"/><path d="M2.23,4.03l-.38.56.85.06-.19.49.73.73.43-.24.34.27.49.05.09.28-.04.56.49.12.61.45c.28-.15.38-.12.14.11.03.46.22.47.34-.01l.8.84c.29.13.66.43.69.55.18.35.29.54.29.54.23-.52.36-.44.24.03l.81.66.51.29.32-.34.32.86.72.92.44-.08.88,1.02c.34-.59.63-.83,1.2-.94l.41-.48.64-.94c.09.02.31.05.43.08h.39s.09-.48.09-.48l.66-.66.44-.45h.32s.3-.58.3-.58l.27.13.31-.74.55.23.94-1.1.39.09.17-.54.6-.33.48-.17.81-.64.04-.96.45.42.31-.19.84-.82-2.2-.06-1.45-.04-.59.49.02-.48h-3.32s-3.2-.08-3.2-.08l-1.5.02-1.9.17-.56-.15-2,.09-1.72-.02.62.56-.39.3.04.46c-.06-.03-.27-.15-.27-.15l-.67-.62.41-.55H.75s.67.62.67.62l.8-.23ZM19.74,3.89c.1,0,.19.08.19.19s-.08.19-.19.19-.19-.08-.19-.19.08-.19.19-.19ZM14.5,5.09l.11-.11.11.11v.22l-.11.11-.11-.11v-.22ZM13.18,4.23l.46.47-.89.14-.4.06.82-.67ZM6.58,6.94l.32.51-.45-.11.13-.4Z"/><path d="M23.04,5.54l.75.39-1.24-.18-.85.63-.93.85c-.16.33-.31.51-.67.74l-.29.65-.08.17-.48-.48-.69.99-.99.61-.37.44-.57.49c.05.44-.07.48-.22-.02l-.8.73.27.55,1.98,1.79,3.09,2.94,1.91,1.77.42-.24.4.33.32-.45-.1-1.58-.27-.37.32-.36-.1-3.71-.03-.53.15-1.31-.04-.72-.04-1.31v-.88s.03-1.35.03-1.35l-.03-1.66-.37.45-.5.64ZM18.29,13.57l-.11.11-.11-.11v-.22l.11-.11.11.11v.22ZM19.07,13.45l-.11-.11.11-.11.11.11-.11.11ZM19.96,15.24l-.11-.11.11-.11.11.11-.11.11ZM22.86,6.99l.11.11-.11.11-.11-.11.11-.11ZM22.19,17.24l-.11-.11.11-.11.11.11-.11.11ZM22.75,16.6c-.14,0-.25-.11-.25-.25s.11-.25.25-.25.25.11.25.25-.11.25-.25.25ZM23.42,15.57l-.11.11-.11-.11v-.22l.11-.11.11.11v.22ZM23.31,14.57l-.11-.11.11-.11.11.11-.11.11ZM23.57,13.47c-.36.31-.44.37-.34.29.22-.19.41-.35.34-.29Z"/><polygon points="23.41 19.16 23.87 19.46 23.8 18.69 23.41 19.16"/><polygon points=".89 18.85 1.4 18.47 .98 18.34 .89 18.85"/><rect x="23.45" y="3.9" width=".16" height=".16" transform="translate(4.08 17.8) rotate(-45)"/><path d="M.39,14.52l.32.36.11.72.38.13.53.49.29.43-.44.56.72-.14.02.44,1.68-1.62.68-.59,1.35-1.16.1-.49h.49s.86-.95.86-.95l1.18-1.18-.63.05-.06-.8-.43-.13-.54-.52-.87-.08-.39-.94-.91-.38-.61-.45-.55-.82-.97-.42-.19-.58-.45-.48-.38.29-.24-.33-.71-.65.27.7-.49.09.02-.87-.18-.41-.29.07.08.7-.02,1.16-.07,1.82.13,1.44-.12.65.06,2.73-.09,2.78.1.7-.02.65-.08.27-.02,1.96.46-.3-.04-2.17-.03-2.73ZM4.42,8.75c.09.34-.1.66-.63.65l.63-.65ZM3.57,15.35l.11-.11.11.11v.22l-.11.11-.11-.11v-.22ZM.56,14.12l-.11-.11.11-.11.11.11-.11.11ZM.45,7.54l.11-.11.11.11v.22l-.11.11-.11-.11v-.22ZM.56,13.23l.11.11-.11.11-.14-.11.14-.11Z"/><rect x="1.82" y="17.72" width=".16" height=".16" transform="translate(-12.03 6.56) rotate(-45)"/><polygon points="3.57 18.92 3.46 18.81 3.24 18.81 3.12 18.92 3.24 19.03 3.46 19.03 3.57 18.92"/></svg>
