<svg xmlns="http://www.w3.org/2000/svg" id="a" viewBox="0 0 24 24"><path d="M23.98,5.46l-1.12-.95h-2.75s-2.15,0-2.15,0l-.75-.07-3.85-.05-2.57-.04-9.19-.21c-.79.23-1.29.97-1.27,1.76v1.31s-.07,1.45-.07,1.45l-.11,5.37-.06,2.16.23.32-.18.35-.14.87.48,1.38.72.34,15.35.32.86-.04,2.78.11,2.54.02,1-1.1-.06-1.56-.28-.33.32-.34.09-3.56.2-3.64v-2.91s-.02-.96-.02-.96ZM9.19,4.64l.11.11-.11.11-.11-.11.11-.11ZM3.21,4.85h.21l.11.11-.11.11h-.21l-.11-.11.11-.11ZM6.24,17.79l-4.09-.17-.12-1.01.96-.15-.87-.29v-1.69s.06-.4.06-.4l.51-.25.57.08,3.44.1-.02,2.35-.74-.07v.36s.61-.01.61-.01l.17.52-.48.61ZM3.32,12.65l.11-.11.11.11-.11.11-.11-.11ZM5.24,11.79l.11-.11.11.11-.11.11-.11-.11ZM5.87,11.08l.09-.48.4.12-.49.36ZM6.09,12.43l-.11.11-.11-.11.11-.11.11.11ZM8.34,13.61l-.11-.11.11-.11.11.11-.11.11ZM10.47,17.88l-.11-.11.11-.11.11.11-.11.11ZM11.97,13.82l-.11-.11.11-.11.11.11-.11.11ZM13.34,18.86l.11-.38.37.46-.49-.08ZM15.81,18.73l-.11-.11.11-.11.11.11-.11.11ZM19.98,19.27l-.11.11-.11-.11v-.21l.11-.11.11.11v.21ZM20.4,18.63l-.11.11-.11-.11v-.21l.11-.11.11.11v.21ZM21.35,17.81l-2.23-.1-2.13-.08v-.36s1.92-.01,1.92-.01h1.93s.53-.03.53-.03l-.02.59ZM19.12,15.76l2.36.16c-.13.23-.21.37-.23.41l-1.93-.13-2.33-.08v-.37s2.13,0,2.13,0ZM18.97,12.94s.07-.13.07-.14c0,0,0,0,0,.01l-.07.13ZM21.04,11.36l.11-.11.11.11-.11.11-.11-.11ZM19.55,16.7l-.11.11-.11-.11.11-.11.11.11ZM21.26,17.07c-.14,0-.26-.12-.26-.26s.12-.26.26-.26.26.12.26.26-.12.26-.26.26ZM23.63,7.73l-.03,2.68-10.45-.13c-.07.45-.24.37-.27-.05l-5.5-.08-6.86-.12v-1.11s.1-2.69.1-2.69l4.86.13h.62s2.35.05,2.35.05l3.99.04.7.05,7.05.13h.63s2.86.06,2.86.06l-.06,1.05Z"/><polygon points="3.39 16.16 3.39 16.61 5.74 16.59 5.4 16.18 3.39 16.16"/></svg>
