<svg xmlns="http://www.w3.org/2000/svg" id="a" viewBox="0 0 24 24"><path d="M17.7,18.87l-.41-1.7-.3-.77-.54-1.79,4.05-3.87,1.99-1.82-2.29.84-1.55.65-1.36.85-.1-.32-.69.36-2.63,1.07-1.78.71.75-1.09.74-.88.37.18.93-1.15c.54.02,1.01-.06,1.45-.3l1.86-.57.89-.29c-1.6,0-2.71.17-4.17-.04l5.36-.48,3.75-.37-2,1.76-3.75,3.44-1.5,1.46,2.55,7.58.51,1.45-5.89-3.9-1.06-.87-.69-.53-.14-.17-.93.69-.65.45-.76.4.56-.73.64-.34.64-.46.33-.2.32.09.13.09.58.38,2.13,1.38.55.31,1.38,1.06,1.81,1.11-2.84-3.82-.75-1.07-.64-.63-.1-.66-1.36-1.54-.91-1.33,3.01.99.88,1.71.97,1.66.48,1.16.19-.17ZM17.78,19.01l-.09.27.09-.27Z"/><path d="M3.68,11.5l2.83,2.49.92.78-.39.69-.07.53-.42,1.12-1.03,2.92-.18.67-.61,2.07.68-.7,2.55-3.53.76-.84c.01-.62.5-1.11,1.02-1.34l.35-.88,1.01-1.26.61-.7-.11,2.93c-.31.29-.45.61-.5,1.09l-2.49,2.26-.81.73-1.15,1.11,2.32-1.54.64-.11-2.41,1.72-2.62,1.74-.65.45.22-.71,1.07-3.09.23-.88.26-.56,1.28-3.82-2.47-2.12L.24,9.01c-.38-.14-.27-.27.06-.28l3.82.06.61.14,1.1-.02,2.65.12-.82.3-1.48.19c.17.11-.07-.05-.36-.23l-1.94-.08-2.46-.08c-.24-.02-.23.08-.03.17l2.56,1.09,1.49.58.31-.24.33.09.08.58.54-.02.94.34.26.52.55-.25,2.5.99c.51,0,.38.33,0,.38l-2.92.57-.06-.6-.49.39-2.09-1.27-1.55-1.05-.19.09ZM3.42,11.23h.26s-.26,0-.26,0Z"/><path d="M11.59,8.23c.25.5.29.7.2.94l-.1,3.83-1.28-1.84-.25-.61.21-.54-.76-.21.32-1.15.16-1.24.61-2.7-.17-.17-.82,2.39-.85,2.35-.08-.55,1.21-3.7,1.17-3.41.42-1.51c-.07,0,.08.01.26.03l1.68,5.11.39,1.07.3,1.25.58,1.57-.61.04-.11-1-.5-1.58-.49-.39.3-.48-.38-1.07-1.19-3.28-.14,5.18.2.76-.28.88Z"/></svg>
