<svg xmlns="http://www.w3.org/2000/svg" id="a" viewBox="0 0 24 24"><path d="M12.83.41l-.2-.28.35-.1,2.04,1.66.52.99.22-.18.53.31,2.18,1.93-.46.33-.16.1-2.3,1.55-.36.3-.59-.25-.02.69-2.23,1.35.04-1.33c.71.12.51-.61.06-.59l-.05-.87-1.38-.13-1.42.1-1.98.51.25-.84-.36-.05-.2.42-.67.76c-1.29,1.04-2.53,2.2-3.14,3.77l-.38,1.46-.07,3.72-.71-.45c-.44-1.49-.64-2.66-.67-4.14.15-1.06.39-2.01.76-2.99.68-1.54,1.67-2.8,2.99-3.83l.39-.25.73.28-.09-.71,1.37-.4c-.08.09.17-.18.38-.4l3.21-.43-.18,1,.68-.65.73-.33.2-.9-.23-.89.22-.21ZM12.91.69l.25-.08c-.15.05-.38.13-.25.08ZM15.68,3.26c0-.12-.1-.21-.21-.21s-.21.1-.21.21.1.21.21.21.21-.1.21-.21ZM10.49,3.28l-.12.12.12.12.12-.12-.12-.12ZM17.87,4.83l-.48-.36.28.55.21-.19ZM15.22,6.02l-.12.12v.25l.12.12.12-.12v-.25l-.12-.12ZM3.52,9.01l-.12.12.12.12.12-.12-.12-.12ZM2.27,12.99l-.12.12.12.12.12-.12-.12-.12Z"/><path d="M20.45,6.9v-.32s.28.41.28.41l.54.82.42.92.64,3.24-.48,2.97-1.44,2.56-1.01,1.05-2.38,1.73-.45-.28-.26.54c-1.49.62-3.27.84-4.85.71l-.16,1.93-.02.78-1.1-.88-2.77-2.44.44-.68-.65.4-1.35-1.24c-.25-.19-.32-.41.13-.21l.37-.47,1.89-1.11,1.39-1.09,2.11-1.37-.05,1.1-.13,1.79c1.82.2,3.31.04,5.08-.54l-.88.73.65-.11,1.26-.59.53-.97,1.74-2.09.08-.12c.67-1.5,1.04-3.2.9-4.89l-.4-2.06-.11-.24ZM21.44,11.75l-.12.12.12.12.12-.12-.12-.12ZM20.37,14.14l-.34.29.48.29-.15-.58ZM11.48,16.22c0-.12-.1-.22-.22-.22s-.22.1-.22.22.1.22.22.22.22-.1.22-.22ZM20.64,16.6l-.47-.14-.11.56.58-.42ZM12.69,19.35l.65-.76-.11-.12-.76.77c.31.15.46.23.23.11ZM10.74,20.46l-.12.12.12.12.12-.12-.12-.12ZM8.5,20.96l-.12.12.12.12h.25l.12-.12-.12-.12h-.25Z"/><polygon points="3.01 16.13 3.02 15.88 3.28 16.23 3.41 16.6 3.58 16.78 3.45 16.92 3.25 16.73 3.13 16.35 3.01 16.13"/><rect x="16.88" y="17.01" width=".18" height=".18" transform="translate(-7.12 17) rotate(-45)"/></svg>
