<svg xmlns="http://www.w3.org/2000/svg" id="a" viewBox="0 0 24 24"><path d="M22.91,1.83l-.19.36.44.42.07-.5.28.57-.66.52.9-.17-.12,2.5-.54.72-.33.22.18.33-.91,1.34-1.18,1.47-.52.54c-.12-.18-.27-.43-.1-.15l.61-1.01-.98.88c-.58-.74-.83-1.42-.99-2.27l.34-1.06c.19-.17.5-.44.44-.39l1.33-.12c.27-.75.41-1.25.54-2.03l-1.28-1.34-.86.2-.53-.25-.1.54-.79.97.14.94v.66s-.25.37-.25.37l-1.85-.4.54-.36-.42-.13-.43.28.33-.63c.53-.47.84-.76,1.21-1.28l-1.52,1.2-.45.13c-.07-.11-.2-.32-.17-.27l-1.02-.32,1.65-1.59,1.32-1.19c.54.5.68.28.26-.26.61-.52,1.44-.92,2.11-1.1l.6.6.44-.63,1.55.51.89,1.19ZM19.88,2.34c0-.15-.12-.28-.28-.28s-.28.12-.28.28.12.28.28.28.28-.12.28-.28ZM21.9,3.78l-.12.12.12.12.12-.12-.12-.12ZM17.92,5.56l-.49-.23-.91.31,1.26.1.14-.18ZM20.69,6.92l-.12.12.12.12.12-.12-.12-.12ZM19.9,7.5c.23-.24.4-.41.3-.3-.34.34-.41.42-.3.3Z"/><path d="M23.23,2.12l-.32-.29.32.29Z"/><path d="M5.64,13.78l-.29.22-.26.16-.24.24-.24.24-.24.24-.24.24-.73.62.11.11.62-.51-1.11,1.61c0,.06-.03.59-.01.22l2.18.18.37.45-.59-.03-.11.13.88.58.08-.43c.83.48,1.43,1.54.84,2.67l-.2-.78-.27-.75c-.07,1.1-.2,1.7-.58,2.8l4.13-2.65.9-.82,1.72-1.42,3.67-3.34,1.81-1.53.24.19.34-.41.73-.2-1.74,1.65-3.45,3.3-1.84,1.54-1.58,1.31-1.33,1.12c-1.18.83-2.33,1.59-3.43,2.28l-.15.07-2.47.7-1.14-.63,1.81-.05-.65-.26-.81-.34.38-.31c1.45.49,2.3-.26,3-1.44l-.22-1.76-1.6-.84c-1.2.48-1.66.79-2.44,1.75l.62,2.06c.15-.04.1-.02-.54.13.03-.39,0-.04-.03.42-.03.04-.3.34-.29.34l-.92-2.14.23-.16.46.69.1-1.76-.56.59.05-.45.61-1.35,1.33-2.07c1.53-1.79,3.14-3.43,4.86-5.06l5.72-5.14.13.8-2.46,2.17c-1.37,1.24-2.66,2.47-3.95,3.79l-1.21,1ZM4.86,17.65l-.44-.15-1.05.07-.89.4-.34.57,1.37-.69,1.21-.05.13-.14ZM6.49,22.25l.77-.58.88-.6c.09.2,0-.02-.1-.23l-.74.6-.89.59c-.07-.19.01.03.09.23ZM5.58,22.75l.25-.38-1.65.55.08.29,1.18-.38.13-.09Z"/><polygon points="5.1 14.41 5.1 14.16 5.35 14.17 5.1 14.41"/><polygon points="4.13 15.35 4.13 15.13 4.38 15.14 4.13 15.35"/><polygon points="18.1 12.43 17.86 12.25 18.15 12 18.1 12.43"/><path d="M18.44,12.02l-.29-.02.29.02Z"/><polygon points="4.62 14.9 4.61 14.65 4.86 14.65 4.62 14.9"/><polygon points="5.35 14.17 5.35 14 5.64 13.78 5.35 14.17"/><polygon points="4.38 15.14 4.37 14.89 4.62 14.9 4.38 15.14"/><polygon points="4.86 14.65 4.86 14.41 5.1 14.41 4.86 14.65"/><path d="M5.83,18.06l-.27-.25.27.25Z"/></svg>
