<svg xmlns="http://www.w3.org/2000/svg" id="a" viewBox="0 0 24 24"><path d="M6.91,20.52c-.55.17-.57.18-.23.08l.42.06-.14.38-2.33.72-.16-.75c-.05-.07-.42-.29-.67-.39l-.68-.41.54-.92-.05-.7-.93-.45-.23-.75.84-.65.34-1.86c-.2.12.21-.13.34-.2l.48-.37-.6.07h-.41s-1.19-1.08-1.19-1.08l-1.2-.02.56-1.23-.27-.37-.52.1-.08-1.01.16-.49-.59-.19-.31-.89,1.09-.24-.17-.37.62-.25,4.39-1.43c-.05.5.71.61.43-.12l2.31-.83,1.28-.41.87-.31.21.25.24-.32,2.34-.86,1.34-.42.2.33.55-.17.05-.4,3.27-1.05.84-.35.26.93-.45.18-.06.51.3.52.72.02.2.95-.28.83c.61.11.7.3.79.68-1.03.6-1.33,1.39-1.26,2.44l.94,1.38,1.52.23.1.61c-.29.39-.38.97-.26,1.28l.73.06.2.65-.64,1.21,1.33.91-2.99.98c-.17-.03-.43-.07-.16-.03l-.13-.72c-.1-.29-.19-.57-.08-.24l-.98.86.67.02-.25.4-6.1,1.89c-.18.1-.26.09-.07-.11l-.13-.54-.6.9-2.45.78-.83.33-1.88.59.35-.69-.44-.09.1-.59.57-.67c-.22-.06-.37-.1-.25-.07l-.94,1.32-.25-.19-.23.78ZM19.16,2.83l-.1.1.1.1h.2l.1-.1-.1-.1h-.2ZM16.6,4.98l.34-.63.11-.62-.53.08-.68.18.82.19-.06.8ZM16.92,6.09l-.1.1.1.1.1-.1-.1-.1ZM17.43,15.29l-.25-.78.79-1.21c.07-1.18-.49-2.17-1.74-2.39-.53-.25-.76-.66-.96-1.41l-.16.86-.67-1.02.44-.23.2.5.18-.48.39.38.99-.48c-.17-.58-.65-1.13-1.48-1.2l-.47-1.14-1.01.34.42.93-.72.83-.08,1.4c.39.65.93,1.16,1.62,1.45l.93.41.41,1.67-.91-.76-.93.4.04.51.24.61,1.48.36.45,1.02.8-.59ZM5.78,7.41c0-.09-.08-.17-.17-.17s-.17.08-.17.17.08.17.17.17.17-.08.17-.17ZM11.16,11.34l.02-.82.35.38.92-.74c-.43-.67-.9-.99-1.6-1.14l-.25-.95-.96.32.31.99-.68.67c-.02.7.09,1.51.3,2.17l.94.58,1.14.39c.29.36.6.89.83,1.38l-.61.28-.26-.28-.19-.34-.38.12-.79.37c.22.59.59,1.07,1.11,1.29l.75.08.28.89.91-.34-.27-.86.58-.67c.58-.99.06-2.29-.96-2.78l-1.43-.62c-.03-.34-.04-.58-.08-.35ZM4.3,9.74v.06s.25-.82.25-.82l-.44.04-.47.46v.5s.25-.45.25-.45l.41.21ZM7.16,12l.49-.17.72-.4-1.09-1.12c-.4,0-.69-.25-.69-.46l-.23-.49-.35.19-.44.11.16.49-.06.58c-.62.6-.67,1-.71,1.78.21.43.57.95.95,1.39l1.35.37c.34.27.65.61,1,1.06l-.29.81-.61-.37-.37-.32-.87.38c.1.95.8,1.51,1.71,1.43l.31.95,1.01-.37-.25-.86.78-1.06-.21-1.6-.89-.83-.92-.35-.54-.09-.06-.45v-.52s-.21-.14-.21-.14c0,0-.01.04-.17.53.28.12-.21-.05-.34-.11l-.02-.62.45-.22.32.33.09.12ZM19.78,9.55l-.1.1.1.1.1-.1-.1-.1ZM18.78,11.03l.34-.93-.69.32.35.61ZM1.44,10.37l-.1.1.1.1.1-.1-.1-.1ZM21.81,11.18l-.1.1.1.1.1-.1-.1-.1ZM18.76,11.59l-.1.1.1.1.1-.1-.1-.1ZM19.37,13.02l-.1.1v.2l.1.1.1-.1v-.2l-.1-.1ZM5.08,14.16c-.08-.6-.26-.58-.3-.05l.3.05ZM21.41,14.24l-.1.1.1.1.1-.1-.1-.1ZM20.34,14.75l-.47-.34.09.46.38-.12ZM5.4,14.78l-.54.53.47.17.07-.7ZM4.49,16.28l-.1.1v.2l.1.1.1-.1v-.2l-.1-.1ZM17.64,17.09h0s0,0,0,0ZM6.54,17.73c-.3-.41-.76-.24-.35.29-.02.01.1-.09.35-.29ZM6.7,19.12c0-.06.03-.45.02-.32l-.02.32ZM12.64,18.72l-.1.1.1.16.1-.16-.1-.1ZM6.95,19.47l.02-.32c0,.06-.03.45-.02.32ZM5.87,19.62c.2-.2.34-.35.25-.26-.28.29-.35.35-.25.26ZM5.28,21.18c0-.1-.08-.17-.17-.17s-.17.08-.17.17.08.17.17.17.17-.08.17-.17Z"/><polygon points="11.18 10.52 10.76 10.81 11.16 11.34 10.55 11.31 10.54 10.27 11.18 10.52"/><rect x="7.48" y="20.59" width=".14" height=".14" transform="translate(-12.4 11.39) rotate(-45)"/><path d="M16.5,13.23l.02-.84-.02.84Z"/></svg>
