<svg xmlns="http://www.w3.org/2000/svg" id="a" viewBox="0 0 24 24"><path d="M8.64,21.94l.13-.5c-.05-.16-.06-.35-.39.24l-1.31-1.06c.41-.43.4-.42-.04.05l-1.61-1.7c-.91-1.3-1.68-2.68-2.08-4.23l-.28-2.67-.25-4.32-.16-3.08.33-.54c1.85-.28,3.4-.66,5.05-1.27l1.92-1.14,2.08-1.72,1.35,1.28,3.08,1.8.64.23,4.23.85-.17,3.1-.43,5.2c-.09,1.87-.54,3.58-1.49,5.28-1.25,1.85-2.88,3.32-4.71,4.56l-2.24,1.47-.12-.95c-.02-.12-.39.28-.32.35l.15.82-3.38-2.06ZM10.09,21.27l1.98,1.19,4.35-3.14,1.85-2.33.51-.08-.15-.42.78-3.17.57-7.87-3.79-.91-3.79-2.24-.44-.4-.4.29c-2.21,1.72-4.6,2.8-7.51,3.18l.15,2.83.1,3.67.08.54c.08,1.72.51,3.36,1.37,4.85l-.24.97.55-.54.24.41c1.15,1.17,2.42,2.23,3.78,3.17ZM10.06,2.16l-.12.12.12.12.12-.12-.12-.12ZM8.01,3.5s-.11-.11-.11-.11l-.53.54.37.11.27-.54ZM20.27,4.95l-.12.12.12.12.12-.12-.12-.12ZM20.51,7.04l-.12.12.12.12h.23l.12-.12-.12-.12h-.23ZM20.04,10.29l-.12.12.12.12.12-.12-.12-.12ZM18.43,18.11c.26-.21.35-.7.26-.95l-.26.95ZM17.2,19.69l-.44-.13-.1.52.54-.39ZM14.65,21.78l-.44-.13-.1.52.54-.39Z"/><path d="M7.99,13.79l-1.31-1.3,1.6-1.7,1.21,1.44c-.32.49-.24.76.15.16l1.08,1.02,2-2.16,1.01-1.42.82-.35.12-.53,1.31-1.57,1.66,1.68-2.03,2.24-3.51,3.91-1.29,1.47-.86-.97c.28-.32.21-.36-.12-.08l-1.63-1.6c.42-.42.31-.68-.2-.25ZM16.56,9.59l-.12.12.12.12.12-.12-.12-.12ZM15.63,10.29l-.12.12v.23l.12.12.12-.12v-.23l-.12-.12Z"/></svg>
