<svg xmlns="http://www.w3.org/2000/svg" id="a" viewBox="0 0 24 24"><path d="M12.47,14.52l.36.25-.02,1.66-.29.34.33.27-.09,2.3c-.37.13-.35.43.05.44l.02,2.66-.5-.35-.63.12,1.11.67-.23.15-.57-.24-.72-.19-.92-.49c.13-.65-.34-.55-.43-.07l-.9-.34-1.11-.46-3.08-1.18.02-.74-.68.45-1.36-.53-2-.72-.8-.33.04-2.83.05-1.99v-.95s-.06-2.76-.06-2.76l.21-.4-.29-.39v-3.1s.81-.36.81-.36l3.97-1.64,3.47-1.53,2.7-1.3,4.06,1.24-.89.26-.43-.29-.14.33.8.12.21.33c-.24-.02-.41-.04-.18-.02l-.25-.17-1.44.41-.63.36-1.52.68-.07.31-.83.19-1.91.9-1.35.65-1.28.54-.45.2-.45-.23-2.88-1.03-.73.07-.17.5v1.29s.81-.85.81-.85c.18.09.14.07-.46-.24l.19-.37,3.7,1.36-.02,3.33.34.05c.02-.08.11-.39.05-.19l1.18.16c-.07-.08.2.24.23.28l.4-.09.13.5.74.16.23-.42.08-2,.05-.68,2.29.88,2.48.72.07,3.75-.22.44-.22.11ZM9.72,2.08l1.61-.52-.3-.29-1.96.99.34.12.31-.3ZM12.36,1.91l-.11.11.11.11h.23l.11-.11-.11-.11h-.23ZM8.73,2.36l-.11.11.11.11.11-.11-.11-.11ZM7.75,3.8l-1.15-.05c-.04.15.28.5.33.38l.82-.33ZM2.47,5.36c.18-.21.31-.35,0,0-.54.12-.48.11,0,0ZM12.53,10.57l-.89-.33-.58-.13.53.48.57,1.13.22,1.15.14-2.3ZM11,11.44l-.11.11.11.11.11-.11-.11-.11ZM12.31,14.44l.09-.31-.09.31ZM.79,14.62l-.11.11.11.11.11-.11-.11-.11ZM2.29,18.33l-.46-.07-.79-.64.78-.09-.34-.65.86-.79-.2-.14-.87.85-.25-1.2-.17.56v.98s-.38-.46-.38-.46l-.2,1.18,1.83.69.18-.22ZM11.53,18.81l-.82-2.12-.75,1.48.32,1.4.07,1.17-.83-.24-1.26-.54.03-.1.62-.12.03-1.48.4-.34-.7-1.62h-.32s-.82,1.21-.82,1.21l.55.41.09,1.91-.46.12.16.41,1.25.53,1.85.71.52.1.05-.43-.73-.42c-.16.06-.2.07.23-.08l.05-1.56.46-.4ZM2.39,18.44l-.18.19.39.09.11-.13-.32-.14ZM5.55,18.47l-.11.11.11.11h.23l.11-.11-.11-.11h-.23ZM2.82,18.81h.29s-.29,0-.29,0ZM7.82,20.74l-.11.11.11.17.11-.17-.11-.11Z"/><path d="M14.58,8.84l-.62.1.62-.1Z"/><path d="M14.58,8.84l.19-.59-.72.18-.68.31-.91.3.46.5.34-.36.42.14-.91.32-3.29-1.11-.92-.39.19-.35,2.46-1.08.2-.49.45.27,1.49-.84c.38.1.72-.17.76-.46l.82-.38,2.75-1.31.64-.28,5.25,1.62.4.33-.14.38-.02,1.13-.06,6.02-.24,1.25-.16.53.36.42-.06.84-.13,1.72-.84.56-.74.26-1.11.67-1.05.55-1.26.74-.72.36-1.03.54-.67.52-.8.34-1.26.78-.7.25.03-3.45.2.13.02,2.93,1.86-.92.53-.37.99-.58,1.53-.97.67-1-.15.82.92-.48.77-.59.93-.41.98-.56.76-.32-.19-2.05c-.02-.4,0-.95.08-1.37l.1-2.89.24-.55-.34-.6.29-.72v-3.42s-.83.33-.83.33l-.66.28-.58.36-1.76.96-.02,2.84c-.24.15-.74-.03-.2-.34l-.1-2.7,3.35-1.78.66-.52-1.38.13-1.6.86-.71.17-1.04.59-.72-.15s.02.03.22.36l-2.01,1.07-.51.18-1.09.52ZM22.12,4.92l-.56-.47-1.17.58c-.1.07-.1.55,0,.55l1.72-.65ZM16.86,6.13l-.84-.44-.43.55,1.26-.11ZM15.54,7.81l-.11.11.11.19.11-.19-.11-.11Z"/><path d="M13.97,8.94l-.27.38.27-.38Z"/><path d="M16.21,16.78l-.59.27-.61.33-.21.79-.07-1.82,3.11-1.59s.36.37.36.37v1.78s-.14.47-.14.47l-.25-.11.08-1.3-1.17.52-.5.29ZM17.83,15.16l-.93.49.19.36.93-.49-.19-.36ZM16.25,16.32c-.24-.07-.03,0,.29.09.07-.21-.25-.48-.42-.39-.59.26-.79.37-.99.85l1.12-.54Z"/><path d="M13.84,11.77v4.38s-.45.29-.45.29v-5.75c.08-.29.48-.63.74-.71l.77-.43,1.55-.75.72-.35,1.87-.96-.04,1.31-.29-.82-.49.38-3.5,1.71-1.09.71.21,1Z"/><path d="M15.73,19.11l.18.72.07.48.45-.17.4-.2-.27-.45.16-.89.43,1.18.56-.23.02-1.53.47.1-.21.49s.12.14.18.21l-.21.27-.08.79-.76.24-.97.6-.67.2.07-.53c-.14-.34-.06-.93.2-1.29Z"/><polygon points="13.5 18.02 13.84 18.94 13.74 19.4 13.36 19.24 13.4 16.59 13.9 16.93 13.5 18.02"/><polygon points="15.02 20.66 15.22 21.07 14.78 21.43 14.73 19.72 14.91 19.59 15.02 20.66"/><polygon points="15.48 2.46 15.77 2.48 16 2.57 16.56 2.67 16.7 2.74 17.82 3.16 17.05 3.15 16.55 2.94 16.44 2.83 15.88 2.73 15.48 2.46"/><path d="M6.23,7.6l-.61-.13.68-.15.18.37c.47.01.32,0-.04,0l-.21-.09Z"/><polygon points="13.04 5.33 12.42 5.2 13.08 5.05 13.29 5.32 13.31 5.58 13.04 5.33"/><polygon points="14.18 21.65 14.4 21.65 14.52 21.76 14.4 21.88 14.18 21.88 14.06 21.76 14.18 21.65"/><polygon points="15.99 17.56 16.1 17.68 16.1 17.91 15.99 18.02 15.88 17.91 15.88 17.68 15.99 17.56"/><polygon points="11 4.63 11.23 4.63 11.34 4.75 11.23 4.86 11 4.86 10.89 4.75 11 4.63"/><polygon points="7.37 7.81 7.6 7.81 7.71 7.92 7.6 8.04 7.37 8.04 7.26 7.92 7.37 7.81"/><rect x="14.78" y="18.51" width=".16" height=".16" transform="translate(-8.79 15.95) rotate(-45)"/><rect x="20.68" y="17.82" width=".16" height=".16" transform="translate(-6.58 19.92) rotate(-45)"/><rect x="5.25" y="7.16" width=".16" height=".16" transform="translate(-3.56 5.89) rotate(-45)"/></svg>
