<svg xmlns="http://www.w3.org/2000/svg" id="a" viewBox="0 0 24 24"><path d="M17.63,19.27l-.39.33.35.27-.08,4.13-3.21-.45-3.62-.5-.73-.31-.33.23-2.8-.42-.25-.37-.28.28-3.5-.47-.5-.34.25-2.2.54-.17-.5-.38.15-.54.12-1.1.17-2.71.8-8.43,2.33.02.33-.04.27.62-.4.76.73.72.75-.75-.26-1.28h5.92s-.16,1.52-.16,1.52l.61.59.57-.45.27-.35-.22-.38-.07-.91,3.06-.03.47.47-.24,7.87v.73s-.13,4.07-.13,4.07ZM17.51,8.53l.15-1.95-.8.1c-.27.08-.56.32.14.22l.26.67.25.97ZM4.08,7.59l-.19.11.19.11.11-.11-.11-.11ZM10.31,7.93l-.42-.13-.1.51.52-.38ZM10.16,20.1l.33-.47.21-.11.21.54h.26s.1-.6.1-.6h.51s.34-.66.34-.66l-.24-1.28,1.32.12.99-.64-.29-1.11.11-1.48.41-2.78-1.38-1.69h-.46s-.52,1.43-.52,1.43l.67.05-1.32,1.6.12-.91-.34-.4,1.26-2.09-2.39-.49-1.44.65c-.11.15-.36.48-.34.46l.56.8c.06-.04-.15.09-.31.2l-.68-1.2c-.47.68-.79,1.34-1.12,2.17l.13,1.41-.1,1.06.2.76-.7,1.06.88.75.94.27.08.67-.39,1.21.5.03c.08-.45.26-.45.24.05l.39.22c.08-.61.24-.44.26-.07l.34.44.42-.88.26.92ZM17.31,9.16l-.11.11.11.11.11-.11-.11-.11ZM6.27,9.5l-.42-.13-.1.51.52-.38ZM5.52,14.89l.24-.83-.63.15-.23,1.03.62-.36ZM15.79,17.68l-.29-1.15-.47.32-.31.45.53.68c-.14.08.13-.07.54-.31ZM5.53,18.37l.13.98,1.43-1.74-1.07.69-.16-.48c-.24.4-.4.67-.32.55ZM4.19,19.26h0s0,0,0,0ZM12.94,21.09l.83-1.01.24-.25-.25-.36-.83.78v.84ZM3.66,21.27l-.39-.66-.3-.54-.2,1.45,1.49.15-.61-.4ZM7.21,21.6l.83-1.28-.87.57-.55-.21.6.93ZM10.94,22.45l1.3-1.31c-.72.2-1.24.6-1.3,1.31ZM17.14,22.53l-.43-.09-.5.97.6.04.33-.92ZM13.95,22.85l-.11.11.11.11h.22l.11-.11-.11-.11h-.22Z"/><path d="M13.2,1.8l-.95-1.02-1.79-.45c-1.12.44-1.82.96-2.47,1.91l-.63,2.3-.04,2.83-.46-.08-.03-.57.1-2.19.15-.99c.2-1.14.88-2.19,1.75-2.92l.96-.44c.95-.31,1.93-.17,2.75.39l1.13,1.18.49,2.05.04.75.09,1.64-.28.43.27.47-.34.32-.25-.55c-.1.12-.04.04.16-.19l-.03-2.36-.62-2.47Z"/><path d="M20.96,20.95l.46.34-.13-1.23-.42-.03-.14-.56.49.15.02-1.13-.62-.69.32-.4-.25-2.76-.32-2.78v-1.42s-.23-.47-.23-.47v-1.97s-.21-.49-.21-.49l-.05-1.74-.7.22-.3.26-.37-.13.51-.21-.14-.36-1.56.02-.12-.22,2.01.05.5-.08c.08-.03.42.58.47.82l.13.62.08,1.87.18.25.07,1.76.16.75.29,3.53.1.51.49,4.27.07,2.19-.56.16-1.24.74-1.95,1.01v-1.29c.24-.04.47-.07.2-.03l.42.67,2.02-1.01.64-.54-.48-.45-.11-.1-.15-.11-.09-.09-.17-.12-.08-.08-.19-.13-.06-.05-.5-.45-.18-.17.13-.11.18.13.56.34.1.13.14.11.09.09.17.11.07.07.17.14.07.06Z"/><path d="M16.51,5.2l-.07.38c-.14.07-.42.22-.26.14l-.22-1.13-.16-.95-.22-.69c-.36-.88-.98-1.6-1.9-1.89l-.82-.68c.95.16,1.3.36,2.07.77l1.27,2.13.18,1.31.13.62Z"/><polygon points="10.06 5.5 9.34 5.57 9.37 3.18 9.6 2.65 10.01 1.94 10.67 1.23 11.68 .87 10.65 1.74 10.04 2.62 9.84 3.19 9.76 4.82 9.55 5.23 10.06 5.5"/><path d="M8.74,5.4c-.09.58-.66.58-.8.05l.8-.05Z"/><path d="M15.63,5.5l-.91-.05.91.05Z"/><path d="M6.66,5.74l-.67-.06.67.06Z"/><path d="M20.52,15.84l-.35-.35c.15-.08.43.2.35.35Z"/><polygon points="18.88 16.79 19.11 16.79 19.22 16.9 19.11 17.02 18.88 17.02 18.77 16.9 18.88 16.79"/><rect x="13.2" y="5.38" width=".16" height=".16" transform="translate(.03 10.99) rotate(-45)"/><polygon points="20.9 19.04 21.04 19.15 20.9 19.43 20.79 19.15 20.9 19.04"/><polygon points="12.55 16.12 11.64 16.21 10.66 14.61 12.81 13.94 13.26 15.57 12.55 16.12"/><polygon points="8.95 15.85 8.01 16.27 7.23 14.64 8.03 13.91 9.38 14.42 9.56 15.1 8.95 15.85"/><polygon points="10.57 17.6 9.91 17.14 9.45 17.45 9.25 17.13 9.48 16.72 10.15 15.54 10.69 16.84 10.57 17.6"/><rect x="13.42" y="13.46" width=".16" height=".16" transform="translate(-5.62 13.51) rotate(-45)"/><polygon points="13.95 11.86 14.16 11.97 13.95 12.08 13.84 11.97 13.95 11.86"/></svg>
