<svg xmlns="http://www.w3.org/2000/svg" id="a" viewBox="0 0 24 24"><path d="M15.41,20.92l.35-.69.48,1.27-.38,1.5-.59-.37-.17.38-.64.69-.57-.44-.18.62-1.11.07-.35-.71-.21.6-.58.17-.6-.06-.21-.65-.29.24-.58-.17-.46-.18v-.52s-.93.13-.93.13c-.29-.9-.33-1.59.1-2.57l.63,1.1c.06.42.15.33.17-.02l.39-.62.5.28.21,1.57.99-1.86.62.88.05.85c.06.16.2.5.2.49l.65-2.2.8,1.07.17.75.59-1.86.73,1.28.24-1.01Z"/><path d="M6.6,19.02c-.04.12.04-.13.08-.23l.23.24.14,1.01.28-.25.28.29.32,1.46c0,.3-.59.66-.41-.15l-.45-.06-.39-.27.18-.67-.25-1.15-.02-.23Z"/><polygon points="17.1 21.62 16.26 21.98 16.67 20.19 17.2 19.51 17.42 21.02 17.1 21.62"/><path d="M5.34,17.43l-.27-.27.27.27Z"/><polygon points="19.19 17.21 19.16 16.97 19.37 16.98 19.19 17.21"/><polygon points="19.19 17.21 18.78 17.71 18.68 17.17 19.19 17.21"/><path d="M19.55,16.65l.46-.52-.51-1.45c-.22-.35-.38-.33-.29.05l-.05,1.01.58-.15-.47,1.02-.11.36-.48.21c-.21.17-.48.42-.35-.12l-1.68-.07-1.01,1.03.12.18.69-.55-.6,1.23-.14,1.01-.63-.61c-.24-.2-.4-.21-.1.15l.16.84-.5.2-.54-.43-.36.63-1-.21-.49.5-.71-.56-.84.35-.16-1.11c-.16-.31-.39-.37-.24.09l-.22.51-.8-.03-.52-.6-.43.18.31-.58-.59-.64-.15-.35.27.06.29-.03-.45-.48c-.57-.35-1.31-.44-2-.06l-.67-.26.61.06.3-.49-.56.21-.47-.27-.15.22-.95-.96-.25-.99,1.01-.91.13-2.03-.35-.34.25-.35c.48-.73.98-1.74,1.12-2.49l-.92-3.02-.15,2.52-.21,1.61-.43.56-.11,1.23c-.16.3-.63.28-.5-.08-.56-2.1-.54-3.76.08-5.73l.55.21.23-.79-.48-.25,1.98-2.85,1.12-.86c.94-.61,1.94-1.06,3.03-1.48,1.14-.17,2.19-.21,3.31-.08l1.63.57-.44,1.7-1.31.66-1.82,1.23,1.07-.12c.13.37.2,1.26.09,1.62l-.55,1.43c.46-.53.72-.98,1.07-1.62l-.19-1.81,1.6-.93.75-.06c-.27-.83.02-1.43.72-1.78,1.99,1.13,3.35,2.78,4.11,4.93v1.12s.41.54.41.54v1.43s.04.97.04.97l-.25,1.3-.18-2.4-.26,1.21-.21-.59-.09-1.42-.31-.66-.07-.59-.38.21-.14,2.08-.27.06-.38-.73-.24-.39-.41.36.88.94,1.37,2.22-.24,1.19c-.08,1.02.05,1.84,1,2.59l-.94,1.3ZM8.72,1.47l-.12.12.12.12.12-.12-.12-.12ZM6.84,2.65l-.12.12.12.12h.23l.12-.12-.12-.12h-.23ZM18.34,3.16c-.72,0-.79,0-.77,0l.32.71.46-.72ZM17.85,4.8c-.03-.26-.03-.35,0-.1.06.61.06.65,0,.1ZM4.73,4.99l-.15.12.15.12.12-.12-.12-.12ZM5.44,5.23l-.12.12.12.12.12-.12-.12-.12ZM18.69,6.04l.59.4.13-.44-.73.04ZM11.26,9.19l.41-1.33-.39.17-.14.43-.71-.16.84.9ZM13.72,8.98l.53-.09-.12-.42-.41.5ZM7.55,9.69l-.12.12.12.12.12-.12-.12-.12ZM15.79,14.56l1.03.29-.58.45c.7.12,1.37-.06,2.15-.57l.29-1.99.12-1.29-2.03-1.29.36-.56-.56.29-1.87.91-.94.6-.63-.54-.25.34.13.39.15.43.36-.23.23,1.51-.18.59.18-.09.16-.4c.57,1.02,1.17,1.52,2.22,1.86l-.05-.38-.43-.12-.22-.22.24-.09.13.11ZM10.7,14.16c.28-.65.48-1.48.6-2.24.38-.36.53-.99.17-1.42l-.37.97-.82-.41-1.23-.7-1.16-.4-2.29,1.75.36.68.05,2.14,1.33,1.02.96-.36-.97-.23.8-.16,1.15-.5-.22.81,1.42-.8-.13-.13-.31-.11.58-.93.14.42-.3.44.22.15ZM13.83,18.69l.41-2.04-.71-1.38.17-.3-.17-.34-.28-.73-.5-.2-.36.23-.78-.28-.4,1.2-.88,2.68.28.72.44.3.55-.32.63-.69,1.6,1.14ZM13.95,13.85l-.22.21.29.43-.07-.64ZM5.08,15.55l-.02-.97-.2.26-.24.4.46.32ZM17.12,16.21l-1.24-.41-.57-.23-.03,1.12.9-.11.94-.37ZM9.27,16.14c-.54-.45-.93-.34-1.36-.2l-.54.35,1.9-.15ZM9.81,19.55c0-.14-.12-.26-.26-.26s-.26.12-.26.26.12.26.26.26.26-.12.26-.26Z"/><path d="M19.37,16.98l.18-.33-.18.33Z"/><polygon points="4.03 12.74 4.14 12.86 4.14 13.09 4.03 13.21 3.91 13.09 3.91 12.86 4.03 12.74"/><rect x="20.15" y="11.37" width=".17" height=".17" transform="translate(-2.17 17.66) rotate(-45)"/></svg>
