<svg xmlns="http://www.w3.org/2000/svg" id="a" viewBox="0 0 24 24"><polygon points="21.39 6.26 21.68 6.33 21.23 6.74 21.39 6.26"/><path d="M21.68,6.33l-.29-.06-.31.14-.67.08.53,1.03.18-.27c.09-.27.14-.4.13-.39.78,1.18.69,2.25.59,3.54l-.74,2.25.02.07.28-.04,1.44,1.44.12.33-1.58-.71-.32-.19.09-.67-.22-.19-.07.17-.61,1.06-2.4,2.54.66,1.12.76,1.69.16.09-.14.21-.14-.19-1.31-1.33-.58-.85.68.21-.33-.75-1.78,1.47-.71.81.64,1.42-.52-.46-.38-.74-.7.82-1.57,2.26c-.05.4-.13.26-.14,0l-.44-.87.21-.11-.08-.41-.89-1.14.33.85.27.57-.51-.48-1.55-1.76-.55-.41-.22.06.28.57-1.59,1.51,1.2-2.51-2.02-1.63-.44-.54-.08-.8-.31-.3-.94,1.42.86-.36-.17.39-2.63,1.57.82-1.21,1.41-1.77c-.88-.89-1.52-1.91-1.8-3.02l.14-.36-1.42.11.2.13,1.03.09-.7.18-2.85-.17,3.06-1.17.07-.03c-.16-1.15.11-2.25.61-3.44l1.71-1.72-.02-.25-.7-2.18-.09-.07-.13-.54.34.35.04.12,1.6,1.7-.78.16.07.45.21.46.97-.56.11-.49c1.1-.13,1.93-.05,2.75.41l.35-.69.07.3-.1.44.37.16.91.82-.4.06.57.57.05-.41.53.42.32.53.08-.1.15-.37,1.27-1.27-.19-1.11.63.86c.85-.48,1.81-.73,2.96-.67l.94-1.41.66-.92.65-.74-.56,2.03-.39,1.17,1.92,1.23.59-.48,2.22-1.19-1.73,2.04ZM18.47,4.66l.15-.99-.86.91.71.08ZM17.02,12.89l.55.35,1.24.85,1.36-1.64c-.08-.16-.05-.47.14-.47l.72-2.05c-.09-.95-.3-1.88-.6-2.69l-.97.78-.18-.19,1.05-.72c-.54-.73-1.21-1.15-2.29-1.58l.57-.31-.03-.22-.4-.03-.37.43-.76,1.51-.15-.32.21-.28.22-.81h-1.22c-1.27.36-2.28,1.12-3.14,2.13l-.32.35.15.62-.32-.17-.32.52-.21.52-.16-.14.43-1.41c-.58-.86-1.01-1.32-2.07-1.88l.11-.47-.57-.41c-.27.3-.32.36-.3.34l.33.26-.26.09-.09-.17-2.73-.02.5,1.28.12.6-.83-1.19-.33-.3-.35.21c-1.35,1.04-1.84,2.67-1.59,4.35l.2.96.25.76,1.47,2.15,1-.83,1.34-.72-1.43,2.12.3.57c-.14.22-.14.37.15.06l2.07,1.83-.47.38.45.29.11-.39,1.09-1.18c-.18.52-.32.75-.68,1.34l1.7,1.77.58.85.42.21.05-.45,1.82-2.08-.4-1.25.41.4.36.56,3.22-3.04-.68-.98-.56-.9-.21-.13.23-.12.1.12ZM15.44,5.09l-.1.1.1.1h.2l.1-.1-.1-.1h-.2ZM14.66,5.48l-.1.1.1.1.1-.1-.1-.1ZM13.38,6.58h.2s.39-.41.39-.41l-.1-.1-.49.51ZM4.02,7.81c.26-.37.32-.5.29-.54-.21.3-.31.51-.29.54ZM12.63,7.47l.1-.18-.1.18ZM21.31,10.18l-.1.1v.2l.1.1.1-.1v-.2l-.1-.1ZM3.33,10.75l-.12.12-.25.38.87-.34-.5-.16ZM20.81,12.62l.04-.62-.23.04-.61,1.5.72-.8.08-.13ZM4.67,13.12l-.1.1.1.1.1-.1-.1-.1ZM18.3,15.51l.93-.94c-.56.13-.93.41-.93.94ZM17.5,16.41l-.09-.35-1.09,1.08.09.08.33-.17.76-.64ZM14.55,18.76c.47,0,.64-.27.56-.57l-.56.57ZM13.23,20.54c.26-.37.32-.5.29-.54-.21.3-.31.51-.29.54Z"/><path d="M11.62,6.29l-.22-.22.22.22Z"/><path d="M12.01,21.36l-.15-.23.15.23Z"/><polygon points="24 10.28 22.43 10.58 22.6 9.83 24 10.28"/><polygon points="3.12 8.03 2.16 7.12 2.45 6.99 3.21 7.74 3.12 8.03"/><polygon points="19.32 15.62 19.4 15.51 19.58 15.62 20.11 16.03 19.51 15.91 19.32 15.62"/></svg>
