<svg xmlns="http://www.w3.org/2000/svg" id="a" viewBox="0 0 24 24"><path d="M15.47,9.8l-.37-.09.37.09Z"/><path d="M23.08,13.06l-.21.39-2.98,2.1-1.96,1.07c-2.23.95-4.54,1.51-6.89,1.39l-.39-.05c-2.37-.2-4.6-1.03-6.68-2.24l-1.9-1.38-1.06-1.04.14-.74-.45.51-.49-.26,1.1-.95c2.04-2.04,4.55-3.4,7.32-4.29l4-.53,1.2.66c.3.35.78.55,1.08.51l-.65-.54.13-.27c2,.59,3.54,1.22,5.21,2.2l1.22.87,1.54,1.29.84.78.46.51c.09,0,.08,0-.58.02ZM11.77,7.55l-.12.12.12.12.12-.12-.12-.12ZM15.1,9.71l.12.71.25-.62.48.46c.65,1.51.53,3.14-.25,4.57l-.64.67-.09.12-1.13.87.27.06,2.75-.75c1.67-.65,3.12-1.57,4.42-2.8l.32-.24-.11-.38c-1.64-1.38-3.34-2.48-5.18-3.28l.46-.4-.72.29-2.69-.66-4.49.31.12-.78-.98,1c-1.47.66-3.08,1.45-4.43,2.45l-1.58,1.38,1.42,1.11.24-.51.79,1.1c.28.3.85.7,1.29.96l1.99.79,2.85.56c-1.09-.69-1.9-1.21-2.68-2.06l-.67-1.72c.06-1.04.26-1.9.71-2.76l1.16-.84-.51,1.43c-.75,1.65-.12,3.33,1.28,4.48l1.53.59.4.08.29.7.18-.64c-.19.07.34-.12.61-.22l1.48-.82c.9-1.12,1.23-2.37.98-3.8l-.88-1.49.67.09ZM6.49,8.85l.41.12.09-.53-.5.41ZM5.3,9.9l-.51-.29-.35.48.86-.19ZM19.4,10l-.54-.39.1.52.44-.13ZM7.89,11.3l.14-.14-.14.14ZM2.46,11.51l-.12.12.12.12h.23l.12-.12-.12-.12h-.23ZM21.66,11.96c-.07-.21-.23-.38-.44-.44l.44.44ZM14.64,15.23c.28.37.36.33.21-.16l-.21.16ZM5.02,15.47l-.12.12v.23l.12.12.12-.12v-.23l-.12-.12ZM17.15,16.41c.56-.32-.06-.19-.12-.09-.27.32-.11.27.12.09ZM7.45,16.74l.59.4.13-.44-.72.04ZM15.03,16.87l-.12.12.12.12.12-.12-.12-.12ZM11.72,17.85c.03-.45.04-.58.03-.49-.02.24-.04.6-.03.49Z"/><path d="M12.53,6.48l-.78-.2c-.2.12-.78.02-.6-.12l.3-2.58.27-2.79.31.4.12,1.93.13.47.25,2.87ZM12.16,5.12l-.5-.41.09.53.41-.12Z"/><path d="M7.15,4.91l.71,1.08.55.86-1.36.46-1.5-5.14.38.36.81,1.54.41.83ZM7.35,6.16l-.12.12.12.12.12-.12-.12-.12Z"/><path d="M17.33,5.42l-.66,2.04-1.2-.46,1.26-2.25,1.24-2.11.27-.21-.37,1.52-.54,1.47ZM16.43,6.16l-.12.12v.23l.12.12.12-.12v-.23l-.12-.12Z"/><polygon points="17.8 21.38 17.34 20.21 16.84 19.87 15.65 18.15 16.46 17.88 16.9 17.72 17.17 18.09 17.7 20.11 18.35 21.67 18.05 21.76 17.8 21.38"/><polygon points="12.15 20.83 12 21.99 11.75 23.2 11.54 21.63 11.15 18.81 11.86 18.63 12.5 18.85 12.15 20.83"/><polygon points="6.1 21.1 5.36 22.03 5.71 20.94 6.01 20.07 6.65 18.17 6.88 17.78 7.23 17.91 7.3 18.59 7.59 18 8.02 18.14 7.76 18.55 6.57 20.44 6.17 20.59 6.1 21.1"/><path d="M20.46,9.11c.09,0-.48.03-.48.03l-.64-.53,1.34-1.11,2.23-1.82-1.56,2.27-.88,1.16ZM20.85,7.79l-.12.12.12.12.12-.12-.12-.12Z"/><path d="M1.02,6.18l.02-.35c.22.18.31.26.3.25l1.48,1.23,1.62,1.27-.96.68-.44-.55-.58-.88c.55-.41.41-.3-.02.01l-1.28-1.57-.13-.11ZM3.39,8.25l-.12.12.12.12.12-.12-.12-.12Z"/><polygon points="22.21 18.54 20.75 17.33 19.66 16.62 20.64 15.79 21.17 16.75 21.02 17.13 21.65 17.39 22.36 18.37 22.53 18.48 22.51 18.82 22.21 18.54"/><polygon points="2.68 16.82 2.32 17.43 2.61 17.76 .89 18.85 2.39 16.9 3.1 16.02 4.02 16.5 2.95 17.43 2.68 16.82"/><path d="M9.91,18.73l-.62.02c-.05.08-.09-.55-.02-.48l.68.28.22.18v.24s-.26-.25-.26-.25Z"/><polygon points="14.08 18.97 13.97 18.61 14.56 18.35 14.71 18.67 14.21 18.83 14.4 19.02 14.27 19.13 14.08 18.97"/><polygon points="22.69 11.32 22.69 11.03 23.86 10.27 23.92 10.6 22.69 11.32"/><polygon points=".11 10.58 .08 10.35 .38 10.55 .9 10.82 1.11 11.1 1 11.23 .81 11.07 .29 10.81 .11 10.58"/><polygon points="1.1 14.46 .58 14.75 .47 14.65 1.12 14.04 1.1 14.46"/><rect x="17.72" y="17.05" width="1.41" height=".31" transform="translate(-5.75 10.06) rotate(-26.57)"/><polygon points="22.71 14.31 22.94 14.31 23.06 14.42 22.94 14.54 22.71 14.54 22.59 14.42 22.71 14.31"/><polygon points="18.05 7.55 18.29 7.55 18.4 7.67 18.29 7.79 18.05 7.79 17.94 7.67 18.05 7.55"/><rect x="5.17" y="7.36" width=".16" height=".16" transform="translate(-3.72 5.89) rotate(-45)"/><rect x="21.46" y="15.27" width=".16" height=".16" transform="translate(-4.55 19.73) rotate(-45)"/><rect x="4.7" y="17.13" width=".16" height=".16" transform="translate(-10.77 8.43) rotate(-45)"/><polygon points="10.08 12.06 9.95 11.48 9.29 11.45 9.05 10.96 10.16 9.55 11.21 9.72 11.66 10.6 12 11.66 11.06 12.36 10.08 12.06"/><polygon points="13.4 12.68 13.51 12.79 13.51 13.03 13.4 13.14 13.28 13.03 13.28 12.79 13.4 12.68"/></svg>
