<svg xmlns="http://www.w3.org/2000/svg" id="a" viewBox="0 0 24 24"><path d="M17.4,5.67h0s0,0,0,0Z"/><path d="M20.31,6.21l-.36-2.54-.13-.95-1.21-1.03-2.16.33-2.45.41-2.21.27-.4.55-.1-.48-1.08.24-6.2.97-.56,1.03c-.09.25-.18.65-.2.91l.19,1.24.24,1.82.33,2.33.25,1.63.71,5.03.97,1.01.7.46.89.75-.04-.62c.03-1.36.63-2.47,1.67-3.3l.64-.49,2.85-1.13c-.02-.25.2-.28.4-.07l2.91-.75,2.15-.51.79-.12,2.33-.44-.49-3.31-.2-1.69-.2-1.29-1.25-.38.17-.24,1.07.34ZM18.05,2.24l.09.09-.09.09-.09-.09.09-.09ZM7.97,6.84l.19.59-.21.14.02-.72ZM4.55,8.34l.22-1.31-1.07-.72,1.2-.28.26-1.38.18.37.49.96,1.04-.17-.79.96.39.57.12.67-1.01-.65-1.03.99ZM5.7,17.6l-.1.36-.44.06.79-.87.1.11-.35.34ZM8.1,13.93l.61,1.21-1.19-.5-.93.85.03-1.35-.85-.47c-.35-.03-.34-.15-.01-.19l1.07-.23.21-1.27.38.61.37.57,1.12-.16-.81.93ZM15.23,9.89c.24.35.08,1.02-.2,1.28l-1.09-.12.29,1.2.08.41c-.16.08-.39.2-.38.19l-.51-.76.07.99-.33.04-.23-.53c-.16-.24-.3-.17-.26.23.09.29-.23.56-.34.2.02-.49-.32-.57-.33-.11l-.16.37-.4-.73-.11.73-.32-.02-.26-1.02.04-.5-.49-.03-.57.3-.38-.44-.17-.38.32-.38-.29-.78s-.01,0-.25.12l-.4-.42-.15.49-.19.64-.09-.68.28-.67-.3-1.87.13-.13.04-.39.57-1.36.93-.95,1.5-.66-.09-.42.2-.1.41.55c1,.26,1.75.62,2.58,1.2.47.76.8,1.48.96,2.28l.1,1.64-.17.02-.36-.51c-.03.25.09.67.3,1.05ZM16.95,5.88l-.66.76.14-1.53-.96-.51,1.12-.37.3-1.15.59,1.05,1.08-.14-.23.48-.43.49.49,1.17-.99-.47s-.4.18-.45.21ZM18.22,7.33l.35.11-.44.32.08-.43ZM20.39,10.71s0,0,0,0c.26-.08.29-.09,0,0ZM19.94,12.25l.09.09-.09.09-.09-.09.09-.09ZM19.27,11.7c-.05.17-.19.31-.36.36l.36-.36Z"/><path d="M22.37,11.5l-.6.11.04-.31.5-.22-.44-3.31-.14-1.19-.54-3.2.3-.72-.13-1.26-1.47-1.41-.9.2-.44.66.13-.66-2.06.35-4.92.76-7.69,1.17-1.78.36-.81,1.7.09,1.21.47.95.18,1.91.89,6.1.23,1.45.31,2.6c.02.19.45.69.56.7.44-.38.45-.37.53-.38-.2.31-.29.45-.29.45l.95,1.17,1.65,1.04.25-1.02-.99-.94-.99-.72-.77-.7-.5-3.46-.44-2.78-.16-1.17-.73-5.31c-.06-.26.05-.67.24-.84l.64-1.28,1.3-.21,3.09-.48,3.41-.53.27-.23.25.16,1.32-.24.82-.09,1.63-.29.62-.1,1.15-.18,1.12-.19.48-.02.11.37,1.22.92.2,1.95.54,3.76.1.75.48,3.57.03.44-.45.17-.89,1.38-1.43,1.8-.81,1.11-.3.53.15.16-.24.32-.07.68s-.23.16-.28.2l.19-1.18-1.57,1.86-.59,1.09-1.52.57-.93.39-2.39.84-.44.12-1.19-1.05-.96-.73-.47-.22-.24.93,1.59,1.25,1.07.91,1.85-.71,1.87-.64.81-.34,1.49-.55.76-1.16.9-1.15.85-1.07,1.07-1.38.58-.9.2-.22-.22-.05.19-.18.19-.17.02.2.19-.16.46-.53.56-1.07c-.14-.23-.12-.41.15-.12l.77-.72-.19-1.58ZM3.69,15.8l.27.43-.38-.09.11-.34ZM3.11,12.09c.09,0,.16.07.16.16s-.07.16-.16.16-.16-.07-.16-.16.07-.16.16-.16ZM2.55,8.85l-.11-.09.11-.09.09.09-.09.09ZM15.78,1.31l-.09-.11.09-.09.09.09-.09.11ZM21.07,5.45l-.09-.09.09-.09.09.09-.09.09ZM21.26,6.58l-.09-.09.09-.09.09.09-.09.09ZM12.76,22.64h-.19l-.09-.09.09-.09h.19l.09.09-.09.09ZM15.59,21.51h-.19l-.09-.09.09-.09h.19l.09.09-.09.09ZM22.01,12.25l-.09-.09.09-.09.09.09-.09.09Z"/><polygon points="20.25 15.87 20.44 15.68 20.22 15.64 20.25 15.87"/><path d="M10.58,22.21l.62-.15,2.55-.97,1.19-.41.91-1.2.79-.98.97-1.32.62-.93.85-.78,1.15-1.5.65-.81-1.78.45-.74.39-.36-.18-.18.82c.19.25.07.69-.28.16l-.76.42-.49.53c.25.33.31.41.3.4l-.8-.08-.08-.32.31-.38-.36-.05-.14.33-.18.49-.53.09.3-.61-.93.72.56.11-.39.62-.48.24-.39-.35-.66.65c.06.1.11.19.14.24l-.81.69-.3.22.03.48-.18.47c-.01.36-.16.3-.25,0l-.02-.89-.67.41-.76.57-.32.19.08.25,1.1-.87.24.32-.21.2-.8.31-.48.44c-.05.38-.34.39-.38-.08h-1.2s1.05.9,1.05.9l.89.67.4.05-.04-.49c.08-.05.12-.02.24.5ZM18.05,15.65l.09.09-.09.09-.09-.09.09-.09ZM16.92,15.43l.41.24-.7.15.28-.39ZM15.48,18.71l.17.36-.58-.1.41-.25ZM14.83,19.81l.09.09-.09.09-.09-.09.09-.09ZM14.46,18.11l.09.09-.09.09-.09-.09.09-.09ZM13.42,18.39l.09-.09.09.09v.19l-.09.09-.09-.09v-.19ZM12.18,20.02c.08-.08-.05.05-.23.24-.09.09-.03.03.23-.24ZM11.06,21.32l.09.09-.09.09-.09-.09.09-.09ZM10.61,20.31s-.02.02-.03.04c.17-.23.19-.26.03-.04ZM10.3,20.94l-.09-.09.09-.09.09.09-.09.09Z"/><polygon points="17.61 14.11 16.65 14.78 17.26 14.92 17.61 14.11"/><polygon points="12.14 17.78 12.44 17.6 12.83 17.06 12.76 16.97 11.71 18.02 12.01 18.12 12.14 17.78"/><path d="M13.33,7.27c-.66,0-1.2.54-1.2,1.2s.54,1.2,1.2,1.2,1.2-.54,1.2-1.2-.54-1.2-1.2-1.2Z"/><path d="M9.73,7.61c-.34.52-.45.84-.47,1.47l1.02,1.03c1.04-.16,1.22-.54,1.33-1.51l-.6-1.07-1.29.08Z"/><polygon points="11.82 9.82 11.67 11.19 12.18 10.75 12.72 11.16 12.31 9.81 11.82 9.82"/><path d="M14.62,6.73s0,0,0-.01h0s0,0,0,.01Z"/><path d="M14.62,6.73s0,0,0,0h0Z"/><path d="M14.62,6.72l.22.37.03-.31-.19-.18s-.05.09-.06.12Z"/></svg>
