<svg xmlns="http://www.w3.org/2000/svg" id="a" viewBox="0 0 24 24"><path d="M9.34,3.37h0s-.03.01,0,0Z"/><path d="M13.34,20.52h0c.06-.03.09-.04,0,0Z"/><path d="M13.82,17.48h0s0,0,0,0Z"/><path d="M20.03,11.06h0c-.04-.07-.05-.09,0,0Z"/><path d="M23.89,18.45l-.22-.95-.9-.04v-.29s.94.12.94.12l-.5-2.65-.26-1.83-.23-1.47-.76-3.11-.41-1.25c-.25-.86-.63-1.63-1.12-2.39l-.05-.82-.35-.78.08-.36-.26-.27-1.25.32-1.86.31-1.62.2.24.46.35-.17.87-.13c.31-.21.72-.23,1.18-.03l.71-.26.72-.17.49-.12.06.38-.77.48-.04.17-.41-.32-.98.17-.97.26-1.01.06-1.24.21.07.33-.24.06-.13-.34-1.61.1-1.56-.09-.47.03-1.82-.28c-.54-.03-.99-.11-1.54-.29l-.97.1s-.19-.19-.28-.28l-.58-.3-.09-.21.22-.25.59.33.98.09.85-.02.08.02.29.24.38-.06h.72s.13.02.13.02c.04-.02.14-.06.18-.08l-.18-.16h-.22s-1.18-.11-1.18-.11l-.13-.06-1.02-.15-1.53-.35-.39.13v.43s-.44,1.12-.44,1.12c.17.41.06.75-.3.91l-1.13,2.76-.47,1.32-1.74,7.08-.37,1.52c.27-.22.48-.39.45-.37l.24-.84c0,.06.01.21.03.46l.35.34,1.12-.03c-.09-.42.09-.08.1-.09l.68.21.14-1.19.14-1.12.65-1.75.2-.42-.64.34-.5-.14-.69.45c.17-1.03.88-1.39,1.88-1.35l-.96-.48-.96-.15c.26-.45,1.01-.65,1.55-.38l.38.15.16.27.13-.33-.15-.1-.03-.55-.76-.58.37-.1,1.03.4.32,1.45,1.12-.5,1.12.67-.49-.02-1.32.17.43.16c.79.21,1.37.88,1.24,1.82l-.62-.69-.35.03-.79-.55.72,1.19-.26.79-.45-1.25-.62.5.2.22-.21.42-.14-.03-.09-1.62-.27.15-.58,1.18-.24,1.11.17,1.16.14.75.58-.33.24.29,1.94.99.32.13-.07.22-1.4-.52-1.66-.31-.75-.19-.91-.18-1.53-.06-.36.24-.03.16h-.38s-.1.41-.1.41l-.29.66.54.69.38-.05.11.05.43.22.24-.25-.53-.12-.09-.07-.59-.09-.12-.32.33-.24,2.37.23,2.03.32,3.92,1.4,1.34.48.31.24.16-.4.09-.79-.68-.28-1.39-.51-1.06-.52.41-.03,1.3.53h.47s.84-.99.84-.99l.1-.47.37-.09.29-.3.02-.71-.39.62-.23-.13.29-.67h-.37s-.23,0-.23,0l1.08-.89.02-.66-.02-1.39h.31s-.03,1.01-.03,1.01l.35-.19c-.16-.36-.04-.36.16-.08l-.12.66-.11.45.53.77.56-.07s-.1.18-.12.22l-.29.09.49.5c.07.06.32.29.36.33l.52.12-.35.4-.92-.52-.59-1.12.08,1.04.24.27-.1.51c-.11.07-.11.06.38-.22l.39.81c-.07.47.02.76.23,1.21l.64-.52.07.24-.57.35.38.39-.19.2-.25.47-.44-.6c-.07.03-.17.07-.19.08l.12.33.14.71.63-.61,2.07-.49,3.16-1.05.86-.2,2.67-.44c.34-.02.38-.24-.09-.45l.76-.1-.08.46.4.32-.81.46.74-.04.28-.52-.11-.53ZM1.32,15.75c0,.05,0,.1,0,.14,0-.04,0-.09,0-.14h0ZM1.32,16.05s0,.03,0,0h0ZM1.38,14.46c0-.11.09-.21.21-.21s.21.09.21.21-.09.21-.21.21-.21-.09-.21-.21ZM1.92,16.62l-.29-.29c.12-.07.35.17.29.29ZM2.12,12.38c-.06.27-.11.21-.13-.03l.05-.48.33.1-.24.4ZM2.62,10.97l-.24-.06.21-.62c.05.02.14.06.22.1l-.2.58ZM2.97,9.31l-.09-.09.09-.09.09.09-.09.09ZM3.41,7.91c-.09,0-.16-.07-.16-.16s.07-.16.16-.16.16.07.16.16-.07.16-.16.16ZM4.45,6.74c-.09-.49-.43-.42-.58.01v-.48s.62-.96.62-.96l.62-.49-.35-.27.06-.59c.13-.02.55-.09.36-.06l.16.65.62-.58.17.64.51-.37.5-.08.37.07-.16.38-.07.4h-.49s-1.13-.08-1.13-.08l-.85,1.21-.38.6ZM5.39,6.03s-.03.16-.27.51c-.02-.03.08-.23.27-.51ZM5.36,7.11l-.09-.09.09-.09.09.09-.09.09ZM5.72,10.05h-.18l-.09-.09.09-.09h.18l.09.09-.09.09ZM6.04,8.56s.08-.23.27-.51c.03.04-.03.16-.27.51ZM7.17,5.87l-.47-.34.83-.09-.36.43ZM4.81,16.84l-.09-.09.09-.09.09.09-.09.09ZM1.38,18.01l-.33.18.14.26-.42.2-.25-.26.33-.28.11-.19.87-.21.56.35-1-.04ZM5.11,18.82l-1.27-.02-1.04-.14.62-.36.28-.1.29.04,2.02.51c-.29.35-.62.32-.91.07ZM6.27,19.04l-.09-.09.09-.09.09.09-.09.09ZM7.56,19.6l-.09-.09.09-.09.09.09-.09.09ZM9.57,20.14l.2.19.16-.14.67.24-.03.41-.81-.4-.44.02.26-.32ZM8.4,19.9c-.21-.02-.33-.03-.35-.03.01,0,.11.01.3.03.02,0,.03,0,.05,0ZM22.17,17.88c-.21-.02-.33-.03-.35-.03.01,0,.11.01.3.03.02,0,.03,0,.05,0ZM21.78,16.88l.08-.41.34.1-.42.31ZM21.98,17.51c-.21-.02-.33-.03-.35-.03.01,0,.11.01.3.03.02,0,.03,0,.05,0ZM22.15,10.87l-.11.1-.18-.84.31-.03-.03.77ZM21.97,9.59l-.09.09-.09-.09.09-.09.09.09ZM21.51,8.58h.18l.09.09-.09.09h-.18l-.09-.09.09-.09ZM21.17,6.97l.2.18.05.59-.12.15-.62-.5.17-.07.32-.36ZM17.71,4.8l.45-.27.29.23.05-.59.53.22-.04-.47.15-.11.14.34.22.21.28-.1-.21-.4.33-.48.1.75.23.36-.42.3-.42.21.28.3.45-.42.17.4.28.47.26.37-.53.33.4.75-.14.12-.72-1.03-.57-1.07-.31-.37-.36.2-.37.18-.62.14c.02.19.04.3.04.34,0-.05-.02-.16-.04-.34l-.41-.37-.02-.66.53.48ZM19.35,6.25l-.42.14-.13-.5.51-.02.04.37ZM18.71,6.72l-.66.19-.04-1,.71.81ZM16.58,4.4l.27.6-.31.1-.15-.42.18-.29ZM14.15,5.73l.34-.79.59.06.5.06.52-.25.14.52-.58.06-.66.1-.51.13-.1.44-.51.13.28-.46ZM15.92,6.18l-.38-.25.32-.37.06.63ZM8.11,18.49l-.09-.09.09-.09.09.09-.09.09ZM7.98,14.27l.32-.39.1.33-.42.07ZM8.48,18.13l-.09-.09.09-.09.09.09-.09.09ZM9.21,17.39l-.09-.09.09-.09.09.09-.09.09ZM9.37,5.34l-.31.41-.56.62-.2-.08.48-.97-.75-.03.05-.81.39.54.21-.18.33-.13.35.35.22-.35.32.44.28-.26.35.77-.21.34-.32-.32-.26.15-.38-.49ZM9.5,19.02l.28-.37.4.23-.68.15ZM10.13,17.23c.08-.08-.05.05-.23.23-.09.09-.03.03.23-.23ZM11.74,12.95v-.52s.31.08.31.08l-.31.45ZM12.61,13.26l-.09.09-.09-.09v-.18l.09-.09.09.09v.18ZM14.01,10.09l-.68-.72.23-.42.21.51.42-.22-.56-1.9-.18,1.38-.23-1,.03-.53-.07-.51-.3-.56-.06.5v1.04s.34,3.12.34,3.12l.36,1.36-.58.04-.11-.66-.55-4.78-.23-.63-.62,5.96.04.47-.49.12-.02-1.16.16-.7.19-1.55-.18.47-.98.54c-.31-.37-.54-.77-.59-1.09l.26-.97.6-1.43.53-.77.22-.3-.36-.35.02-.46.45-.09c.36.25.85.21,1.06.03l.63.24.79-.52.09,1.07-.67-.12.45.82.36.74.56,1.46.05.96-.59.63ZM14.83,18.93l.18-.19-.22-.46.29-.1.55.39.19.39.54.28-.91-.02-.62-.28ZM16.28,19.8c-.12,0-.21-.09-.21-.21s.09-.21.21-.21.21.09.21.21-.09.21-.21.21ZM20.77,18.96l-.98.07.23-.68.75-.21.29.66-.28.15ZM21.14,18.31l-.16-.09.16-.09.09.09-.09.09ZM20.75,17.83l-1.36.3-.55.21-.67.23-.44.06.53-.34,1.75-.56-.16-.95v-.56s-.65-2.34-.65-2.34l-.28-.19-.09.42-.33.89.08.66-.4-.35v-.82s-.61,1.25-.61,1.25l-.21.49-.23-1.14.97-1.76-.66.46-.57.39-.27.65-.41-.23-.21.47-.17-.47.51-1.21c.64-.4,1-.54,1.84-.71l-1.15-.27-1.02.05v-.21s.66-.4.66-.4l.71-.18.77.1.39.47.54-1.39c.56-.41,1.02-.57,1.68-.59.03.15.04.24.05.28l-.78.53s.05.11.09.17l-.73.83.5-.23.84-.44c.6.13,1.1.42,1.42,1.01l-.84-.14-.04.31-.38-.09-1.03.21.72.02,1.22,1.14-.05.81-1.18-1.15-.05.29-.13.09-.93-.39.15.37.58,1.3.3,1.09.21,1.25.67.1-.61.2ZM19.4,17.48l.09-.09.09.09-.09.09-.09-.09ZM21.51,18.13l-.09-.09.09-.09.09.09-.09.09ZM23.27,16.4l-.37.09.27-.42.11.33ZM22.74,13.84l.24.33-.24.34v-.67Z"/><polygon points="5.28 20.78 4.58 20.57 4.52 20.81 4.92 20.87 5.32 21 6.15 21.16 6.81 21.15 6.07 20.84 5.28 20.78"/><path d="M14.96,3.46c.02-.08.04-.18.06-.29h-.81s-1.25.15-1.25.15l.09.12,1.9.02Z"/><path d="M14.93,3.58s0,.01,0,0h0Z"/><path d="M14.96,3.46h0c-.01.06-.02.1-.03.12,0-.02.01-.06.03-.12Z"/><polygon points="14.48 21.65 15.49 21.49 15.96 21.29 14.65 21.23 14.48 21.65"/><polygon points="11.89 3.41 11.78 3.25 10.39 3.29 10.5 3.45 11.89 3.41"/><rect x="13" y="19.25" width=".31" height=".88" transform="translate(-8.25 9.58) rotate(-30.96)"/><path d="M21.49,19.83l-.45.26h.52s.72-.31.72-.31c.28-.09.21-.15-.05-.16l-.74.21Z"/><path d="M10.75,19.86h.41c.13-.64-.55-.64-.41,0Z"/><path d="M1.72,19.83c.32.2.56.29.86.37l.2.04h.23s-.32-.22-.32-.22l-.98-.19Z"/><polygon points="8.19 21.47 8.29 21.63 9.32 21.58 9.21 21.42 8.19 21.47"/><polygon points="13.17 3.95 13.07 3.8 12.05 3.85 12.15 4 13.17 3.95"/><path d="M11.87,3.91c-.36-.06-.66-.05-.95.03l.95-.03Z"/><circle cx="11.31" cy="18.29" r=".22"/><path d="M10.5,19.76c.07.07-.05-.05-.25-.24-.08-.08-.02-.02.25.24Z"/><path d="M19.74,20.44c-.19-.02-.29-.03-.3-.03.01,0,.13.01.35.03-.01,0-.03,0-.05,0Z"/><path d="M19.43,20.41s0,0,0,0h0Z"/><path d="M19.82,20.45s-.02,0-.04,0c.17.02.22.02.04,0Z"/><polygon points="17.55 21 18.12 21.03 18.69 20.57 18.08 20.71 17.55 21"/><polygon points="11.05 18.86 10.96 18.95 11.05 19.04 11.23 19.04 11.32 18.95 11.23 18.86 11.05 18.86"/><polygon points="9.58 21.43 9.49 21.52 9.58 21.61 9.76 21.61 9.85 21.52 9.76 21.43 9.58 21.43"/><rect x="12.82" y="18.7" width=".13" height=".13" transform="translate(-9.5 14.61) rotate(-45)"/><polygon points="20.96 19.4 20.87 19.5 20.96 19.6 21.05 19.5 20.96 19.4"/><rect x="3.09" y="19.62" width=".13" height=".13" transform="translate(-13 8) rotate(-45)"/><rect x="6.58" y="20.54" width=".13" height=".13" transform="translate(-12.62 10.73) rotate(-45)"/><rect x="16.67" y="21.09" width=".13" height=".13" transform="translate(-10.06 18.03) rotate(-45)"/><polygon points="11.29 6.28 10.61 7.68 10.41 8.1 10.55 8.3 10.12 8.69 10.44 9.74 10.85 9.21 11.06 8.01 11.18 7.27 11.3 7.39 11.43 8.12 11.49 7.28 11.33 7.17 11.29 6.28"/></svg>
