<svg xmlns="http://www.w3.org/2000/svg" id="a" viewBox="0 0 24 24"><path d="M4.9,8.01h0s-.01.03,0,0Z"/><path d="M9.25,21.95h0s0,0,0,0Z"/><path d="M23.79,7.78l-1.46-1.25-.35-.4-1.14-1.12c-.22-.08-.38-.2-.4-.27l-.71-.84-.26-.16-.28.42.15-.57-2.61-.96-.4-.16-.92-.31-.41-.15-.23.3.15.36c-.37,1.75-1.87,2.88-3.66,2.45l-.87-.03v-.34s-.34-.11-.34-.11l-.76-1.22-.1-.96.28.5.73.63,1.25.26,1.46-.02,1.07-.39.53-.28-.16-.36.2-.21c-1,.39-2.08.73-3.18.6l-.59-.16-1.42-.85c-.13-.03-.66.05-.93.13l-.85.31-1.55.57-1.43.57-3.22,3.42-.66.63.14.39-.48-.05-.38.58,1.96,2.05,1.29,1.41.51-.42.11-.08.87-.62-.3-.07-.29.31-.34-.39c-.21-.04-.34-.1.09-.22l-.59-.63.23-.28-.16-.24.09-.71.21-.17.39-.95.82.32s.09-.19.1-.21l-.75-.29.27-.49.33-.12-.04-.45v-1.17s.13-.1.13-.1l.11.71.22,1.39.03.59-.02.75-.21,2.33-.17,1.42-.06,3.19.17.3-.21.27-.03,3.26-.08,1.78-.07.72h1.1s.43.03.43.03l.15-.34c.29.25.62.39.98.35l1.37.06.24-.29.35.25s.22,0,.31,0l3.16.03.27-.23.27.25,1.27-.08c.06-.52.36-.45.36.04l2.5.02.26-.21.25.22.84-.04-.08-1.13v-.88s-.08-1.25-.08-1.25l.1-.78-.26-.84c-.44.33-.49.16-.35-.08l.29-.27.3.27-.06-1.37-.03-2.31-.09-2.9v-.53s-.11-1.03-.11-1.03l-.06-.6.87,1.23-.41.35.33.09.6-.72.75.55-.4.84-.53-.31c-.06-.27-.18-.34-.22.06-.34.09-.43.26.05.23l.09.64.34.37.66.48.72-.94.69-.72,1.99-2.15.15-.27-.21-.2ZM13.89,3.04l.09.09-.09.16-.09-.16.09-.09ZM2.72,10.24l-.45-.29.16-.28.29.58ZM2.22,9.51l.09.09-.07.09-.11-.09.09-.09ZM3.63,11.23l.09.33-.08.06-.39.23-1.14-1.4.81.09.72.69ZM4.01,5.2l-.09-.09.09-.09.09.09-.09.09ZM5.43,21.12l-.4-.07.46-.85-.06.92ZM5.99,21.18l-.09-.09.09-.09.09.09-.09.09ZM5.61,4.18v-.31s.39-.13.39-.13l.09.3-.48.14ZM7.6,17.41h.18l.09.09-.09.09h-.18l-.09-.09.09-.09ZM7.42,10.94l.09.09-.09.09-.09-.09.09-.09ZM7.33,17.32l-.09.09-.09-.09.09-.09.09.09ZM7.06,3.4l.09.09-.09.09-.09-.09.09-.09ZM6.88,17.58l.09.09-.09.09-.09-.09.09-.09ZM6.35,7.35l-.09-.09.09-.09.09.09-.09.09ZM8.05,21.23l-1.35-.07-.1-.12,1.39-.08.32-.08c-.11.14-.2.27-.26.35ZM8.68,21.18l-.09-.09.09-.09.09.09-.09.09ZM8.83,4.18l-.19-.59.41.14.08.47.16.69-.45-.71ZM12.82,5.71l.39.22-.66.14.27-.37ZM12.54,12.29l-.09.09-.09-.09.09-.09.09.09ZM10.55,5.4l-.11.48-.63-.68.75.2ZM10.17,21.17l.31-.38.09.32-.41.07ZM11.01,20.28h-.18l-.09-.09.09-.09h.18l.09.09-.09.09ZM11.45,5.88l.82.04.1.15h-1.09c-.24-.37-.06-.38.17-.19ZM12.45,21.18l-.09-.09.09-.09.09.09-.09.09ZM12.5,18.45l-.17-.29.66-.4.17.29-.66.4ZM13.17,11.84l-.09-.09.09-.09.09.09-.09.09ZM13.53,6.63l-.09-.09.09-.09.09.09-.09.09ZM13.43,5.77l.08-.4.34.1-.41.3ZM16.45,3.2c.41.02.58.05.86.53l-.94-.29c-.25-.1-.25-.18.09-.23ZM15.41,3.13l.09-.09.09.09v.18l-.09.09-.09-.09v-.18ZM15.38,3.62c.06.12-.16.35-.28.28l.28-.28ZM14.48,5.02l.37-.72.2.2-.57.52ZM15.32,21.18l-.09-.09.09-.09.09.09-.09.09ZM15.05,20.67l.08-.4.34.1-.41.3ZM15.41,13.31l.08-.4.34.1-.41.3ZM15.6,7.51l.34-.29c0,.05-.08.13-.34.29ZM16.4,21.18h-.18l-.09-.09.09-.09h.18l.09.09-.09.09ZM17.12,17.58l-.09-.09.09-.09.09.09-.09.09ZM17.3,14.53l-.09-.09.09-.09.09.09-.09.09ZM18.13,21c0,.11-.09.2-.2.2s-.2-.09-.2-.2.09-.2.2-.2.2.09.2.2ZM18.2,6.27l-.09-.09.09-.09.09.09-.09.09ZM19.81,4.84l.09.09-.09.09-.09-.09.09-.09ZM19.36,6.18l-.09.09-.09-.09.09-.09.09.09ZM20.35,9.13l-.75-.13-.73-1.2-.43.35v-1.16s.17-.9.17-.9l.17-.91c.06-.4.12-.64.43-.92l-.32,1.19-.14,1.66.4-.48.2.29-.14.4.7.38-.39.32.48.03.09.36.42.61-.16.1ZM20.83,10.24c-.05-.33.2-.58.47-.54l-.47.54ZM21.38,8.24l.32.28-.32.28v-.55ZM21.79,9.15l-.09-.09.63-.63.09.09-.63.63ZM22.24,9.34l.26-.41.1.32-.36.09Z"/><path d="M3.95,9.66l.38-.26.27.43.06-1.17c0-.18-.44-.33-.29.03l-.33.63-.09.33Z"/></svg>
