<svg xmlns="http://www.w3.org/2000/svg" id="a" viewBox="0 0 24 24"><path d="M20.74,22.06v-.61s.04-1.16.04-1.16l-.04-.6.06-.64-.16-1.12.11-1.03.02-.77v-.63s0-.41,0-.41l-.02-.92.12-1.08.12-.81.11-.85c-.95-.36-1.38-.89-1.75-1.68l-.44-1.1c-.47.2-.56-.12-.06-.25l-.11-1.53-.04-1.73.49-3.86.16-.53-.38-.14-1.49-.46-1.08-.07.27.48.25.46.29.27-.13.12-.21-.19-.17.38-.16,1.74-.45,2.04c-.33,1.03-.86,1.88-1.64,2.67l-1.72.66h-.21s-.11.08-.11.08l-.15-.03-2.21-.7s-.01.06-.02.08l-.15.05-.22-.19s.04-.06.21-.29l-.2-.18c-.51-.85-.95-1.8-1.25-2.76l-.26-1.54-.05-.81-.05-1.78.04-.36.1.08.11.13.19.26c.01-.09.03-.18.04-.24l-.08-.18-.12-.12-.1-.1-.59-.1-.79.26-.84.17-.54.29.21,1.09c.22,1.89.31,3.73.19,5.64l-.45,1.69-.64,1.13c-.39.52-.84.83-1.55,1.02l.05.83.12.77.04,1.6.02.93-.05.84-.1,1.7v.97s-.1,1.15-.1,1.15v1.19s-.26,1.57-.26,1.57l-.07.91,2.2.12.97.08h2.14s1.03,0,1.03,0l.86-.22.05.29.59-.2.44-.05.52-.39-.38.6,3.26-.05.31.05,2.33-.04c-.01-.43.14-.27.22-.03h1.12s1.28,0,1.28,0h.92s.26-.53.26-.53l-.28-1.19c-.33.02-.31-.06-.02-.11ZM6.47,3.45v.19l-.1.1-.1-.1v-.19l.1-.1.1.1ZM6.17,1.02l.1.1-.1.1-.1-.1.1-.1ZM5.4,10.74l.09.1-.94.94s-.07-.08-.09-.12l.95-.93ZM4.11,11.38h0c.26-.3.16-.18,0,0ZM3.84,11.91l.1.1-.1.1-.1-.1.1-.1ZM4.27,13.39l.12.79.26-.5s.11.3.15.42l-.46.78c.24.27.18.4-.14.16l-.06.75-.13.27-.25-.7-.06-2.07-.12-.64.69.74ZM3.45,22.61l.1.1-.1.1-.1-.1.1-.1ZM3.64,23.39h-.19l-.1-.1.1-.1h.19l.1.1-.1.1ZM4.04,19.95c.2.12-.12.4-.3.28l.03-2.52.15.56.37.35-.33.58.08.74ZM4.11,16.34l.13-.37.27.37h-.41ZM4.89,16.01c-.18-.13-.31-.34-.32-.62l.32.62ZM4.75,16.24l.31.31c-.13.07-.37-.18-.31-.31ZM4.55,12.88l-.49-.35.54.08.45-.74-.07.95,1.28,1.33-.15.16-1.55-1.44ZM6.57,22.72l-.47.44-.61-.23s.05-.13.08-.2l1.06-.41s-.03.16-.07.41ZM6.21,9.52l-.17.65-.05.19h-.37s.01-.01.02-.03l.22-.56.25-.48-.19-.41.48-.29.27.3-.45.63ZM6.56,6.66l-.1-.1.1-.1.1.1-.1.1ZM6.56,5.88l-.1-.1.1-.1.1.1-.1.1ZM6.66,4.81l-.1.1-.1-.1v-.19l.1-.1.1.1v.19ZM14.07,21.96c-.23-.02-.35-.03-.37-.03.01,0,.12.01.32.03.02,0,.03,0,.05,0ZM12.62,8.84l-.07.2c.04-.13.11-.32.07-.2ZM10.17,8.22s-.1.1-.16.15l.16-.15ZM9.77,8.51l-.14.14-.69-.54.15-.28.68.68ZM8.48,6.84l-.15.2-.41-.61-.03-.97.59,1.38ZM7.76,4.93s-.01.08-.01.11c0-.03,0-.05.01-.08v-.25s0,.22,0,.22ZM7.72,5.23s0,.04,0,0h0ZM7.73,21.45l.1.1-.1.1-.1-.1.1-.1ZM7.08.36l.32,1.13.05,1.52.18.21v1.4s-.11.1-.11.1l-.18-.71-.08-.87-.18-.84V.36ZM7.1,23.02l.05-.18.8-.15.48.27-1.33.07ZM8.39,7.29l.11-.24.33.34-.13.25-.31-.35ZM8.88,7.64l.11.09-.08.09-.12-.09.08-.09ZM9.23,23.08c-.09.09-.03.03.24-.25.08-.08-.05.06-.24.25ZM8.86,20.5c0-.1.02-.23.03-.31l.8-.67.09.09-.91.9ZM9.8,22.86l.64.08c-.16.35-.48.29-.64-.08ZM10.31,9.18l-.54-.47.13-.14.43.3,1.4.49,1.38.07-.49.26-.9-.12-1.4-.39ZM13.33,22.32l-.45.33.08-.44.37.11ZM12.11,23.2h-.97v-.39h.97v.39ZM12.49,23.23l.08-.44.37.11-.45.33ZM13.27,23.22c-.12,0-.22-.1-.22-.22s.1-.22.22-.22.22.1.22.22-.1.22-.22.22ZM14.15,23l-.1-.1.1-.1.1.1-.1.1ZM14.11,9.32l.1-.48.67-.18-.78.67ZM20.18,11.9l.53.11-.57.13.04-.24ZM19.99,11.72l.1.1-.09.09-.1-.09.1-.1ZM19.58,11.31l.26.26-.05.16-.3-.1.09-.33ZM18.64,9.96l.1.29-.12.1-.1-.29.12-.11ZM18.59,1.17l.1.49-.42.36.32-.85ZM18.24,3.75c0,.17,0,.28,0,.32,0-.04,0-.15,0-.32h0ZM18.24,3.71q0-.18,0,0h0ZM18.04,6.27l.1.1-.1.1-.1-.1.1-.1ZM18.04,6.86l.1.1-.1.1-.1-.1.1-.1ZM17.9,8.55l.12-.56.27.37.16.82.08.69-.13.11-.29-.87-.38-.19.17-.36ZM18.24,22.03l.1.1-.1.1-.1-.1.1-.1ZM17.08,2.41c.09,0,.17.07.17.17s-.07.17-.17.17-.17-.07-.17-.17.07-.17.17-.17ZM15.57,23.15l-.31-.31c.13-.07.37.18.31.31ZM15.9,23.59l-.1-.1.1-.1.1.1-.1.1ZM17,5.48l-.28.7-.66,1.28-.68.87-.25-.09.88-.96.5-1.07.53-1.58c-.02-.31.05-.33.16,0l-.2.85ZM17.17,4.07l.11-1.3.09-1.01-.19-.25.08-.09.21-.22.15.38-.15,1.65-.31.83ZM17.92,23.02l-.28.17-.29-.35h1.03s-.46.19-.46.19ZM19.72,23.03l-.82-.1.78-.39c.14.07.18.49.04.48ZM20.15,17.68c-.24.54-.27,1.21-.13,1.82l.03.61-.08.17-.26-.6-.35-.71.11-.15-.1-.16.31-.46.32-.73.17-.31.31.08-.34.45ZM20.47,13.82l-.31.33-.64,1.3-.19.45-.59-.27c-.49.19-.53.2-.24.09l.49-.59.33-.21-.25-.42.38-.49.8-1.19.35-.13-.1.48-.03.66Z"/><path d="M8.53.49h0c.02-.12.01-.09,0,0Z"/><path d="M10.04,8.05h0c.03-.15.07-.35,0,0Z"/><path d="M8.68.98s-.01.03,0,0h0Z"/><path d="M8.89,1.23l.08.09.11.12.09.08.39.57-.08.1-.17-.03-.08-.09-.09-.14-.08-.07-.29-.37.11.52.11.08.1.11.11.09.38.3.61.36c.68.2,1.4.34,2.1.29l.8.07.96-.16.1-.64.24.55,1.08-.59-.49-.15c.65-.66.99-1.02,1.42-1.68l-.95.87c-.67.44-1.5.74-2.34.98l-1.02-.04c-1.05-.11-1.98-.47-2.79-1.02l-.08-.12-.12-.11-.08-.08-.12-.11-.16-.21c-.02.06-.05.15-.07.19l.1.15.11.11ZM10.33,2.44l-.34.09-.46-.23.15-.14.65.28Z"/><path d="M12.56,4.72l.35-.09-.03-.88h-.94s-.08.7-.08.7l.32.32.14-.33-.23-.23.39-.22c.07.16.17.38.13.29l-.05.45Z"/></svg>
