<svg xmlns="http://www.w3.org/2000/svg" id="a" viewBox="0 0 24 24"><path d="M12.69,19.91l.28-.03-.42-.98,1.84.93-.66-.98,1.06.24.35.47.29-.46,1.91.1-.34-.34-1.34-.23.13-.61-1.46.26.23-.55-1.38.15-.08-.08.44-.67-1.59.89-.96.11c.59-.48,1.11-.79,1.75-1.1l.91-.29.14.39,1.97.05.29.45,1.39.42.35.57.66.55.66.49-1.59.03-.31.21-.29-.25-.12.56-.51-.08-.94.47-1.38-.19-.13.44-1.07-.4-.86-.19-1.04-1.13.83-.22.98.97Z"/><path d="M12.25,11.42l-.32.19-1.59-.45-1.45-.5c-.4-.39-.58-.94-.56-1.52l-.47-.05-.34-.33-.27-1.14.2-1.18.37-.12.16.35.86,1.02.13.81.79.67.5.42-.13.34.47.32,1.64,1.16Z"/><path d="M10.32,7.58c-.62-.32-1.13-.79-1.66-1.33l-.96-1.13c.25-.77.28-1.23.19-1.83l-.34-.78.59-.27,2.44-.61-.69,1.08c.05-.02-.17.06-.6.22l-.11,1.75-.27-.55-.14.49,1.53,2.97Z"/><path d="M12.63,12.07l.77-.26,2.08.36.19-.53,1.56-.05.7-.21,1.41-.3-.8,1.74-1.39-.1-1.15.89-.76-.3-2.62-1.25ZM17.43,11.85l-.11.11v.21l.11.11.11-.11v-.21l-.11-.11Z"/><path d="M19.72,10.12c-.92.34-1.72.62-2.64.43l1.82-.73.81-.64-.08-.61.42-.16.43-.31-.18-.54.77-.9.21-.31.47,1.02.49,1.21-.59.19-.63.65c-.08.52-.66.92-1.3.69Z"/><path d="M13.42,7.13l-1.39-.66-.13-.48-.44-.48-.69-1.23c-.08-.28-.15-.8-.17-1.15l.87-2.22,1.26-.1,1.02.47c-1.03.08-1.62.41-2.22,1.17l-.32,1.17c.63,1.37,1.32,2.5,2.63,3.23l.4.51-.81-.24Z"/><path d="M17.08,9.55l-1.54-.46-1.32.85-1.19-.74c-.33-.06-.37-.06.04,0,.25-.19.47-.36.37-.29l-1.29-.18-1.34-.41c-.46.1-.26-.27,0-.31l2.69.26c.72-.06,1.34.11,1.99.56.78.02,1.74-.08,2.5-.23l.28-.39.36.14-.13.48-.68.34-.75.38Z"/><path d="M20.15,6.38l-1.02.79-.12-.12.75-.67.25-.61v-.6s-.5-1.19-.5-1.19l-.71-.82-.62-.83c.53-.08,1.24.09,1.62.69l.91.41.66,1.08-1.22,1.88Z"/><path d="M17.64,1.87l-.6-.3c-.34-.02-.75-.1-1.06-.21l-2.62-.67,1.61-.55L16.04,0l1.09.98.76.76-.24.13Z"/><path d="M7.32,18.89l-.04.41-1.51,1.64-.15-.21.15-.53-.39.35c-.32.41-.65.78-1.07,1.07l-1.99,1.93.21.21,1.92-1.92.1.1-1.51,1.54-.2.5-1.07-.05,1.32-1.45c.12-.2.41-.47.68-.61l2.05-2.16.1-.72.34-.62-.13,1.28c-.13,0,.14,0,.24,0l.95-.78Z"/><path d="M7.56,18.7l.2-.23-.2.23Z"/><polygon points="7.96 18.88 8.07 18.41 7.97 18.19 9.01 17.1 8.75 16.29 8.94 15.95 9.13 16.56 9.43 16.39 9.93 15.45 10.32 15.62 10.8 14.01 11.31 12.61 11.48 13.24 11.9 13.8 12.53 13.6 11.93 13.98 10.97 15.07 9.67 16.52 10.31 16.3 10.86 16.15 10.06 16.74 8.6 18.04 7.96 18.88"/><path d="M7.32,18.89l.24-.19-.24.19Z"/><path d="M7.28,19.3h.23s.02.11.02.11l.14.15.46-.34,1.82-.59c.39.13.35.19.04.18l-.76.25-.63.31-1.45.73.2-.41.08-.15-.14-.22Z"/><path d="M7.71,19.06l.25-.18-.25.18Z"/><polygon points="8.07 18.41 7.76 18.47 7.97 18.19 8.07 18.41"/><path d="M7.51,19.28l.2-.23-.2.23Z"/><path d="M16.12,7.51l-.95.05.61-.37.91-.14,1.29-.64.38-.78.45-.71-.12.9s.22.29.34.44l-.81.7-.89.19-1.2.37Z"/><path d="M18.15,3.67c-.03.68-.14,1.14-.55,1.7l-.09-1.73-1.36-1.44,1.57.52.43.95Z"/><path d="M13.25,3.77l-.2.68-.31-.04c-.4-.89.04-1.56.78-1.87l.75-.39c.61-.22,1.41.06,1.75.78l-.72-.37-1.2-.13-.8.76.1.5.21.09.33.51.1.08.12.14.13.11-.11.19-.17-.15-.11-.12-.11-.11-.32-.52-.21-.12Z"/><path d="M14.25,5.45l.38.21,1.45.04.83-.68c-.16.99-1.22,1.28-2.01.98l-.79-.38-.13-.2.1-.12.17.15Z"/><path d="M16.18,5.24l-1.09.02-.12-.17,1.02-.07.78-.88c-.37-.29-.28-.38.07-.33l.05.71-.71.71Z"/><polygon points="13.77 15.07 13.48 13.55 13.95 14.07 13.77 15.07"/><polygon points="6.97 8.45 6.62 8.96 5.59 8.5 6.97 8.45"/><polygon points="6.71 21.9 5.39 21.95 6.21 21.38 6.71 21.9"/><path d="M18.92,13.98l-.74-.74.16-.17.74.62.06.38c.02-.14,0,0-.02.13l-.19-.21Z"/><path d="M13.39,5.39c-.02.14,0,0,.01-.13l.19.21.75.74.12.21c.43.02.3.01-.03,0l-.25-.05-.75-.6-.05-.38Z"/><path d="M15.16,3.06c.37.11.63.37.7.69l-.77-.48c-.3,0-.44-.05.06-.21Z"/><path d="M3.59,21.44l-.3-1.09c.41.24.49.73.3,1.09Z"/><polygon points="9.55 12.45 8.85 12.66 9.38 11.65 9.55 12.45"/><path d="M16.57,8c-.28-.03-.35-.09-.03-.16l.47-.28.12.38-.55.05Z"/><polygon points="10.97 11.99 9.87 12.28 10.49 11.91 10.97 11.99"/><path d="M12.05,2.66l.33-.33c.08.14-.19.41-.33.33Z"/><polygon points="13.38 10.15 13.6 10.15 13.7 10.26 13.6 10.36 13.38 10.36 13.28 10.26 13.38 10.15"/><polygon points="10.83 5.68 10.94 5.79 10.94 6 10.83 6.11 10.72 6 10.72 5.79 10.83 5.68"/><path d="M3.57,11.81c-.05.1.06-.13.09-.19l.16.22.5.28.92.21.39.35,1.02,1.6.45.47.07.93-.15.93-.55.63.17-.74.4-.65-.3-.12-.16.56-.27-.08-.22-1.39-.09-1.15-.35.67-.06-1.07-.33.29-.6-.65-.13.12.19.43-.37.18.66.71-.53.16.3.33.76.95-.83-.1.75.9-.32.48.52.17.14.13-.13.2-.19-.13-.33-.03-1.01-.98.11-.28-.61-.98.19-.4-.3-1.1.16-.6-.04-1.1-.08-.19ZM4.38,12.94l.12-.26-.12.26Z"/><rect x="12.67" y="7.42" width=".15" height=".15" transform="translate(-1.56 11.21) rotate(-45)"/></svg>
