<svg xmlns="http://www.w3.org/2000/svg" id="a" viewBox="0 0 24 24"><path d="M24,13.5l-.4-1.16-.25-.51-.26-1.27c-.94-.16-1.2-.29-1.79-.67-.62-.91-.71-2.01-.15-2.95l.86-.59-.62-1.01.09-.55-.44-.97-.26-.2-.39.27-.72-.95-1.8.58.11.34v1.03s-.87-.32-.87-.32l-.18-.8-.44.08-.84.44-.85.1-1.37.59c-.11.03-.26.05-.41.07l-1.92.59-.45.18-1.42.44-.09.57-.83.45.73-.93-4.17,1.26-3.88,1.25-.06,1.22-.92.49.62,1.14c.02-.27-.01.35-.02.44l.16.7.28.56.62-.1c.76.4,1.25.81,1.57,1.53.09,1.16-.16,1.98-1.21,2.64l.62.94-.16.53.29.41.25,1.06,1-.14.64.8.4-.1.8-.24,3.68-1.22,2.48-.8,1.25-.53c.02.05.03.1.05.15l2.02-.69.14-.03,2.91-.94.73-.29,1.01-.25.18-.33-.17-.19.28-.84.29-.31.28.26.41.44.14.48,1.74-.58-.1-1.04.8-.51ZM1.61,9.41l-.1.1-.1-.1v-.2l.1-.1.1.1v.2ZM18.41,8.12l-.43-1.16.62-.23.43,1.16-.62.23ZM18.62,12.9v.2l-.1.1-.1-.1v-.2l.1-.1.1.1ZM18.11,11.36l.1.1-.1.1-.1-.1.1-.1ZM17.8,10.56l.39.39c-.19-.06-.33-.2-.39-.39ZM18.93,3.78l.1.1-.1.1-.1-.1.1-.1ZM17.93,5.14l.69,1.13-.78.1c-.16-.51-.18-.72.09-1.23ZM16.98,4.98c.13,0,.23.1.23.23s-.1.23-.23.23-.23-.1-.23-.23.1-.23.23-.23ZM16.98,7.36v.2l-.1.1-.1-.1v-.2l.1-.1.1.1ZM16.24,4.95l.16.49L3.99,9.58l-.16-.49,12.42-4.14ZM13.95,12.74l1.27,2.25-2.79-.89-.54.75-1.39,1.7.02-3.03-2.35-.97-.41-.27,2.16-.81.62-.29.17-2.99,1.82,2.41,1.31-.36,1.59-.48-1.07,1.63-.64.9.24.45ZM13.09,16.18l-.1.1-.1-.1.1-.1.1.1ZM10.01,17.41l-.1.1-.1-.1.1-.1.1.1ZM12.88,8.59v-.2l.1-.1.1.1v.2l-.1.1-.1-.1ZM6.94,13.92l-.1.1h-.2l-.1-.1.1-.1h.2l.1.1ZM6.12,10.03l-.1.1-.1-.1.1-.1.1.1ZM5.09,11.46l-.1.1-.1-.1.1-.1.1.1ZM2.64,9.61l.34-.34.43.87-.52.05-.24-.59ZM3.02,10.83l.49-.15.43,1.38-.49.15-.43-1.38ZM3.95,13.75l-.36-1.14.43-.14.36,1.14-.43.14ZM4.11,14.24l.43-.12.34,1.25-.43.12-.34-1.25ZM5,17.24l-.4-1.31.48-.15.4,1.31-.48.15ZM5.2,17.73l.53-.11.24,1.2-.53.11-.24-1.2ZM5.9,20.15l-.23-.7.51-.17.23.7-.51.17ZM9.27,19.02c-.1.14-.05.07.18-.25l-.18.25ZM13.19,17.92s0,.02.01.04c0-.02,0-.03-.01-.04ZM15.24,17.43v-.28c0,.44,0,.51,0,.28ZM18.87,15.44l-3.94,1.25-2.27.74-4.26,1.36-.95.31h-.95s1.62-.63,1.62-.63l.61-.19,3.12-.98.78-.25,1.48-.53.83-.24,2.03-.62,2.29-.67-.4.45ZM19.03,14.54v-.2l.1-.1.1.1v.2l-.1.1-.1-.1ZM18.91,9.61l-.27-.72.05-.43.44-.16.24,1.43.52.59-.38.96-.6-1.66ZM19.62,11.44l.44.05.27.98-.39.3-.27-.37-.05-.96ZM20.27,14.16l-.23-.54-.13-.46.57-.22.24,1.21h-.46ZM21.8,14.64l-.1-.1.1-.1.1.1-.1.1ZM22.21,15.05l-.1-.1.1-.1.1.1-.1.1Z"/></svg>
